G04 MADE WITH FRITZING*
G04 WWW.FRITZING.ORG*
G04 DOUBLE SIDED*
G04 HOLES PLATED*
G04 CONTOUR ON CENTER OF CONTOUR VECTOR*
%ASAXBY*%
%FSLAX23Y23*%
%MOIN*%
%OFA0B0*%
%SFA1.0B1.0*%
%ADD10C,0.010000*%
%ADD11C,0.005000*%
%ADD12R,0.001000X0.001000*%
%LNSILK1*%
G90*
G70*
G54D10*
X3820Y633D02*
X3320Y633D01*
D02*
X3320Y633D02*
X3320Y533D01*
D02*
X3320Y533D02*
X3820Y533D01*
D02*
X3820Y533D02*
X3820Y633D01*
D02*
X1000Y664D02*
X1000Y585D01*
D02*
X803Y743D02*
X970Y743D01*
D02*
X803Y506D02*
X970Y506D01*
D02*
X764Y664D02*
X764Y585D01*
D02*
X882Y644D02*
X882Y605D01*
D02*
X902Y624D02*
X862Y624D01*
D02*
X1000Y1464D02*
X1000Y1385D01*
D02*
X803Y1542D02*
X970Y1542D01*
D02*
X803Y1306D02*
X970Y1306D01*
D02*
X764Y1464D02*
X764Y1385D01*
D02*
X882Y1444D02*
X882Y1405D01*
D02*
X902Y1424D02*
X862Y1424D01*
D02*
X1770Y1463D02*
X1770Y1363D01*
D02*
X1770Y1363D02*
X1870Y1363D01*
D02*
X1870Y1363D02*
X1870Y1463D01*
D02*
X1870Y1463D02*
X1770Y1463D01*
G54D11*
D02*
X1770Y1428D02*
X1805Y1463D01*
G54D10*
D02*
X1770Y1163D02*
X1770Y1063D01*
D02*
X1770Y1063D02*
X1870Y1063D01*
D02*
X1870Y1063D02*
X1870Y1163D01*
D02*
X1870Y1163D02*
X1770Y1163D01*
G54D12*
X1Y2135D02*
X4028Y2135D01*
X1Y2134D02*
X4028Y2134D01*
X1Y2133D02*
X4028Y2133D01*
X1Y2132D02*
X4028Y2132D01*
X1Y2131D02*
X4028Y2131D01*
X1Y2130D02*
X4028Y2130D01*
X1Y2129D02*
X4028Y2129D01*
X1Y2128D02*
X4028Y2128D01*
X1Y2127D02*
X8Y2127D01*
X4021Y2127D02*
X4028Y2127D01*
X1Y2126D02*
X8Y2126D01*
X4021Y2126D02*
X4028Y2126D01*
X1Y2125D02*
X8Y2125D01*
X4021Y2125D02*
X4028Y2125D01*
X1Y2124D02*
X8Y2124D01*
X4021Y2124D02*
X4028Y2124D01*
X1Y2123D02*
X8Y2123D01*
X4021Y2123D02*
X4028Y2123D01*
X1Y2122D02*
X8Y2122D01*
X4021Y2122D02*
X4028Y2122D01*
X1Y2121D02*
X8Y2121D01*
X4021Y2121D02*
X4028Y2121D01*
X1Y2120D02*
X8Y2120D01*
X4021Y2120D02*
X4028Y2120D01*
X1Y2119D02*
X8Y2119D01*
X4021Y2119D02*
X4028Y2119D01*
X1Y2118D02*
X8Y2118D01*
X4021Y2118D02*
X4028Y2118D01*
X1Y2117D02*
X8Y2117D01*
X4021Y2117D02*
X4028Y2117D01*
X1Y2116D02*
X8Y2116D01*
X4021Y2116D02*
X4028Y2116D01*
X1Y2115D02*
X8Y2115D01*
X4021Y2115D02*
X4028Y2115D01*
X1Y2114D02*
X8Y2114D01*
X4021Y2114D02*
X4028Y2114D01*
X1Y2113D02*
X8Y2113D01*
X4021Y2113D02*
X4028Y2113D01*
X1Y2112D02*
X8Y2112D01*
X4021Y2112D02*
X4028Y2112D01*
X1Y2111D02*
X8Y2111D01*
X4021Y2111D02*
X4028Y2111D01*
X1Y2110D02*
X8Y2110D01*
X4021Y2110D02*
X4028Y2110D01*
X1Y2109D02*
X8Y2109D01*
X4021Y2109D02*
X4028Y2109D01*
X1Y2108D02*
X8Y2108D01*
X4021Y2108D02*
X4028Y2108D01*
X1Y2107D02*
X8Y2107D01*
X4021Y2107D02*
X4028Y2107D01*
X1Y2106D02*
X8Y2106D01*
X4021Y2106D02*
X4028Y2106D01*
X1Y2105D02*
X8Y2105D01*
X4021Y2105D02*
X4028Y2105D01*
X1Y2104D02*
X8Y2104D01*
X4021Y2104D02*
X4028Y2104D01*
X1Y2103D02*
X8Y2103D01*
X4021Y2103D02*
X4028Y2103D01*
X1Y2102D02*
X8Y2102D01*
X4021Y2102D02*
X4028Y2102D01*
X1Y2101D02*
X8Y2101D01*
X4021Y2101D02*
X4028Y2101D01*
X1Y2100D02*
X8Y2100D01*
X4021Y2100D02*
X4028Y2100D01*
X1Y2099D02*
X8Y2099D01*
X4021Y2099D02*
X4028Y2099D01*
X1Y2098D02*
X8Y2098D01*
X4021Y2098D02*
X4028Y2098D01*
X1Y2097D02*
X8Y2097D01*
X4021Y2097D02*
X4028Y2097D01*
X1Y2096D02*
X8Y2096D01*
X4021Y2096D02*
X4028Y2096D01*
X1Y2095D02*
X8Y2095D01*
X4021Y2095D02*
X4028Y2095D01*
X1Y2094D02*
X8Y2094D01*
X4021Y2094D02*
X4028Y2094D01*
X1Y2093D02*
X8Y2093D01*
X4021Y2093D02*
X4028Y2093D01*
X1Y2092D02*
X8Y2092D01*
X4021Y2092D02*
X4028Y2092D01*
X1Y2091D02*
X8Y2091D01*
X4021Y2091D02*
X4028Y2091D01*
X1Y2090D02*
X8Y2090D01*
X4021Y2090D02*
X4028Y2090D01*
X1Y2089D02*
X8Y2089D01*
X4021Y2089D02*
X4028Y2089D01*
X1Y2088D02*
X8Y2088D01*
X4021Y2088D02*
X4028Y2088D01*
X1Y2087D02*
X8Y2087D01*
X4021Y2087D02*
X4028Y2087D01*
X1Y2086D02*
X8Y2086D01*
X4021Y2086D02*
X4028Y2086D01*
X1Y2085D02*
X8Y2085D01*
X4021Y2085D02*
X4028Y2085D01*
X1Y2084D02*
X8Y2084D01*
X4021Y2084D02*
X4028Y2084D01*
X1Y2083D02*
X8Y2083D01*
X4021Y2083D02*
X4028Y2083D01*
X1Y2082D02*
X8Y2082D01*
X4021Y2082D02*
X4028Y2082D01*
X1Y2081D02*
X8Y2081D01*
X4021Y2081D02*
X4028Y2081D01*
X1Y2080D02*
X8Y2080D01*
X4021Y2080D02*
X4028Y2080D01*
X1Y2079D02*
X8Y2079D01*
X4021Y2079D02*
X4028Y2079D01*
X1Y2078D02*
X8Y2078D01*
X4021Y2078D02*
X4028Y2078D01*
X1Y2077D02*
X8Y2077D01*
X4021Y2077D02*
X4028Y2077D01*
X1Y2076D02*
X8Y2076D01*
X4021Y2076D02*
X4028Y2076D01*
X1Y2075D02*
X8Y2075D01*
X4021Y2075D02*
X4028Y2075D01*
X1Y2074D02*
X8Y2074D01*
X4021Y2074D02*
X4028Y2074D01*
X1Y2073D02*
X8Y2073D01*
X4021Y2073D02*
X4028Y2073D01*
X1Y2072D02*
X8Y2072D01*
X4021Y2072D02*
X4028Y2072D01*
X1Y2071D02*
X8Y2071D01*
X4021Y2071D02*
X4028Y2071D01*
X1Y2070D02*
X8Y2070D01*
X4021Y2070D02*
X4028Y2070D01*
X1Y2069D02*
X8Y2069D01*
X4021Y2069D02*
X4028Y2069D01*
X1Y2068D02*
X8Y2068D01*
X4021Y2068D02*
X4028Y2068D01*
X1Y2067D02*
X8Y2067D01*
X4021Y2067D02*
X4028Y2067D01*
X1Y2066D02*
X8Y2066D01*
X4021Y2066D02*
X4028Y2066D01*
X1Y2065D02*
X8Y2065D01*
X4021Y2065D02*
X4028Y2065D01*
X1Y2064D02*
X8Y2064D01*
X4021Y2064D02*
X4028Y2064D01*
X1Y2063D02*
X8Y2063D01*
X4021Y2063D02*
X4028Y2063D01*
X1Y2062D02*
X8Y2062D01*
X4021Y2062D02*
X4028Y2062D01*
X1Y2061D02*
X8Y2061D01*
X4021Y2061D02*
X4028Y2061D01*
X1Y2060D02*
X8Y2060D01*
X4021Y2060D02*
X4028Y2060D01*
X1Y2059D02*
X8Y2059D01*
X4021Y2059D02*
X4028Y2059D01*
X1Y2058D02*
X8Y2058D01*
X4021Y2058D02*
X4028Y2058D01*
X1Y2057D02*
X8Y2057D01*
X4021Y2057D02*
X4028Y2057D01*
X1Y2056D02*
X8Y2056D01*
X4021Y2056D02*
X4028Y2056D01*
X1Y2055D02*
X8Y2055D01*
X4021Y2055D02*
X4028Y2055D01*
X1Y2054D02*
X8Y2054D01*
X4021Y2054D02*
X4028Y2054D01*
X1Y2053D02*
X8Y2053D01*
X4021Y2053D02*
X4028Y2053D01*
X1Y2052D02*
X8Y2052D01*
X4021Y2052D02*
X4028Y2052D01*
X1Y2051D02*
X8Y2051D01*
X4021Y2051D02*
X4028Y2051D01*
X1Y2050D02*
X8Y2050D01*
X4021Y2050D02*
X4028Y2050D01*
X1Y2049D02*
X8Y2049D01*
X4021Y2049D02*
X4028Y2049D01*
X1Y2048D02*
X8Y2048D01*
X4021Y2048D02*
X4028Y2048D01*
X1Y2047D02*
X8Y2047D01*
X4021Y2047D02*
X4028Y2047D01*
X1Y2046D02*
X8Y2046D01*
X4021Y2046D02*
X4028Y2046D01*
X1Y2045D02*
X8Y2045D01*
X4021Y2045D02*
X4028Y2045D01*
X1Y2044D02*
X8Y2044D01*
X4021Y2044D02*
X4028Y2044D01*
X1Y2043D02*
X8Y2043D01*
X4021Y2043D02*
X4028Y2043D01*
X1Y2042D02*
X8Y2042D01*
X4021Y2042D02*
X4028Y2042D01*
X1Y2041D02*
X8Y2041D01*
X4021Y2041D02*
X4028Y2041D01*
X1Y2040D02*
X8Y2040D01*
X4021Y2040D02*
X4028Y2040D01*
X1Y2039D02*
X8Y2039D01*
X4021Y2039D02*
X4028Y2039D01*
X1Y2038D02*
X8Y2038D01*
X4021Y2038D02*
X4028Y2038D01*
X1Y2037D02*
X8Y2037D01*
X4021Y2037D02*
X4028Y2037D01*
X1Y2036D02*
X8Y2036D01*
X4021Y2036D02*
X4028Y2036D01*
X1Y2035D02*
X8Y2035D01*
X4021Y2035D02*
X4028Y2035D01*
X1Y2034D02*
X8Y2034D01*
X4021Y2034D02*
X4028Y2034D01*
X1Y2033D02*
X8Y2033D01*
X4021Y2033D02*
X4028Y2033D01*
X1Y2032D02*
X8Y2032D01*
X4021Y2032D02*
X4028Y2032D01*
X1Y2031D02*
X8Y2031D01*
X4021Y2031D02*
X4028Y2031D01*
X1Y2030D02*
X8Y2030D01*
X4021Y2030D02*
X4028Y2030D01*
X1Y2029D02*
X8Y2029D01*
X4021Y2029D02*
X4028Y2029D01*
X1Y2028D02*
X8Y2028D01*
X4021Y2028D02*
X4028Y2028D01*
X1Y2027D02*
X8Y2027D01*
X4021Y2027D02*
X4028Y2027D01*
X1Y2026D02*
X8Y2026D01*
X4021Y2026D02*
X4028Y2026D01*
X1Y2025D02*
X8Y2025D01*
X4021Y2025D02*
X4028Y2025D01*
X1Y2024D02*
X8Y2024D01*
X4021Y2024D02*
X4028Y2024D01*
X1Y2023D02*
X8Y2023D01*
X4021Y2023D02*
X4028Y2023D01*
X1Y2022D02*
X8Y2022D01*
X4021Y2022D02*
X4028Y2022D01*
X1Y2021D02*
X8Y2021D01*
X4021Y2021D02*
X4028Y2021D01*
X1Y2020D02*
X8Y2020D01*
X4021Y2020D02*
X4028Y2020D01*
X1Y2019D02*
X8Y2019D01*
X4021Y2019D02*
X4028Y2019D01*
X1Y2018D02*
X8Y2018D01*
X4021Y2018D02*
X4028Y2018D01*
X1Y2017D02*
X8Y2017D01*
X4021Y2017D02*
X4028Y2017D01*
X1Y2016D02*
X8Y2016D01*
X4021Y2016D02*
X4028Y2016D01*
X1Y2015D02*
X8Y2015D01*
X4021Y2015D02*
X4028Y2015D01*
X1Y2014D02*
X8Y2014D01*
X4021Y2014D02*
X4028Y2014D01*
X1Y2013D02*
X8Y2013D01*
X4021Y2013D02*
X4028Y2013D01*
X1Y2012D02*
X8Y2012D01*
X4021Y2012D02*
X4028Y2012D01*
X1Y2011D02*
X8Y2011D01*
X4021Y2011D02*
X4028Y2011D01*
X1Y2010D02*
X8Y2010D01*
X4021Y2010D02*
X4028Y2010D01*
X1Y2009D02*
X8Y2009D01*
X4021Y2009D02*
X4028Y2009D01*
X1Y2008D02*
X8Y2008D01*
X4021Y2008D02*
X4028Y2008D01*
X1Y2007D02*
X8Y2007D01*
X4021Y2007D02*
X4028Y2007D01*
X1Y2006D02*
X8Y2006D01*
X4021Y2006D02*
X4028Y2006D01*
X1Y2005D02*
X8Y2005D01*
X4021Y2005D02*
X4028Y2005D01*
X1Y2004D02*
X8Y2004D01*
X4021Y2004D02*
X4028Y2004D01*
X1Y2003D02*
X8Y2003D01*
X4021Y2003D02*
X4028Y2003D01*
X1Y2002D02*
X8Y2002D01*
X4021Y2002D02*
X4028Y2002D01*
X1Y2001D02*
X8Y2001D01*
X4021Y2001D02*
X4028Y2001D01*
X1Y2000D02*
X8Y2000D01*
X4021Y2000D02*
X4028Y2000D01*
X1Y1999D02*
X8Y1999D01*
X4021Y1999D02*
X4028Y1999D01*
X1Y1998D02*
X8Y1998D01*
X4021Y1998D02*
X4028Y1998D01*
X1Y1997D02*
X8Y1997D01*
X4021Y1997D02*
X4028Y1997D01*
X1Y1996D02*
X8Y1996D01*
X4021Y1996D02*
X4028Y1996D01*
X1Y1995D02*
X8Y1995D01*
X4021Y1995D02*
X4028Y1995D01*
X1Y1994D02*
X8Y1994D01*
X4021Y1994D02*
X4028Y1994D01*
X1Y1993D02*
X8Y1993D01*
X4021Y1993D02*
X4028Y1993D01*
X1Y1992D02*
X8Y1992D01*
X4021Y1992D02*
X4028Y1992D01*
X1Y1991D02*
X8Y1991D01*
X4021Y1991D02*
X4028Y1991D01*
X1Y1990D02*
X8Y1990D01*
X4021Y1990D02*
X4028Y1990D01*
X1Y1989D02*
X8Y1989D01*
X4021Y1989D02*
X4028Y1989D01*
X1Y1988D02*
X8Y1988D01*
X4021Y1988D02*
X4028Y1988D01*
X1Y1987D02*
X8Y1987D01*
X4021Y1987D02*
X4028Y1987D01*
X1Y1986D02*
X8Y1986D01*
X4021Y1986D02*
X4028Y1986D01*
X1Y1985D02*
X8Y1985D01*
X4021Y1985D02*
X4028Y1985D01*
X1Y1984D02*
X8Y1984D01*
X4021Y1984D02*
X4028Y1984D01*
X1Y1983D02*
X8Y1983D01*
X4021Y1983D02*
X4028Y1983D01*
X1Y1982D02*
X8Y1982D01*
X4021Y1982D02*
X4028Y1982D01*
X1Y1981D02*
X8Y1981D01*
X4021Y1981D02*
X4028Y1981D01*
X1Y1980D02*
X8Y1980D01*
X4021Y1980D02*
X4028Y1980D01*
X1Y1979D02*
X8Y1979D01*
X4021Y1979D02*
X4028Y1979D01*
X1Y1978D02*
X8Y1978D01*
X4021Y1978D02*
X4028Y1978D01*
X1Y1977D02*
X8Y1977D01*
X4021Y1977D02*
X4028Y1977D01*
X1Y1976D02*
X8Y1976D01*
X4021Y1976D02*
X4028Y1976D01*
X1Y1975D02*
X8Y1975D01*
X4021Y1975D02*
X4028Y1975D01*
X1Y1974D02*
X8Y1974D01*
X4021Y1974D02*
X4028Y1974D01*
X1Y1973D02*
X8Y1973D01*
X4021Y1973D02*
X4028Y1973D01*
X1Y1972D02*
X8Y1972D01*
X4021Y1972D02*
X4028Y1972D01*
X1Y1971D02*
X8Y1971D01*
X4021Y1971D02*
X4028Y1971D01*
X1Y1970D02*
X8Y1970D01*
X4021Y1970D02*
X4028Y1970D01*
X1Y1969D02*
X8Y1969D01*
X4021Y1969D02*
X4028Y1969D01*
X1Y1968D02*
X8Y1968D01*
X4021Y1968D02*
X4028Y1968D01*
X1Y1967D02*
X8Y1967D01*
X4021Y1967D02*
X4028Y1967D01*
X1Y1966D02*
X8Y1966D01*
X4021Y1966D02*
X4028Y1966D01*
X1Y1965D02*
X8Y1965D01*
X4021Y1965D02*
X4028Y1965D01*
X1Y1964D02*
X8Y1964D01*
X4021Y1964D02*
X4028Y1964D01*
X1Y1963D02*
X8Y1963D01*
X4021Y1963D02*
X4028Y1963D01*
X1Y1962D02*
X8Y1962D01*
X4021Y1962D02*
X4028Y1962D01*
X1Y1961D02*
X8Y1961D01*
X4021Y1961D02*
X4028Y1961D01*
X1Y1960D02*
X8Y1960D01*
X4021Y1960D02*
X4028Y1960D01*
X1Y1959D02*
X8Y1959D01*
X4021Y1959D02*
X4028Y1959D01*
X1Y1958D02*
X8Y1958D01*
X4021Y1958D02*
X4028Y1958D01*
X1Y1957D02*
X8Y1957D01*
X4021Y1957D02*
X4028Y1957D01*
X1Y1956D02*
X8Y1956D01*
X4021Y1956D02*
X4028Y1956D01*
X1Y1955D02*
X8Y1955D01*
X4021Y1955D02*
X4028Y1955D01*
X1Y1954D02*
X8Y1954D01*
X4021Y1954D02*
X4028Y1954D01*
X1Y1953D02*
X8Y1953D01*
X4021Y1953D02*
X4028Y1953D01*
X1Y1952D02*
X8Y1952D01*
X4021Y1952D02*
X4028Y1952D01*
X1Y1951D02*
X8Y1951D01*
X4021Y1951D02*
X4028Y1951D01*
X1Y1950D02*
X8Y1950D01*
X4021Y1950D02*
X4028Y1950D01*
X1Y1949D02*
X8Y1949D01*
X4021Y1949D02*
X4028Y1949D01*
X1Y1948D02*
X8Y1948D01*
X4021Y1948D02*
X4028Y1948D01*
X1Y1947D02*
X8Y1947D01*
X4021Y1947D02*
X4028Y1947D01*
X1Y1946D02*
X8Y1946D01*
X4021Y1946D02*
X4028Y1946D01*
X1Y1945D02*
X8Y1945D01*
X4021Y1945D02*
X4028Y1945D01*
X1Y1944D02*
X8Y1944D01*
X4021Y1944D02*
X4028Y1944D01*
X1Y1943D02*
X8Y1943D01*
X4021Y1943D02*
X4028Y1943D01*
X1Y1942D02*
X8Y1942D01*
X4021Y1942D02*
X4028Y1942D01*
X1Y1941D02*
X8Y1941D01*
X4021Y1941D02*
X4028Y1941D01*
X1Y1940D02*
X8Y1940D01*
X4021Y1940D02*
X4028Y1940D01*
X1Y1939D02*
X8Y1939D01*
X4021Y1939D02*
X4028Y1939D01*
X1Y1938D02*
X8Y1938D01*
X4021Y1938D02*
X4028Y1938D01*
X1Y1937D02*
X8Y1937D01*
X4021Y1937D02*
X4028Y1937D01*
X1Y1936D02*
X8Y1936D01*
X4021Y1936D02*
X4028Y1936D01*
X1Y1935D02*
X8Y1935D01*
X4021Y1935D02*
X4028Y1935D01*
X1Y1934D02*
X8Y1934D01*
X4021Y1934D02*
X4028Y1934D01*
X1Y1933D02*
X8Y1933D01*
X4021Y1933D02*
X4028Y1933D01*
X1Y1932D02*
X8Y1932D01*
X4021Y1932D02*
X4028Y1932D01*
X1Y1931D02*
X8Y1931D01*
X4021Y1931D02*
X4028Y1931D01*
X1Y1930D02*
X8Y1930D01*
X4021Y1930D02*
X4028Y1930D01*
X1Y1929D02*
X8Y1929D01*
X4021Y1929D02*
X4028Y1929D01*
X1Y1928D02*
X8Y1928D01*
X4021Y1928D02*
X4028Y1928D01*
X1Y1927D02*
X8Y1927D01*
X4021Y1927D02*
X4028Y1927D01*
X1Y1926D02*
X8Y1926D01*
X4021Y1926D02*
X4028Y1926D01*
X1Y1925D02*
X8Y1925D01*
X4021Y1925D02*
X4028Y1925D01*
X1Y1924D02*
X8Y1924D01*
X4021Y1924D02*
X4028Y1924D01*
X1Y1923D02*
X8Y1923D01*
X4021Y1923D02*
X4028Y1923D01*
X1Y1922D02*
X8Y1922D01*
X4021Y1922D02*
X4028Y1922D01*
X1Y1921D02*
X8Y1921D01*
X4021Y1921D02*
X4028Y1921D01*
X1Y1920D02*
X8Y1920D01*
X4021Y1920D02*
X4028Y1920D01*
X1Y1919D02*
X8Y1919D01*
X4021Y1919D02*
X4028Y1919D01*
X1Y1918D02*
X8Y1918D01*
X4021Y1918D02*
X4028Y1918D01*
X1Y1917D02*
X8Y1917D01*
X4021Y1917D02*
X4028Y1917D01*
X1Y1916D02*
X8Y1916D01*
X4021Y1916D02*
X4028Y1916D01*
X1Y1915D02*
X8Y1915D01*
X4021Y1915D02*
X4028Y1915D01*
X1Y1914D02*
X8Y1914D01*
X4021Y1914D02*
X4028Y1914D01*
X1Y1913D02*
X8Y1913D01*
X4021Y1913D02*
X4028Y1913D01*
X1Y1912D02*
X8Y1912D01*
X4021Y1912D02*
X4028Y1912D01*
X1Y1911D02*
X8Y1911D01*
X4021Y1911D02*
X4028Y1911D01*
X1Y1910D02*
X8Y1910D01*
X4021Y1910D02*
X4028Y1910D01*
X1Y1909D02*
X8Y1909D01*
X4021Y1909D02*
X4028Y1909D01*
X1Y1908D02*
X8Y1908D01*
X4021Y1908D02*
X4028Y1908D01*
X1Y1907D02*
X8Y1907D01*
X4021Y1907D02*
X4028Y1907D01*
X1Y1906D02*
X8Y1906D01*
X4021Y1906D02*
X4028Y1906D01*
X1Y1905D02*
X8Y1905D01*
X4021Y1905D02*
X4028Y1905D01*
X1Y1904D02*
X8Y1904D01*
X4021Y1904D02*
X4028Y1904D01*
X1Y1903D02*
X8Y1903D01*
X4021Y1903D02*
X4028Y1903D01*
X1Y1902D02*
X8Y1902D01*
X4021Y1902D02*
X4028Y1902D01*
X1Y1901D02*
X8Y1901D01*
X4021Y1901D02*
X4028Y1901D01*
X1Y1900D02*
X8Y1900D01*
X4021Y1900D02*
X4028Y1900D01*
X1Y1899D02*
X8Y1899D01*
X4021Y1899D02*
X4028Y1899D01*
X1Y1898D02*
X8Y1898D01*
X4021Y1898D02*
X4028Y1898D01*
X1Y1897D02*
X8Y1897D01*
X4021Y1897D02*
X4028Y1897D01*
X1Y1896D02*
X8Y1896D01*
X4021Y1896D02*
X4028Y1896D01*
X1Y1895D02*
X8Y1895D01*
X4021Y1895D02*
X4028Y1895D01*
X1Y1894D02*
X8Y1894D01*
X4021Y1894D02*
X4028Y1894D01*
X1Y1893D02*
X8Y1893D01*
X4021Y1893D02*
X4028Y1893D01*
X1Y1892D02*
X8Y1892D01*
X4021Y1892D02*
X4028Y1892D01*
X1Y1891D02*
X8Y1891D01*
X4021Y1891D02*
X4028Y1891D01*
X1Y1890D02*
X8Y1890D01*
X4021Y1890D02*
X4028Y1890D01*
X1Y1889D02*
X8Y1889D01*
X4021Y1889D02*
X4028Y1889D01*
X1Y1888D02*
X8Y1888D01*
X4021Y1888D02*
X4028Y1888D01*
X1Y1887D02*
X8Y1887D01*
X4021Y1887D02*
X4028Y1887D01*
X1Y1886D02*
X8Y1886D01*
X4021Y1886D02*
X4028Y1886D01*
X1Y1885D02*
X8Y1885D01*
X4021Y1885D02*
X4028Y1885D01*
X1Y1884D02*
X8Y1884D01*
X4021Y1884D02*
X4028Y1884D01*
X1Y1883D02*
X8Y1883D01*
X4021Y1883D02*
X4028Y1883D01*
X1Y1882D02*
X8Y1882D01*
X4021Y1882D02*
X4028Y1882D01*
X1Y1881D02*
X8Y1881D01*
X4021Y1881D02*
X4028Y1881D01*
X1Y1880D02*
X8Y1880D01*
X4021Y1880D02*
X4028Y1880D01*
X1Y1879D02*
X8Y1879D01*
X4021Y1879D02*
X4028Y1879D01*
X1Y1878D02*
X8Y1878D01*
X4021Y1878D02*
X4028Y1878D01*
X1Y1877D02*
X8Y1877D01*
X4021Y1877D02*
X4028Y1877D01*
X1Y1876D02*
X8Y1876D01*
X4021Y1876D02*
X4028Y1876D01*
X1Y1875D02*
X8Y1875D01*
X4021Y1875D02*
X4028Y1875D01*
X1Y1874D02*
X8Y1874D01*
X4021Y1874D02*
X4028Y1874D01*
X1Y1873D02*
X8Y1873D01*
X4021Y1873D02*
X4028Y1873D01*
X1Y1872D02*
X8Y1872D01*
X4021Y1872D02*
X4028Y1872D01*
X1Y1871D02*
X8Y1871D01*
X4021Y1871D02*
X4028Y1871D01*
X1Y1870D02*
X8Y1870D01*
X4021Y1870D02*
X4028Y1870D01*
X1Y1869D02*
X8Y1869D01*
X4021Y1869D02*
X4028Y1869D01*
X1Y1868D02*
X8Y1868D01*
X4021Y1868D02*
X4028Y1868D01*
X1Y1867D02*
X8Y1867D01*
X4021Y1867D02*
X4028Y1867D01*
X1Y1866D02*
X8Y1866D01*
X4021Y1866D02*
X4028Y1866D01*
X1Y1865D02*
X8Y1865D01*
X4021Y1865D02*
X4028Y1865D01*
X1Y1864D02*
X8Y1864D01*
X4021Y1864D02*
X4028Y1864D01*
X1Y1863D02*
X8Y1863D01*
X4021Y1863D02*
X4028Y1863D01*
X1Y1862D02*
X8Y1862D01*
X4021Y1862D02*
X4028Y1862D01*
X1Y1861D02*
X8Y1861D01*
X4021Y1861D02*
X4028Y1861D01*
X1Y1860D02*
X8Y1860D01*
X4021Y1860D02*
X4028Y1860D01*
X1Y1859D02*
X8Y1859D01*
X4021Y1859D02*
X4028Y1859D01*
X1Y1858D02*
X8Y1858D01*
X4021Y1858D02*
X4028Y1858D01*
X1Y1857D02*
X8Y1857D01*
X4021Y1857D02*
X4028Y1857D01*
X1Y1856D02*
X8Y1856D01*
X4021Y1856D02*
X4028Y1856D01*
X1Y1855D02*
X8Y1855D01*
X4021Y1855D02*
X4028Y1855D01*
X1Y1854D02*
X8Y1854D01*
X4021Y1854D02*
X4028Y1854D01*
X1Y1853D02*
X8Y1853D01*
X4021Y1853D02*
X4028Y1853D01*
X1Y1852D02*
X8Y1852D01*
X4021Y1852D02*
X4028Y1852D01*
X1Y1851D02*
X8Y1851D01*
X4021Y1851D02*
X4028Y1851D01*
X1Y1850D02*
X8Y1850D01*
X4021Y1850D02*
X4028Y1850D01*
X1Y1849D02*
X8Y1849D01*
X4021Y1849D02*
X4028Y1849D01*
X1Y1848D02*
X8Y1848D01*
X4021Y1848D02*
X4028Y1848D01*
X1Y1847D02*
X8Y1847D01*
X4021Y1847D02*
X4028Y1847D01*
X1Y1846D02*
X8Y1846D01*
X4021Y1846D02*
X4028Y1846D01*
X1Y1845D02*
X8Y1845D01*
X4021Y1845D02*
X4028Y1845D01*
X1Y1844D02*
X8Y1844D01*
X4021Y1844D02*
X4028Y1844D01*
X1Y1843D02*
X8Y1843D01*
X4021Y1843D02*
X4028Y1843D01*
X1Y1842D02*
X8Y1842D01*
X4021Y1842D02*
X4028Y1842D01*
X1Y1841D02*
X8Y1841D01*
X4021Y1841D02*
X4028Y1841D01*
X1Y1840D02*
X8Y1840D01*
X4021Y1840D02*
X4028Y1840D01*
X1Y1839D02*
X8Y1839D01*
X4021Y1839D02*
X4028Y1839D01*
X1Y1838D02*
X8Y1838D01*
X4021Y1838D02*
X4028Y1838D01*
X1Y1837D02*
X8Y1837D01*
X4021Y1837D02*
X4028Y1837D01*
X1Y1836D02*
X8Y1836D01*
X4021Y1836D02*
X4028Y1836D01*
X1Y1835D02*
X8Y1835D01*
X4021Y1835D02*
X4028Y1835D01*
X1Y1834D02*
X8Y1834D01*
X4021Y1834D02*
X4028Y1834D01*
X1Y1833D02*
X8Y1833D01*
X4021Y1833D02*
X4028Y1833D01*
X1Y1832D02*
X8Y1832D01*
X4021Y1832D02*
X4028Y1832D01*
X1Y1831D02*
X8Y1831D01*
X4021Y1831D02*
X4028Y1831D01*
X1Y1830D02*
X8Y1830D01*
X4021Y1830D02*
X4028Y1830D01*
X1Y1829D02*
X8Y1829D01*
X4021Y1829D02*
X4028Y1829D01*
X1Y1828D02*
X8Y1828D01*
X4021Y1828D02*
X4028Y1828D01*
X1Y1827D02*
X8Y1827D01*
X4021Y1827D02*
X4028Y1827D01*
X1Y1826D02*
X8Y1826D01*
X4021Y1826D02*
X4028Y1826D01*
X1Y1825D02*
X8Y1825D01*
X4021Y1825D02*
X4028Y1825D01*
X1Y1824D02*
X8Y1824D01*
X4021Y1824D02*
X4028Y1824D01*
X1Y1823D02*
X8Y1823D01*
X4021Y1823D02*
X4028Y1823D01*
X1Y1822D02*
X8Y1822D01*
X4021Y1822D02*
X4028Y1822D01*
X1Y1821D02*
X8Y1821D01*
X4021Y1821D02*
X4028Y1821D01*
X1Y1820D02*
X8Y1820D01*
X4021Y1820D02*
X4028Y1820D01*
X1Y1819D02*
X8Y1819D01*
X4021Y1819D02*
X4028Y1819D01*
X1Y1818D02*
X8Y1818D01*
X4021Y1818D02*
X4028Y1818D01*
X1Y1817D02*
X8Y1817D01*
X4021Y1817D02*
X4028Y1817D01*
X1Y1816D02*
X8Y1816D01*
X4021Y1816D02*
X4028Y1816D01*
X1Y1815D02*
X8Y1815D01*
X4021Y1815D02*
X4028Y1815D01*
X1Y1814D02*
X8Y1814D01*
X4021Y1814D02*
X4028Y1814D01*
X1Y1813D02*
X8Y1813D01*
X4021Y1813D02*
X4028Y1813D01*
X1Y1812D02*
X8Y1812D01*
X4021Y1812D02*
X4028Y1812D01*
X1Y1811D02*
X8Y1811D01*
X4021Y1811D02*
X4028Y1811D01*
X1Y1810D02*
X8Y1810D01*
X4021Y1810D02*
X4028Y1810D01*
X1Y1809D02*
X8Y1809D01*
X4021Y1809D02*
X4028Y1809D01*
X1Y1808D02*
X8Y1808D01*
X4021Y1808D02*
X4028Y1808D01*
X1Y1807D02*
X8Y1807D01*
X4021Y1807D02*
X4028Y1807D01*
X1Y1806D02*
X8Y1806D01*
X4021Y1806D02*
X4028Y1806D01*
X1Y1805D02*
X8Y1805D01*
X4021Y1805D02*
X4028Y1805D01*
X1Y1804D02*
X8Y1804D01*
X4021Y1804D02*
X4028Y1804D01*
X1Y1803D02*
X8Y1803D01*
X4021Y1803D02*
X4028Y1803D01*
X1Y1802D02*
X8Y1802D01*
X4021Y1802D02*
X4028Y1802D01*
X1Y1801D02*
X8Y1801D01*
X4021Y1801D02*
X4028Y1801D01*
X1Y1800D02*
X8Y1800D01*
X4021Y1800D02*
X4028Y1800D01*
X1Y1799D02*
X8Y1799D01*
X4021Y1799D02*
X4028Y1799D01*
X1Y1798D02*
X8Y1798D01*
X4021Y1798D02*
X4028Y1798D01*
X1Y1797D02*
X8Y1797D01*
X4021Y1797D02*
X4028Y1797D01*
X1Y1796D02*
X8Y1796D01*
X4021Y1796D02*
X4028Y1796D01*
X1Y1795D02*
X8Y1795D01*
X4021Y1795D02*
X4028Y1795D01*
X1Y1794D02*
X8Y1794D01*
X4021Y1794D02*
X4028Y1794D01*
X1Y1793D02*
X8Y1793D01*
X4021Y1793D02*
X4028Y1793D01*
X1Y1792D02*
X8Y1792D01*
X4021Y1792D02*
X4028Y1792D01*
X1Y1791D02*
X8Y1791D01*
X4021Y1791D02*
X4028Y1791D01*
X1Y1790D02*
X8Y1790D01*
X4021Y1790D02*
X4028Y1790D01*
X1Y1789D02*
X8Y1789D01*
X4021Y1789D02*
X4028Y1789D01*
X1Y1788D02*
X8Y1788D01*
X4021Y1788D02*
X4028Y1788D01*
X1Y1787D02*
X8Y1787D01*
X4021Y1787D02*
X4028Y1787D01*
X1Y1786D02*
X8Y1786D01*
X4021Y1786D02*
X4028Y1786D01*
X1Y1785D02*
X8Y1785D01*
X4021Y1785D02*
X4028Y1785D01*
X1Y1784D02*
X8Y1784D01*
X4021Y1784D02*
X4028Y1784D01*
X1Y1783D02*
X8Y1783D01*
X4021Y1783D02*
X4028Y1783D01*
X1Y1782D02*
X8Y1782D01*
X4021Y1782D02*
X4028Y1782D01*
X1Y1781D02*
X8Y1781D01*
X4021Y1781D02*
X4028Y1781D01*
X1Y1780D02*
X8Y1780D01*
X4021Y1780D02*
X4028Y1780D01*
X1Y1779D02*
X8Y1779D01*
X4021Y1779D02*
X4028Y1779D01*
X1Y1778D02*
X8Y1778D01*
X4021Y1778D02*
X4028Y1778D01*
X1Y1777D02*
X8Y1777D01*
X4021Y1777D02*
X4028Y1777D01*
X1Y1776D02*
X8Y1776D01*
X4021Y1776D02*
X4028Y1776D01*
X1Y1775D02*
X8Y1775D01*
X4021Y1775D02*
X4028Y1775D01*
X1Y1774D02*
X8Y1774D01*
X4021Y1774D02*
X4028Y1774D01*
X1Y1773D02*
X8Y1773D01*
X4021Y1773D02*
X4028Y1773D01*
X1Y1772D02*
X8Y1772D01*
X4021Y1772D02*
X4028Y1772D01*
X1Y1771D02*
X8Y1771D01*
X4021Y1771D02*
X4028Y1771D01*
X1Y1770D02*
X8Y1770D01*
X4021Y1770D02*
X4028Y1770D01*
X1Y1769D02*
X8Y1769D01*
X4021Y1769D02*
X4028Y1769D01*
X1Y1768D02*
X8Y1768D01*
X4021Y1768D02*
X4028Y1768D01*
X1Y1767D02*
X8Y1767D01*
X4021Y1767D02*
X4028Y1767D01*
X1Y1766D02*
X8Y1766D01*
X4021Y1766D02*
X4028Y1766D01*
X1Y1765D02*
X8Y1765D01*
X4021Y1765D02*
X4028Y1765D01*
X1Y1764D02*
X8Y1764D01*
X4021Y1764D02*
X4028Y1764D01*
X1Y1763D02*
X8Y1763D01*
X4021Y1763D02*
X4028Y1763D01*
X1Y1762D02*
X8Y1762D01*
X4021Y1762D02*
X4028Y1762D01*
X1Y1761D02*
X8Y1761D01*
X4021Y1761D02*
X4028Y1761D01*
X1Y1760D02*
X8Y1760D01*
X4021Y1760D02*
X4028Y1760D01*
X1Y1759D02*
X8Y1759D01*
X4021Y1759D02*
X4028Y1759D01*
X1Y1758D02*
X8Y1758D01*
X4021Y1758D02*
X4028Y1758D01*
X1Y1757D02*
X8Y1757D01*
X4021Y1757D02*
X4028Y1757D01*
X1Y1756D02*
X8Y1756D01*
X4021Y1756D02*
X4028Y1756D01*
X1Y1755D02*
X8Y1755D01*
X4021Y1755D02*
X4028Y1755D01*
X1Y1754D02*
X8Y1754D01*
X4021Y1754D02*
X4028Y1754D01*
X1Y1753D02*
X8Y1753D01*
X4021Y1753D02*
X4028Y1753D01*
X1Y1752D02*
X8Y1752D01*
X4021Y1752D02*
X4028Y1752D01*
X1Y1751D02*
X8Y1751D01*
X4021Y1751D02*
X4028Y1751D01*
X1Y1750D02*
X8Y1750D01*
X4021Y1750D02*
X4028Y1750D01*
X1Y1749D02*
X8Y1749D01*
X4021Y1749D02*
X4028Y1749D01*
X1Y1748D02*
X8Y1748D01*
X4021Y1748D02*
X4028Y1748D01*
X1Y1747D02*
X8Y1747D01*
X4021Y1747D02*
X4028Y1747D01*
X1Y1746D02*
X8Y1746D01*
X4021Y1746D02*
X4028Y1746D01*
X1Y1745D02*
X8Y1745D01*
X4021Y1745D02*
X4028Y1745D01*
X1Y1744D02*
X8Y1744D01*
X4021Y1744D02*
X4028Y1744D01*
X1Y1743D02*
X8Y1743D01*
X4021Y1743D02*
X4028Y1743D01*
X1Y1742D02*
X8Y1742D01*
X4021Y1742D02*
X4028Y1742D01*
X1Y1741D02*
X8Y1741D01*
X4021Y1741D02*
X4028Y1741D01*
X1Y1740D02*
X8Y1740D01*
X4021Y1740D02*
X4028Y1740D01*
X1Y1739D02*
X8Y1739D01*
X4021Y1739D02*
X4028Y1739D01*
X1Y1738D02*
X8Y1738D01*
X4021Y1738D02*
X4028Y1738D01*
X1Y1737D02*
X8Y1737D01*
X4021Y1737D02*
X4028Y1737D01*
X1Y1736D02*
X8Y1736D01*
X4021Y1736D02*
X4028Y1736D01*
X1Y1735D02*
X8Y1735D01*
X4021Y1735D02*
X4028Y1735D01*
X1Y1734D02*
X8Y1734D01*
X4021Y1734D02*
X4028Y1734D01*
X1Y1733D02*
X8Y1733D01*
X4021Y1733D02*
X4028Y1733D01*
X1Y1732D02*
X8Y1732D01*
X4021Y1732D02*
X4028Y1732D01*
X1Y1731D02*
X8Y1731D01*
X4021Y1731D02*
X4028Y1731D01*
X1Y1730D02*
X8Y1730D01*
X4021Y1730D02*
X4028Y1730D01*
X1Y1729D02*
X8Y1729D01*
X4021Y1729D02*
X4028Y1729D01*
X1Y1728D02*
X8Y1728D01*
X4021Y1728D02*
X4028Y1728D01*
X1Y1727D02*
X8Y1727D01*
X4021Y1727D02*
X4028Y1727D01*
X1Y1726D02*
X8Y1726D01*
X4021Y1726D02*
X4028Y1726D01*
X1Y1725D02*
X8Y1725D01*
X4021Y1725D02*
X4028Y1725D01*
X1Y1724D02*
X8Y1724D01*
X4021Y1724D02*
X4028Y1724D01*
X1Y1723D02*
X8Y1723D01*
X4021Y1723D02*
X4028Y1723D01*
X1Y1722D02*
X8Y1722D01*
X4021Y1722D02*
X4028Y1722D01*
X1Y1721D02*
X8Y1721D01*
X4021Y1721D02*
X4028Y1721D01*
X1Y1720D02*
X8Y1720D01*
X4021Y1720D02*
X4028Y1720D01*
X1Y1719D02*
X8Y1719D01*
X4021Y1719D02*
X4028Y1719D01*
X1Y1718D02*
X8Y1718D01*
X4021Y1718D02*
X4028Y1718D01*
X1Y1717D02*
X8Y1717D01*
X4021Y1717D02*
X4028Y1717D01*
X1Y1716D02*
X8Y1716D01*
X4021Y1716D02*
X4028Y1716D01*
X1Y1715D02*
X8Y1715D01*
X4021Y1715D02*
X4028Y1715D01*
X1Y1714D02*
X8Y1714D01*
X4021Y1714D02*
X4028Y1714D01*
X1Y1713D02*
X8Y1713D01*
X4021Y1713D02*
X4028Y1713D01*
X1Y1712D02*
X8Y1712D01*
X4021Y1712D02*
X4028Y1712D01*
X1Y1711D02*
X8Y1711D01*
X4021Y1711D02*
X4028Y1711D01*
X1Y1710D02*
X8Y1710D01*
X4021Y1710D02*
X4028Y1710D01*
X1Y1709D02*
X8Y1709D01*
X4021Y1709D02*
X4028Y1709D01*
X1Y1708D02*
X8Y1708D01*
X4021Y1708D02*
X4028Y1708D01*
X1Y1707D02*
X8Y1707D01*
X4021Y1707D02*
X4028Y1707D01*
X1Y1706D02*
X8Y1706D01*
X4021Y1706D02*
X4028Y1706D01*
X1Y1705D02*
X8Y1705D01*
X4021Y1705D02*
X4028Y1705D01*
X1Y1704D02*
X8Y1704D01*
X4021Y1704D02*
X4028Y1704D01*
X1Y1703D02*
X8Y1703D01*
X4021Y1703D02*
X4028Y1703D01*
X1Y1702D02*
X8Y1702D01*
X4021Y1702D02*
X4028Y1702D01*
X1Y1701D02*
X8Y1701D01*
X4021Y1701D02*
X4028Y1701D01*
X1Y1700D02*
X8Y1700D01*
X4021Y1700D02*
X4028Y1700D01*
X1Y1699D02*
X8Y1699D01*
X4021Y1699D02*
X4028Y1699D01*
X1Y1698D02*
X8Y1698D01*
X4021Y1698D02*
X4028Y1698D01*
X1Y1697D02*
X8Y1697D01*
X4021Y1697D02*
X4028Y1697D01*
X1Y1696D02*
X8Y1696D01*
X4021Y1696D02*
X4028Y1696D01*
X1Y1695D02*
X8Y1695D01*
X4021Y1695D02*
X4028Y1695D01*
X1Y1694D02*
X8Y1694D01*
X4021Y1694D02*
X4028Y1694D01*
X1Y1693D02*
X8Y1693D01*
X4021Y1693D02*
X4028Y1693D01*
X1Y1692D02*
X8Y1692D01*
X4021Y1692D02*
X4028Y1692D01*
X1Y1691D02*
X8Y1691D01*
X4021Y1691D02*
X4028Y1691D01*
X1Y1690D02*
X8Y1690D01*
X4021Y1690D02*
X4028Y1690D01*
X1Y1689D02*
X8Y1689D01*
X4021Y1689D02*
X4028Y1689D01*
X1Y1688D02*
X8Y1688D01*
X4021Y1688D02*
X4028Y1688D01*
X1Y1687D02*
X8Y1687D01*
X4021Y1687D02*
X4028Y1687D01*
X1Y1686D02*
X8Y1686D01*
X4021Y1686D02*
X4028Y1686D01*
X1Y1685D02*
X8Y1685D01*
X4021Y1685D02*
X4028Y1685D01*
X1Y1684D02*
X8Y1684D01*
X4021Y1684D02*
X4028Y1684D01*
X1Y1683D02*
X8Y1683D01*
X4021Y1683D02*
X4028Y1683D01*
X1Y1682D02*
X8Y1682D01*
X4021Y1682D02*
X4028Y1682D01*
X1Y1681D02*
X8Y1681D01*
X4021Y1681D02*
X4028Y1681D01*
X1Y1680D02*
X8Y1680D01*
X4021Y1680D02*
X4028Y1680D01*
X1Y1679D02*
X8Y1679D01*
X4021Y1679D02*
X4028Y1679D01*
X1Y1678D02*
X8Y1678D01*
X4021Y1678D02*
X4028Y1678D01*
X1Y1677D02*
X8Y1677D01*
X4021Y1677D02*
X4028Y1677D01*
X1Y1676D02*
X8Y1676D01*
X4021Y1676D02*
X4028Y1676D01*
X1Y1675D02*
X8Y1675D01*
X4021Y1675D02*
X4028Y1675D01*
X1Y1674D02*
X8Y1674D01*
X4021Y1674D02*
X4028Y1674D01*
X1Y1673D02*
X8Y1673D01*
X4021Y1673D02*
X4028Y1673D01*
X1Y1672D02*
X8Y1672D01*
X4021Y1672D02*
X4028Y1672D01*
X1Y1671D02*
X8Y1671D01*
X4021Y1671D02*
X4028Y1671D01*
X1Y1670D02*
X8Y1670D01*
X4021Y1670D02*
X4028Y1670D01*
X1Y1669D02*
X8Y1669D01*
X4021Y1669D02*
X4028Y1669D01*
X1Y1668D02*
X8Y1668D01*
X4021Y1668D02*
X4028Y1668D01*
X1Y1667D02*
X8Y1667D01*
X4021Y1667D02*
X4028Y1667D01*
X1Y1666D02*
X8Y1666D01*
X4021Y1666D02*
X4028Y1666D01*
X1Y1665D02*
X8Y1665D01*
X4021Y1665D02*
X4028Y1665D01*
X1Y1664D02*
X8Y1664D01*
X4021Y1664D02*
X4028Y1664D01*
X1Y1663D02*
X8Y1663D01*
X4021Y1663D02*
X4028Y1663D01*
X1Y1662D02*
X8Y1662D01*
X4021Y1662D02*
X4028Y1662D01*
X1Y1661D02*
X8Y1661D01*
X4021Y1661D02*
X4028Y1661D01*
X1Y1660D02*
X8Y1660D01*
X4021Y1660D02*
X4028Y1660D01*
X1Y1659D02*
X8Y1659D01*
X4021Y1659D02*
X4028Y1659D01*
X1Y1658D02*
X8Y1658D01*
X4021Y1658D02*
X4028Y1658D01*
X1Y1657D02*
X8Y1657D01*
X4021Y1657D02*
X4028Y1657D01*
X1Y1656D02*
X8Y1656D01*
X4021Y1656D02*
X4028Y1656D01*
X1Y1655D02*
X8Y1655D01*
X4021Y1655D02*
X4028Y1655D01*
X1Y1654D02*
X8Y1654D01*
X4021Y1654D02*
X4028Y1654D01*
X1Y1653D02*
X8Y1653D01*
X4021Y1653D02*
X4028Y1653D01*
X1Y1652D02*
X8Y1652D01*
X4021Y1652D02*
X4028Y1652D01*
X1Y1651D02*
X8Y1651D01*
X4021Y1651D02*
X4028Y1651D01*
X1Y1650D02*
X8Y1650D01*
X4021Y1650D02*
X4028Y1650D01*
X1Y1649D02*
X8Y1649D01*
X4021Y1649D02*
X4028Y1649D01*
X1Y1648D02*
X8Y1648D01*
X4021Y1648D02*
X4028Y1648D01*
X1Y1647D02*
X8Y1647D01*
X4021Y1647D02*
X4028Y1647D01*
X1Y1646D02*
X8Y1646D01*
X4021Y1646D02*
X4028Y1646D01*
X1Y1645D02*
X8Y1645D01*
X4021Y1645D02*
X4028Y1645D01*
X1Y1644D02*
X8Y1644D01*
X4021Y1644D02*
X4028Y1644D01*
X1Y1643D02*
X8Y1643D01*
X4021Y1643D02*
X4028Y1643D01*
X1Y1642D02*
X8Y1642D01*
X4021Y1642D02*
X4028Y1642D01*
X1Y1641D02*
X8Y1641D01*
X4021Y1641D02*
X4028Y1641D01*
X1Y1640D02*
X8Y1640D01*
X4021Y1640D02*
X4028Y1640D01*
X1Y1639D02*
X8Y1639D01*
X4021Y1639D02*
X4028Y1639D01*
X1Y1638D02*
X8Y1638D01*
X4021Y1638D02*
X4028Y1638D01*
X1Y1637D02*
X8Y1637D01*
X4021Y1637D02*
X4028Y1637D01*
X1Y1636D02*
X8Y1636D01*
X4021Y1636D02*
X4028Y1636D01*
X1Y1635D02*
X8Y1635D01*
X4021Y1635D02*
X4028Y1635D01*
X1Y1634D02*
X8Y1634D01*
X4021Y1634D02*
X4028Y1634D01*
X1Y1633D02*
X8Y1633D01*
X4021Y1633D02*
X4028Y1633D01*
X1Y1632D02*
X8Y1632D01*
X1058Y1632D02*
X1079Y1632D01*
X1104Y1632D02*
X1122Y1632D01*
X4021Y1632D02*
X4028Y1632D01*
X1Y1631D02*
X8Y1631D01*
X1056Y1631D02*
X1081Y1631D01*
X1103Y1631D02*
X1122Y1631D01*
X4021Y1631D02*
X4028Y1631D01*
X1Y1630D02*
X8Y1630D01*
X1055Y1630D02*
X1082Y1630D01*
X1102Y1630D02*
X1122Y1630D01*
X4021Y1630D02*
X4028Y1630D01*
X1Y1629D02*
X8Y1629D01*
X1054Y1629D02*
X1083Y1629D01*
X1102Y1629D02*
X1122Y1629D01*
X4021Y1629D02*
X4028Y1629D01*
X1Y1628D02*
X8Y1628D01*
X1053Y1628D02*
X1084Y1628D01*
X1102Y1628D02*
X1122Y1628D01*
X4021Y1628D02*
X4028Y1628D01*
X1Y1627D02*
X8Y1627D01*
X1053Y1627D02*
X1085Y1627D01*
X1103Y1627D02*
X1122Y1627D01*
X4021Y1627D02*
X4028Y1627D01*
X1Y1626D02*
X8Y1626D01*
X1052Y1626D02*
X1085Y1626D01*
X1104Y1626D02*
X1122Y1626D01*
X4021Y1626D02*
X4028Y1626D01*
X1Y1625D02*
X8Y1625D01*
X1052Y1625D02*
X1059Y1625D01*
X1078Y1625D02*
X1086Y1625D01*
X1116Y1625D02*
X1122Y1625D01*
X4021Y1625D02*
X4028Y1625D01*
X1Y1624D02*
X8Y1624D01*
X1052Y1624D02*
X1058Y1624D01*
X1079Y1624D02*
X1086Y1624D01*
X1116Y1624D02*
X1122Y1624D01*
X4021Y1624D02*
X4028Y1624D01*
X1Y1623D02*
X8Y1623D01*
X1052Y1623D02*
X1059Y1623D01*
X1080Y1623D02*
X1086Y1623D01*
X1116Y1623D02*
X1122Y1623D01*
X4021Y1623D02*
X4028Y1623D01*
X1Y1622D02*
X8Y1622D01*
X1053Y1622D02*
X1060Y1622D01*
X1080Y1622D02*
X1086Y1622D01*
X1116Y1622D02*
X1122Y1622D01*
X4021Y1622D02*
X4028Y1622D01*
X1Y1621D02*
X8Y1621D01*
X1053Y1621D02*
X1061Y1621D01*
X1080Y1621D02*
X1085Y1621D01*
X1116Y1621D02*
X1122Y1621D01*
X4021Y1621D02*
X4028Y1621D01*
X1Y1620D02*
X8Y1620D01*
X1054Y1620D02*
X1061Y1620D01*
X1081Y1620D02*
X1084Y1620D01*
X1116Y1620D02*
X1122Y1620D01*
X4021Y1620D02*
X4028Y1620D01*
X1Y1619D02*
X8Y1619D01*
X1054Y1619D02*
X1062Y1619D01*
X1116Y1619D02*
X1122Y1619D01*
X4021Y1619D02*
X4028Y1619D01*
X1Y1618D02*
X8Y1618D01*
X1055Y1618D02*
X1063Y1618D01*
X1116Y1618D02*
X1122Y1618D01*
X4021Y1618D02*
X4028Y1618D01*
X1Y1617D02*
X8Y1617D01*
X1056Y1617D02*
X1064Y1617D01*
X1116Y1617D02*
X1122Y1617D01*
X4021Y1617D02*
X4028Y1617D01*
X1Y1616D02*
X8Y1616D01*
X1057Y1616D02*
X1065Y1616D01*
X1116Y1616D02*
X1122Y1616D01*
X4021Y1616D02*
X4028Y1616D01*
X1Y1615D02*
X8Y1615D01*
X1057Y1615D02*
X1065Y1615D01*
X1116Y1615D02*
X1122Y1615D01*
X4021Y1615D02*
X4028Y1615D01*
X1Y1614D02*
X8Y1614D01*
X1058Y1614D02*
X1066Y1614D01*
X1116Y1614D02*
X1122Y1614D01*
X4021Y1614D02*
X4028Y1614D01*
X1Y1613D02*
X8Y1613D01*
X1059Y1613D02*
X1067Y1613D01*
X1116Y1613D02*
X1122Y1613D01*
X4021Y1613D02*
X4028Y1613D01*
X1Y1612D02*
X8Y1612D01*
X1060Y1612D02*
X1068Y1612D01*
X1116Y1612D02*
X1122Y1612D01*
X4021Y1612D02*
X4028Y1612D01*
X1Y1611D02*
X8Y1611D01*
X1060Y1611D02*
X1068Y1611D01*
X1116Y1611D02*
X1122Y1611D01*
X4021Y1611D02*
X4028Y1611D01*
X1Y1610D02*
X8Y1610D01*
X1061Y1610D02*
X1069Y1610D01*
X1116Y1610D02*
X1122Y1610D01*
X4021Y1610D02*
X4028Y1610D01*
X1Y1609D02*
X8Y1609D01*
X1062Y1609D02*
X1070Y1609D01*
X1116Y1609D02*
X1122Y1609D01*
X4021Y1609D02*
X4028Y1609D01*
X1Y1608D02*
X8Y1608D01*
X1063Y1608D02*
X1071Y1608D01*
X1116Y1608D02*
X1122Y1608D01*
X4021Y1608D02*
X4028Y1608D01*
X1Y1607D02*
X8Y1607D01*
X1064Y1607D02*
X1072Y1607D01*
X1116Y1607D02*
X1122Y1607D01*
X4021Y1607D02*
X4028Y1607D01*
X1Y1606D02*
X8Y1606D01*
X1064Y1606D02*
X1072Y1606D01*
X1116Y1606D02*
X1122Y1606D01*
X4021Y1606D02*
X4028Y1606D01*
X1Y1605D02*
X8Y1605D01*
X1065Y1605D02*
X1073Y1605D01*
X1116Y1605D02*
X1122Y1605D01*
X4021Y1605D02*
X4028Y1605D01*
X1Y1604D02*
X8Y1604D01*
X1066Y1604D02*
X1074Y1604D01*
X1116Y1604D02*
X1122Y1604D01*
X4021Y1604D02*
X4028Y1604D01*
X1Y1603D02*
X8Y1603D01*
X1067Y1603D02*
X1075Y1603D01*
X1116Y1603D02*
X1122Y1603D01*
X4021Y1603D02*
X4028Y1603D01*
X1Y1602D02*
X8Y1602D01*
X1067Y1602D02*
X1075Y1602D01*
X1116Y1602D02*
X1122Y1602D01*
X1131Y1602D02*
X1134Y1602D01*
X4021Y1602D02*
X4028Y1602D01*
X1Y1601D02*
X8Y1601D01*
X1068Y1601D02*
X1076Y1601D01*
X1116Y1601D02*
X1122Y1601D01*
X1130Y1601D02*
X1135Y1601D01*
X4021Y1601D02*
X4028Y1601D01*
X1Y1600D02*
X8Y1600D01*
X1069Y1600D02*
X1077Y1600D01*
X1116Y1600D02*
X1122Y1600D01*
X1130Y1600D02*
X1136Y1600D01*
X4021Y1600D02*
X4028Y1600D01*
X1Y1599D02*
X8Y1599D01*
X1070Y1599D02*
X1078Y1599D01*
X1116Y1599D02*
X1122Y1599D01*
X1130Y1599D02*
X1136Y1599D01*
X4021Y1599D02*
X4028Y1599D01*
X1Y1598D02*
X8Y1598D01*
X1071Y1598D02*
X1079Y1598D01*
X1116Y1598D02*
X1122Y1598D01*
X1130Y1598D02*
X1136Y1598D01*
X4021Y1598D02*
X4028Y1598D01*
X1Y1597D02*
X8Y1597D01*
X1071Y1597D02*
X1079Y1597D01*
X1116Y1597D02*
X1122Y1597D01*
X1130Y1597D02*
X1136Y1597D01*
X4021Y1597D02*
X4028Y1597D01*
X1Y1596D02*
X8Y1596D01*
X1072Y1596D02*
X1080Y1596D01*
X1116Y1596D02*
X1122Y1596D01*
X1130Y1596D02*
X1136Y1596D01*
X4021Y1596D02*
X4028Y1596D01*
X1Y1595D02*
X8Y1595D01*
X1073Y1595D02*
X1081Y1595D01*
X1116Y1595D02*
X1122Y1595D01*
X1130Y1595D02*
X1136Y1595D01*
X4021Y1595D02*
X4028Y1595D01*
X1Y1594D02*
X8Y1594D01*
X1074Y1594D02*
X1082Y1594D01*
X1116Y1594D02*
X1122Y1594D01*
X1130Y1594D02*
X1136Y1594D01*
X4021Y1594D02*
X4028Y1594D01*
X1Y1593D02*
X8Y1593D01*
X1074Y1593D02*
X1082Y1593D01*
X1116Y1593D02*
X1122Y1593D01*
X1130Y1593D02*
X1136Y1593D01*
X4021Y1593D02*
X4028Y1593D01*
X1Y1592D02*
X8Y1592D01*
X1075Y1592D02*
X1083Y1592D01*
X1116Y1592D02*
X1122Y1592D01*
X1130Y1592D02*
X1136Y1592D01*
X4021Y1592D02*
X4028Y1592D01*
X1Y1591D02*
X8Y1591D01*
X1076Y1591D02*
X1084Y1591D01*
X1116Y1591D02*
X1122Y1591D01*
X1130Y1591D02*
X1136Y1591D01*
X4021Y1591D02*
X4028Y1591D01*
X1Y1590D02*
X8Y1590D01*
X1053Y1590D02*
X1057Y1590D01*
X1077Y1590D02*
X1085Y1590D01*
X1116Y1590D02*
X1122Y1590D01*
X1130Y1590D02*
X1136Y1590D01*
X4021Y1590D02*
X4028Y1590D01*
X1Y1589D02*
X8Y1589D01*
X1053Y1589D02*
X1058Y1589D01*
X1077Y1589D02*
X1085Y1589D01*
X1116Y1589D02*
X1122Y1589D01*
X1130Y1589D02*
X1136Y1589D01*
X4021Y1589D02*
X4028Y1589D01*
X1Y1588D02*
X8Y1588D01*
X1052Y1588D02*
X1058Y1588D01*
X1078Y1588D02*
X1086Y1588D01*
X1116Y1588D02*
X1122Y1588D01*
X1130Y1588D02*
X1136Y1588D01*
X4021Y1588D02*
X4028Y1588D01*
X1Y1587D02*
X8Y1587D01*
X1052Y1587D02*
X1058Y1587D01*
X1079Y1587D02*
X1086Y1587D01*
X1116Y1587D02*
X1122Y1587D01*
X1130Y1587D02*
X1136Y1587D01*
X4021Y1587D02*
X4028Y1587D01*
X1Y1586D02*
X8Y1586D01*
X1052Y1586D02*
X1059Y1586D01*
X1080Y1586D02*
X1086Y1586D01*
X1116Y1586D02*
X1122Y1586D01*
X1130Y1586D02*
X1136Y1586D01*
X4021Y1586D02*
X4028Y1586D01*
X1Y1585D02*
X8Y1585D01*
X1053Y1585D02*
X1086Y1585D01*
X1105Y1585D02*
X1136Y1585D01*
X4021Y1585D02*
X4028Y1585D01*
X1Y1584D02*
X8Y1584D01*
X1053Y1584D02*
X1085Y1584D01*
X1103Y1584D02*
X1136Y1584D01*
X4021Y1584D02*
X4028Y1584D01*
X1Y1583D02*
X8Y1583D01*
X1053Y1583D02*
X1085Y1583D01*
X1103Y1583D02*
X1136Y1583D01*
X4021Y1583D02*
X4028Y1583D01*
X1Y1582D02*
X8Y1582D01*
X1054Y1582D02*
X1085Y1582D01*
X1102Y1582D02*
X1136Y1582D01*
X4021Y1582D02*
X4028Y1582D01*
X1Y1581D02*
X8Y1581D01*
X1055Y1581D02*
X1084Y1581D01*
X1102Y1581D02*
X1136Y1581D01*
X4021Y1581D02*
X4028Y1581D01*
X1Y1580D02*
X8Y1580D01*
X1056Y1580D02*
X1083Y1580D01*
X1103Y1580D02*
X1135Y1580D01*
X4021Y1580D02*
X4028Y1580D01*
X1Y1579D02*
X8Y1579D01*
X1058Y1579D02*
X1081Y1579D01*
X1103Y1579D02*
X1135Y1579D01*
X4021Y1579D02*
X4028Y1579D01*
X1Y1578D02*
X8Y1578D01*
X4021Y1578D02*
X4028Y1578D01*
X1Y1577D02*
X8Y1577D01*
X4021Y1577D02*
X4028Y1577D01*
X1Y1576D02*
X8Y1576D01*
X4021Y1576D02*
X4028Y1576D01*
X1Y1575D02*
X8Y1575D01*
X4021Y1575D02*
X4028Y1575D01*
X1Y1574D02*
X8Y1574D01*
X4021Y1574D02*
X4028Y1574D01*
X1Y1573D02*
X8Y1573D01*
X4021Y1573D02*
X4028Y1573D01*
X1Y1572D02*
X8Y1572D01*
X4021Y1572D02*
X4028Y1572D01*
X1Y1571D02*
X8Y1571D01*
X4021Y1571D02*
X4028Y1571D01*
X1Y1570D02*
X8Y1570D01*
X4021Y1570D02*
X4028Y1570D01*
X1Y1569D02*
X8Y1569D01*
X4021Y1569D02*
X4028Y1569D01*
X1Y1568D02*
X8Y1568D01*
X4021Y1568D02*
X4028Y1568D01*
X1Y1567D02*
X8Y1567D01*
X4021Y1567D02*
X4028Y1567D01*
X1Y1566D02*
X8Y1566D01*
X4021Y1566D02*
X4028Y1566D01*
X1Y1565D02*
X8Y1565D01*
X4021Y1565D02*
X4028Y1565D01*
X1Y1564D02*
X8Y1564D01*
X4021Y1564D02*
X4028Y1564D01*
X1Y1563D02*
X8Y1563D01*
X4021Y1563D02*
X4028Y1563D01*
X1Y1562D02*
X8Y1562D01*
X1924Y1562D02*
X1927Y1562D01*
X1952Y1562D02*
X1955Y1562D01*
X4021Y1562D02*
X4028Y1562D01*
X1Y1561D02*
X8Y1561D01*
X1923Y1561D02*
X1928Y1561D01*
X1951Y1561D02*
X1956Y1561D01*
X4021Y1561D02*
X4028Y1561D01*
X1Y1560D02*
X8Y1560D01*
X1923Y1560D02*
X1929Y1560D01*
X1950Y1560D02*
X1956Y1560D01*
X4021Y1560D02*
X4028Y1560D01*
X1Y1559D02*
X8Y1559D01*
X1923Y1559D02*
X1929Y1559D01*
X1950Y1559D02*
X1956Y1559D01*
X4021Y1559D02*
X4028Y1559D01*
X1Y1558D02*
X8Y1558D01*
X1923Y1558D02*
X1929Y1558D01*
X1950Y1558D02*
X1956Y1558D01*
X4021Y1558D02*
X4028Y1558D01*
X1Y1557D02*
X8Y1557D01*
X1923Y1557D02*
X1929Y1557D01*
X1950Y1557D02*
X1956Y1557D01*
X4021Y1557D02*
X4028Y1557D01*
X1Y1556D02*
X8Y1556D01*
X1923Y1556D02*
X1929Y1556D01*
X1950Y1556D02*
X1956Y1556D01*
X1972Y1556D02*
X1976Y1556D01*
X4021Y1556D02*
X4028Y1556D01*
X1Y1555D02*
X8Y1555D01*
X1923Y1555D02*
X1929Y1555D01*
X1950Y1555D02*
X1956Y1555D01*
X1971Y1555D02*
X1976Y1555D01*
X4021Y1555D02*
X4028Y1555D01*
X1Y1554D02*
X8Y1554D01*
X1923Y1554D02*
X1929Y1554D01*
X1950Y1554D02*
X1956Y1554D01*
X1971Y1554D02*
X1977Y1554D01*
X4021Y1554D02*
X4028Y1554D01*
X1Y1553D02*
X8Y1553D01*
X1923Y1553D02*
X1929Y1553D01*
X1950Y1553D02*
X1956Y1553D01*
X1971Y1553D02*
X1977Y1553D01*
X4021Y1553D02*
X4028Y1553D01*
X1Y1552D02*
X8Y1552D01*
X1923Y1552D02*
X1929Y1552D01*
X1950Y1552D02*
X1956Y1552D01*
X1971Y1552D02*
X1977Y1552D01*
X4021Y1552D02*
X4028Y1552D01*
X1Y1551D02*
X8Y1551D01*
X1923Y1551D02*
X1929Y1551D01*
X1950Y1551D02*
X1956Y1551D01*
X1971Y1551D02*
X1977Y1551D01*
X4021Y1551D02*
X4028Y1551D01*
X1Y1550D02*
X8Y1550D01*
X1923Y1550D02*
X1929Y1550D01*
X1950Y1550D02*
X1956Y1550D01*
X1971Y1550D02*
X1977Y1550D01*
X4021Y1550D02*
X4028Y1550D01*
X1Y1549D02*
X8Y1549D01*
X1923Y1549D02*
X1929Y1549D01*
X1950Y1549D02*
X1956Y1549D01*
X1971Y1549D02*
X1977Y1549D01*
X4021Y1549D02*
X4028Y1549D01*
X1Y1548D02*
X8Y1548D01*
X1923Y1548D02*
X1929Y1548D01*
X1950Y1548D02*
X1956Y1548D01*
X1971Y1548D02*
X1977Y1548D01*
X4021Y1548D02*
X4028Y1548D01*
X1Y1547D02*
X8Y1547D01*
X1923Y1547D02*
X1929Y1547D01*
X1950Y1547D02*
X1956Y1547D01*
X1971Y1547D02*
X1977Y1547D01*
X4021Y1547D02*
X4028Y1547D01*
X1Y1546D02*
X8Y1546D01*
X1923Y1546D02*
X1929Y1546D01*
X1950Y1546D02*
X1956Y1546D01*
X1971Y1546D02*
X1977Y1546D01*
X4021Y1546D02*
X4028Y1546D01*
X1Y1545D02*
X8Y1545D01*
X1923Y1545D02*
X1929Y1545D01*
X1950Y1545D02*
X1956Y1545D01*
X1971Y1545D02*
X1977Y1545D01*
X4021Y1545D02*
X4028Y1545D01*
X1Y1544D02*
X8Y1544D01*
X1923Y1544D02*
X1929Y1544D01*
X1950Y1544D02*
X1956Y1544D01*
X1971Y1544D02*
X1977Y1544D01*
X4021Y1544D02*
X4028Y1544D01*
X1Y1543D02*
X8Y1543D01*
X1923Y1543D02*
X1929Y1543D01*
X1950Y1543D02*
X1956Y1543D01*
X1971Y1543D02*
X1977Y1543D01*
X4021Y1543D02*
X4028Y1543D01*
X1Y1542D02*
X8Y1542D01*
X1923Y1542D02*
X1929Y1542D01*
X1950Y1542D02*
X1956Y1542D01*
X1971Y1542D02*
X1977Y1542D01*
X4021Y1542D02*
X4028Y1542D01*
X1Y1541D02*
X8Y1541D01*
X1923Y1541D02*
X1929Y1541D01*
X1950Y1541D02*
X1956Y1541D01*
X1971Y1541D02*
X1977Y1541D01*
X4021Y1541D02*
X4028Y1541D01*
X1Y1540D02*
X8Y1540D01*
X1923Y1540D02*
X1929Y1540D01*
X1950Y1540D02*
X1956Y1540D01*
X1971Y1540D02*
X1977Y1540D01*
X4021Y1540D02*
X4028Y1540D01*
X1Y1539D02*
X8Y1539D01*
X1923Y1539D02*
X1929Y1539D01*
X1950Y1539D02*
X1956Y1539D01*
X1971Y1539D02*
X1977Y1539D01*
X4021Y1539D02*
X4028Y1539D01*
X1Y1538D02*
X8Y1538D01*
X1923Y1538D02*
X1929Y1538D01*
X1950Y1538D02*
X1956Y1538D01*
X1971Y1538D02*
X1977Y1538D01*
X4021Y1538D02*
X4028Y1538D01*
X1Y1537D02*
X8Y1537D01*
X1923Y1537D02*
X1929Y1537D01*
X1950Y1537D02*
X1956Y1537D01*
X1971Y1537D02*
X1977Y1537D01*
X4021Y1537D02*
X4028Y1537D01*
X1Y1536D02*
X8Y1536D01*
X1923Y1536D02*
X1929Y1536D01*
X1950Y1536D02*
X1956Y1536D01*
X1971Y1536D02*
X1977Y1536D01*
X4021Y1536D02*
X4028Y1536D01*
X1Y1535D02*
X8Y1535D01*
X1923Y1535D02*
X1929Y1535D01*
X1950Y1535D02*
X1956Y1535D01*
X1971Y1535D02*
X1977Y1535D01*
X4021Y1535D02*
X4028Y1535D01*
X1Y1534D02*
X8Y1534D01*
X1923Y1534D02*
X1929Y1534D01*
X1950Y1534D02*
X1956Y1534D01*
X1971Y1534D02*
X1977Y1534D01*
X4021Y1534D02*
X4028Y1534D01*
X1Y1533D02*
X8Y1533D01*
X1904Y1533D02*
X1906Y1533D01*
X1923Y1533D02*
X1929Y1533D01*
X1950Y1533D02*
X1978Y1533D01*
X4021Y1533D02*
X4028Y1533D01*
X1Y1532D02*
X8Y1532D01*
X1903Y1532D02*
X1907Y1532D01*
X1923Y1532D02*
X1929Y1532D01*
X1950Y1532D02*
X1980Y1532D01*
X4021Y1532D02*
X4028Y1532D01*
X1Y1531D02*
X8Y1531D01*
X1902Y1531D02*
X1908Y1531D01*
X1923Y1531D02*
X1929Y1531D01*
X1950Y1531D02*
X1980Y1531D01*
X4021Y1531D02*
X4028Y1531D01*
X1Y1530D02*
X8Y1530D01*
X1902Y1530D02*
X1908Y1530D01*
X1923Y1530D02*
X1929Y1530D01*
X1950Y1530D02*
X1980Y1530D01*
X4021Y1530D02*
X4028Y1530D01*
X1Y1529D02*
X8Y1529D01*
X1902Y1529D02*
X1908Y1529D01*
X1923Y1529D02*
X1929Y1529D01*
X1950Y1529D02*
X1980Y1529D01*
X4021Y1529D02*
X4028Y1529D01*
X1Y1528D02*
X8Y1528D01*
X1902Y1528D02*
X1908Y1528D01*
X1923Y1528D02*
X1929Y1528D01*
X1950Y1528D02*
X1980Y1528D01*
X4021Y1528D02*
X4028Y1528D01*
X1Y1527D02*
X8Y1527D01*
X1902Y1527D02*
X1908Y1527D01*
X1923Y1527D02*
X1929Y1527D01*
X1950Y1527D02*
X1979Y1527D01*
X4021Y1527D02*
X4028Y1527D01*
X1Y1526D02*
X8Y1526D01*
X1902Y1526D02*
X1908Y1526D01*
X1923Y1526D02*
X1929Y1526D01*
X1971Y1526D02*
X1977Y1526D01*
X4021Y1526D02*
X4028Y1526D01*
X1Y1525D02*
X8Y1525D01*
X1902Y1525D02*
X1908Y1525D01*
X1923Y1525D02*
X1929Y1525D01*
X1971Y1525D02*
X1977Y1525D01*
X4021Y1525D02*
X4028Y1525D01*
X1Y1524D02*
X8Y1524D01*
X1902Y1524D02*
X1908Y1524D01*
X1923Y1524D02*
X1929Y1524D01*
X1971Y1524D02*
X1977Y1524D01*
X4021Y1524D02*
X4028Y1524D01*
X1Y1523D02*
X8Y1523D01*
X1902Y1523D02*
X1908Y1523D01*
X1923Y1523D02*
X1929Y1523D01*
X1971Y1523D02*
X1977Y1523D01*
X4021Y1523D02*
X4028Y1523D01*
X1Y1522D02*
X8Y1522D01*
X1902Y1522D02*
X1908Y1522D01*
X1923Y1522D02*
X1929Y1522D01*
X1971Y1522D02*
X1977Y1522D01*
X4021Y1522D02*
X4028Y1522D01*
X1Y1521D02*
X8Y1521D01*
X1902Y1521D02*
X1908Y1521D01*
X1923Y1521D02*
X1929Y1521D01*
X1971Y1521D02*
X1977Y1521D01*
X4021Y1521D02*
X4028Y1521D01*
X1Y1520D02*
X8Y1520D01*
X1902Y1520D02*
X1908Y1520D01*
X1923Y1520D02*
X1929Y1520D01*
X1971Y1520D02*
X1977Y1520D01*
X4021Y1520D02*
X4028Y1520D01*
X1Y1519D02*
X8Y1519D01*
X1902Y1519D02*
X1908Y1519D01*
X1923Y1519D02*
X1929Y1519D01*
X1971Y1519D02*
X1977Y1519D01*
X4021Y1519D02*
X4028Y1519D01*
X1Y1518D02*
X8Y1518D01*
X1902Y1518D02*
X1908Y1518D01*
X1922Y1518D02*
X1929Y1518D01*
X1971Y1518D02*
X1977Y1518D01*
X4021Y1518D02*
X4028Y1518D01*
X1Y1517D02*
X8Y1517D01*
X1902Y1517D02*
X1909Y1517D01*
X1922Y1517D02*
X1928Y1517D01*
X1971Y1517D02*
X1977Y1517D01*
X4021Y1517D02*
X4028Y1517D01*
X1Y1516D02*
X8Y1516D01*
X1902Y1516D02*
X1910Y1516D01*
X1921Y1516D02*
X1928Y1516D01*
X1971Y1516D02*
X1977Y1516D01*
X4021Y1516D02*
X4028Y1516D01*
X1Y1515D02*
X8Y1515D01*
X1903Y1515D02*
X1928Y1515D01*
X1971Y1515D02*
X1977Y1515D01*
X4021Y1515D02*
X4028Y1515D01*
X1Y1514D02*
X8Y1514D01*
X1903Y1514D02*
X1927Y1514D01*
X1971Y1514D02*
X1977Y1514D01*
X4021Y1514D02*
X4028Y1514D01*
X1Y1513D02*
X8Y1513D01*
X1904Y1513D02*
X1927Y1513D01*
X1971Y1513D02*
X1977Y1513D01*
X4021Y1513D02*
X4028Y1513D01*
X1Y1512D02*
X8Y1512D01*
X1905Y1512D02*
X1926Y1512D01*
X1971Y1512D02*
X1977Y1512D01*
X4021Y1512D02*
X4028Y1512D01*
X1Y1511D02*
X8Y1511D01*
X1906Y1511D02*
X1925Y1511D01*
X1971Y1511D02*
X1977Y1511D01*
X4021Y1511D02*
X4028Y1511D01*
X1Y1510D02*
X8Y1510D01*
X1907Y1510D02*
X1923Y1510D01*
X1972Y1510D02*
X1976Y1510D01*
X4021Y1510D02*
X4028Y1510D01*
X1Y1509D02*
X8Y1509D01*
X1910Y1509D02*
X1921Y1509D01*
X1973Y1509D02*
X1975Y1509D01*
X4021Y1509D02*
X4028Y1509D01*
X1Y1508D02*
X8Y1508D01*
X4021Y1508D02*
X4028Y1508D01*
X1Y1507D02*
X8Y1507D01*
X4021Y1507D02*
X4028Y1507D01*
X1Y1506D02*
X8Y1506D01*
X4021Y1506D02*
X4028Y1506D01*
X1Y1505D02*
X8Y1505D01*
X4021Y1505D02*
X4028Y1505D01*
X1Y1504D02*
X8Y1504D01*
X4021Y1504D02*
X4028Y1504D01*
X1Y1503D02*
X8Y1503D01*
X4021Y1503D02*
X4028Y1503D01*
X1Y1502D02*
X8Y1502D01*
X4021Y1502D02*
X4028Y1502D01*
X1Y1501D02*
X8Y1501D01*
X4021Y1501D02*
X4028Y1501D01*
X1Y1500D02*
X8Y1500D01*
X4021Y1500D02*
X4028Y1500D01*
X1Y1499D02*
X8Y1499D01*
X4021Y1499D02*
X4028Y1499D01*
X1Y1498D02*
X8Y1498D01*
X4021Y1498D02*
X4028Y1498D01*
X1Y1497D02*
X8Y1497D01*
X4021Y1497D02*
X4028Y1497D01*
X1Y1496D02*
X8Y1496D01*
X4021Y1496D02*
X4028Y1496D01*
X1Y1495D02*
X8Y1495D01*
X4021Y1495D02*
X4028Y1495D01*
X1Y1494D02*
X8Y1494D01*
X4021Y1494D02*
X4028Y1494D01*
X1Y1493D02*
X8Y1493D01*
X4021Y1493D02*
X4028Y1493D01*
X1Y1492D02*
X8Y1492D01*
X4021Y1492D02*
X4028Y1492D01*
X1Y1491D02*
X8Y1491D01*
X4021Y1491D02*
X4028Y1491D01*
X1Y1490D02*
X8Y1490D01*
X4021Y1490D02*
X4028Y1490D01*
X1Y1489D02*
X8Y1489D01*
X4021Y1489D02*
X4028Y1489D01*
X1Y1488D02*
X8Y1488D01*
X4021Y1488D02*
X4028Y1488D01*
X1Y1487D02*
X8Y1487D01*
X4021Y1487D02*
X4028Y1487D01*
X1Y1486D02*
X8Y1486D01*
X4021Y1486D02*
X4028Y1486D01*
X1Y1485D02*
X8Y1485D01*
X4021Y1485D02*
X4028Y1485D01*
X1Y1484D02*
X8Y1484D01*
X4021Y1484D02*
X4028Y1484D01*
X1Y1483D02*
X8Y1483D01*
X4021Y1483D02*
X4028Y1483D01*
X1Y1482D02*
X8Y1482D01*
X4021Y1482D02*
X4028Y1482D01*
X1Y1481D02*
X8Y1481D01*
X4021Y1481D02*
X4028Y1481D01*
X1Y1480D02*
X8Y1480D01*
X4021Y1480D02*
X4028Y1480D01*
X1Y1479D02*
X8Y1479D01*
X4021Y1479D02*
X4028Y1479D01*
X1Y1478D02*
X8Y1478D01*
X4021Y1478D02*
X4028Y1478D01*
X1Y1477D02*
X8Y1477D01*
X4021Y1477D02*
X4028Y1477D01*
X1Y1476D02*
X8Y1476D01*
X4021Y1476D02*
X4028Y1476D01*
X1Y1475D02*
X8Y1475D01*
X4021Y1475D02*
X4028Y1475D01*
X1Y1474D02*
X8Y1474D01*
X4021Y1474D02*
X4028Y1474D01*
X1Y1473D02*
X8Y1473D01*
X4021Y1473D02*
X4028Y1473D01*
X1Y1472D02*
X8Y1472D01*
X4021Y1472D02*
X4028Y1472D01*
X1Y1471D02*
X8Y1471D01*
X4021Y1471D02*
X4028Y1471D01*
X1Y1470D02*
X8Y1470D01*
X4021Y1470D02*
X4028Y1470D01*
X1Y1469D02*
X8Y1469D01*
X4021Y1469D02*
X4028Y1469D01*
X1Y1468D02*
X8Y1468D01*
X4021Y1468D02*
X4028Y1468D01*
X1Y1467D02*
X8Y1467D01*
X4021Y1467D02*
X4028Y1467D01*
X1Y1466D02*
X8Y1466D01*
X4021Y1466D02*
X4028Y1466D01*
X1Y1465D02*
X8Y1465D01*
X4021Y1465D02*
X4028Y1465D01*
X1Y1464D02*
X8Y1464D01*
X4021Y1464D02*
X4028Y1464D01*
X1Y1463D02*
X8Y1463D01*
X4021Y1463D02*
X4028Y1463D01*
X1Y1462D02*
X8Y1462D01*
X4021Y1462D02*
X4028Y1462D01*
X1Y1461D02*
X8Y1461D01*
X4021Y1461D02*
X4028Y1461D01*
X1Y1460D02*
X8Y1460D01*
X4021Y1460D02*
X4028Y1460D01*
X1Y1459D02*
X8Y1459D01*
X4021Y1459D02*
X4028Y1459D01*
X1Y1458D02*
X8Y1458D01*
X4021Y1458D02*
X4028Y1458D01*
X1Y1457D02*
X8Y1457D01*
X4021Y1457D02*
X4028Y1457D01*
X1Y1456D02*
X8Y1456D01*
X4021Y1456D02*
X4028Y1456D01*
X1Y1455D02*
X8Y1455D01*
X4021Y1455D02*
X4028Y1455D01*
X1Y1454D02*
X8Y1454D01*
X4021Y1454D02*
X4028Y1454D01*
X1Y1453D02*
X8Y1453D01*
X4021Y1453D02*
X4028Y1453D01*
X1Y1452D02*
X8Y1452D01*
X4021Y1452D02*
X4028Y1452D01*
X1Y1451D02*
X8Y1451D01*
X4021Y1451D02*
X4028Y1451D01*
X1Y1450D02*
X8Y1450D01*
X4021Y1450D02*
X4028Y1450D01*
X1Y1449D02*
X8Y1449D01*
X4021Y1449D02*
X4028Y1449D01*
X1Y1448D02*
X8Y1448D01*
X4021Y1448D02*
X4028Y1448D01*
X1Y1447D02*
X8Y1447D01*
X4021Y1447D02*
X4028Y1447D01*
X1Y1446D02*
X8Y1446D01*
X4021Y1446D02*
X4028Y1446D01*
X1Y1445D02*
X8Y1445D01*
X4021Y1445D02*
X4028Y1445D01*
X1Y1444D02*
X8Y1444D01*
X4021Y1444D02*
X4028Y1444D01*
X1Y1443D02*
X8Y1443D01*
X4021Y1443D02*
X4028Y1443D01*
X1Y1442D02*
X8Y1442D01*
X4021Y1442D02*
X4028Y1442D01*
X1Y1441D02*
X8Y1441D01*
X4021Y1441D02*
X4028Y1441D01*
X1Y1440D02*
X8Y1440D01*
X4021Y1440D02*
X4028Y1440D01*
X1Y1439D02*
X8Y1439D01*
X4021Y1439D02*
X4028Y1439D01*
X1Y1438D02*
X8Y1438D01*
X4021Y1438D02*
X4028Y1438D01*
X1Y1437D02*
X8Y1437D01*
X4021Y1437D02*
X4028Y1437D01*
X1Y1436D02*
X8Y1436D01*
X4021Y1436D02*
X4028Y1436D01*
X1Y1435D02*
X8Y1435D01*
X4021Y1435D02*
X4028Y1435D01*
X1Y1434D02*
X8Y1434D01*
X4021Y1434D02*
X4028Y1434D01*
X1Y1433D02*
X8Y1433D01*
X4021Y1433D02*
X4028Y1433D01*
X1Y1432D02*
X8Y1432D01*
X4021Y1432D02*
X4028Y1432D01*
X1Y1431D02*
X8Y1431D01*
X4021Y1431D02*
X4028Y1431D01*
X1Y1430D02*
X8Y1430D01*
X4021Y1430D02*
X4028Y1430D01*
X1Y1429D02*
X8Y1429D01*
X4021Y1429D02*
X4028Y1429D01*
X1Y1428D02*
X8Y1428D01*
X4021Y1428D02*
X4028Y1428D01*
X1Y1427D02*
X8Y1427D01*
X4021Y1427D02*
X4028Y1427D01*
X1Y1426D02*
X8Y1426D01*
X4021Y1426D02*
X4028Y1426D01*
X1Y1425D02*
X8Y1425D01*
X4021Y1425D02*
X4028Y1425D01*
X1Y1424D02*
X8Y1424D01*
X4021Y1424D02*
X4028Y1424D01*
X1Y1423D02*
X8Y1423D01*
X4021Y1423D02*
X4028Y1423D01*
X1Y1422D02*
X8Y1422D01*
X4021Y1422D02*
X4028Y1422D01*
X1Y1421D02*
X8Y1421D01*
X4021Y1421D02*
X4028Y1421D01*
X1Y1420D02*
X8Y1420D01*
X4021Y1420D02*
X4028Y1420D01*
X1Y1419D02*
X8Y1419D01*
X4021Y1419D02*
X4028Y1419D01*
X1Y1418D02*
X8Y1418D01*
X4021Y1418D02*
X4028Y1418D01*
X1Y1417D02*
X8Y1417D01*
X4021Y1417D02*
X4028Y1417D01*
X1Y1416D02*
X8Y1416D01*
X4021Y1416D02*
X4028Y1416D01*
X1Y1415D02*
X8Y1415D01*
X4021Y1415D02*
X4028Y1415D01*
X1Y1414D02*
X8Y1414D01*
X4021Y1414D02*
X4028Y1414D01*
X1Y1413D02*
X8Y1413D01*
X4021Y1413D02*
X4028Y1413D01*
X1Y1412D02*
X8Y1412D01*
X4021Y1412D02*
X4028Y1412D01*
X1Y1411D02*
X8Y1411D01*
X4021Y1411D02*
X4028Y1411D01*
X1Y1410D02*
X8Y1410D01*
X4021Y1410D02*
X4028Y1410D01*
X1Y1409D02*
X8Y1409D01*
X4021Y1409D02*
X4028Y1409D01*
X1Y1408D02*
X8Y1408D01*
X4021Y1408D02*
X4028Y1408D01*
X1Y1407D02*
X8Y1407D01*
X4021Y1407D02*
X4028Y1407D01*
X1Y1406D02*
X8Y1406D01*
X4021Y1406D02*
X4028Y1406D01*
X1Y1405D02*
X8Y1405D01*
X4021Y1405D02*
X4028Y1405D01*
X1Y1404D02*
X8Y1404D01*
X4021Y1404D02*
X4028Y1404D01*
X1Y1403D02*
X8Y1403D01*
X4021Y1403D02*
X4028Y1403D01*
X1Y1402D02*
X8Y1402D01*
X4021Y1402D02*
X4028Y1402D01*
X1Y1401D02*
X8Y1401D01*
X4021Y1401D02*
X4028Y1401D01*
X1Y1400D02*
X8Y1400D01*
X4021Y1400D02*
X4028Y1400D01*
X1Y1399D02*
X8Y1399D01*
X4021Y1399D02*
X4028Y1399D01*
X1Y1398D02*
X8Y1398D01*
X4021Y1398D02*
X4028Y1398D01*
X1Y1397D02*
X8Y1397D01*
X4021Y1397D02*
X4028Y1397D01*
X1Y1396D02*
X8Y1396D01*
X4021Y1396D02*
X4028Y1396D01*
X1Y1395D02*
X8Y1395D01*
X4021Y1395D02*
X4028Y1395D01*
X1Y1394D02*
X8Y1394D01*
X4021Y1394D02*
X4028Y1394D01*
X1Y1393D02*
X8Y1393D01*
X4021Y1393D02*
X4028Y1393D01*
X1Y1392D02*
X8Y1392D01*
X4021Y1392D02*
X4028Y1392D01*
X1Y1391D02*
X8Y1391D01*
X4021Y1391D02*
X4028Y1391D01*
X1Y1390D02*
X8Y1390D01*
X4021Y1390D02*
X4028Y1390D01*
X1Y1389D02*
X8Y1389D01*
X4021Y1389D02*
X4028Y1389D01*
X1Y1388D02*
X8Y1388D01*
X4021Y1388D02*
X4028Y1388D01*
X1Y1387D02*
X8Y1387D01*
X4021Y1387D02*
X4028Y1387D01*
X1Y1386D02*
X8Y1386D01*
X4021Y1386D02*
X4028Y1386D01*
X1Y1385D02*
X8Y1385D01*
X4021Y1385D02*
X4028Y1385D01*
X1Y1384D02*
X8Y1384D01*
X4021Y1384D02*
X4028Y1384D01*
X1Y1383D02*
X8Y1383D01*
X4021Y1383D02*
X4028Y1383D01*
X1Y1382D02*
X8Y1382D01*
X4021Y1382D02*
X4028Y1382D01*
X1Y1381D02*
X8Y1381D01*
X4021Y1381D02*
X4028Y1381D01*
X1Y1380D02*
X8Y1380D01*
X4021Y1380D02*
X4028Y1380D01*
X1Y1379D02*
X8Y1379D01*
X4021Y1379D02*
X4028Y1379D01*
X1Y1378D02*
X8Y1378D01*
X4021Y1378D02*
X4028Y1378D01*
X1Y1377D02*
X8Y1377D01*
X4021Y1377D02*
X4028Y1377D01*
X1Y1376D02*
X8Y1376D01*
X4021Y1376D02*
X4028Y1376D01*
X1Y1375D02*
X8Y1375D01*
X4021Y1375D02*
X4028Y1375D01*
X1Y1374D02*
X8Y1374D01*
X4021Y1374D02*
X4028Y1374D01*
X1Y1373D02*
X8Y1373D01*
X4021Y1373D02*
X4028Y1373D01*
X1Y1372D02*
X8Y1372D01*
X4021Y1372D02*
X4028Y1372D01*
X1Y1371D02*
X8Y1371D01*
X4021Y1371D02*
X4028Y1371D01*
X1Y1370D02*
X8Y1370D01*
X4021Y1370D02*
X4028Y1370D01*
X1Y1369D02*
X8Y1369D01*
X4021Y1369D02*
X4028Y1369D01*
X1Y1368D02*
X8Y1368D01*
X4021Y1368D02*
X4028Y1368D01*
X1Y1367D02*
X8Y1367D01*
X4021Y1367D02*
X4028Y1367D01*
X1Y1366D02*
X8Y1366D01*
X4021Y1366D02*
X4028Y1366D01*
X1Y1365D02*
X8Y1365D01*
X4021Y1365D02*
X4028Y1365D01*
X1Y1364D02*
X8Y1364D01*
X4021Y1364D02*
X4028Y1364D01*
X1Y1363D02*
X8Y1363D01*
X4021Y1363D02*
X4028Y1363D01*
X1Y1362D02*
X8Y1362D01*
X4021Y1362D02*
X4028Y1362D01*
X1Y1361D02*
X8Y1361D01*
X4021Y1361D02*
X4028Y1361D01*
X1Y1360D02*
X8Y1360D01*
X4021Y1360D02*
X4028Y1360D01*
X1Y1359D02*
X8Y1359D01*
X4021Y1359D02*
X4028Y1359D01*
X1Y1358D02*
X8Y1358D01*
X4021Y1358D02*
X4028Y1358D01*
X1Y1357D02*
X8Y1357D01*
X4021Y1357D02*
X4028Y1357D01*
X1Y1356D02*
X8Y1356D01*
X4021Y1356D02*
X4028Y1356D01*
X1Y1355D02*
X8Y1355D01*
X4021Y1355D02*
X4028Y1355D01*
X1Y1354D02*
X8Y1354D01*
X4021Y1354D02*
X4028Y1354D01*
X1Y1353D02*
X8Y1353D01*
X4021Y1353D02*
X4028Y1353D01*
X1Y1352D02*
X8Y1352D01*
X4021Y1352D02*
X4028Y1352D01*
X1Y1351D02*
X8Y1351D01*
X4021Y1351D02*
X4028Y1351D01*
X1Y1350D02*
X8Y1350D01*
X4021Y1350D02*
X4028Y1350D01*
X1Y1349D02*
X8Y1349D01*
X4021Y1349D02*
X4028Y1349D01*
X1Y1348D02*
X8Y1348D01*
X4021Y1348D02*
X4028Y1348D01*
X1Y1347D02*
X8Y1347D01*
X4021Y1347D02*
X4028Y1347D01*
X1Y1346D02*
X8Y1346D01*
X4021Y1346D02*
X4028Y1346D01*
X1Y1345D02*
X8Y1345D01*
X4021Y1345D02*
X4028Y1345D01*
X1Y1344D02*
X8Y1344D01*
X4021Y1344D02*
X4028Y1344D01*
X1Y1343D02*
X8Y1343D01*
X4021Y1343D02*
X4028Y1343D01*
X1Y1342D02*
X8Y1342D01*
X4021Y1342D02*
X4028Y1342D01*
X1Y1341D02*
X8Y1341D01*
X4021Y1341D02*
X4028Y1341D01*
X1Y1340D02*
X8Y1340D01*
X4021Y1340D02*
X4028Y1340D01*
X1Y1339D02*
X8Y1339D01*
X4021Y1339D02*
X4028Y1339D01*
X1Y1338D02*
X8Y1338D01*
X4021Y1338D02*
X4028Y1338D01*
X1Y1337D02*
X8Y1337D01*
X4021Y1337D02*
X4028Y1337D01*
X1Y1336D02*
X8Y1336D01*
X4021Y1336D02*
X4028Y1336D01*
X1Y1335D02*
X8Y1335D01*
X4021Y1335D02*
X4028Y1335D01*
X1Y1334D02*
X8Y1334D01*
X4021Y1334D02*
X4028Y1334D01*
X1Y1333D02*
X8Y1333D01*
X4021Y1333D02*
X4028Y1333D01*
X1Y1332D02*
X8Y1332D01*
X4021Y1332D02*
X4028Y1332D01*
X1Y1331D02*
X8Y1331D01*
X4021Y1331D02*
X4028Y1331D01*
X1Y1330D02*
X8Y1330D01*
X4021Y1330D02*
X4028Y1330D01*
X1Y1329D02*
X8Y1329D01*
X4021Y1329D02*
X4028Y1329D01*
X1Y1328D02*
X8Y1328D01*
X4021Y1328D02*
X4028Y1328D01*
X1Y1327D02*
X8Y1327D01*
X4021Y1327D02*
X4028Y1327D01*
X1Y1326D02*
X8Y1326D01*
X4021Y1326D02*
X4028Y1326D01*
X1Y1325D02*
X8Y1325D01*
X4021Y1325D02*
X4028Y1325D01*
X1Y1324D02*
X8Y1324D01*
X4021Y1324D02*
X4028Y1324D01*
X1Y1323D02*
X8Y1323D01*
X4021Y1323D02*
X4028Y1323D01*
X1Y1322D02*
X8Y1322D01*
X4021Y1322D02*
X4028Y1322D01*
X1Y1321D02*
X8Y1321D01*
X4021Y1321D02*
X4028Y1321D01*
X1Y1320D02*
X8Y1320D01*
X4021Y1320D02*
X4028Y1320D01*
X1Y1319D02*
X8Y1319D01*
X4021Y1319D02*
X4028Y1319D01*
X1Y1318D02*
X8Y1318D01*
X4021Y1318D02*
X4028Y1318D01*
X1Y1317D02*
X8Y1317D01*
X4021Y1317D02*
X4028Y1317D01*
X1Y1316D02*
X8Y1316D01*
X4021Y1316D02*
X4028Y1316D01*
X1Y1315D02*
X8Y1315D01*
X4021Y1315D02*
X4028Y1315D01*
X1Y1314D02*
X8Y1314D01*
X4021Y1314D02*
X4028Y1314D01*
X1Y1313D02*
X8Y1313D01*
X4021Y1313D02*
X4028Y1313D01*
X1Y1312D02*
X8Y1312D01*
X4021Y1312D02*
X4028Y1312D01*
X1Y1311D02*
X8Y1311D01*
X4021Y1311D02*
X4028Y1311D01*
X1Y1310D02*
X8Y1310D01*
X4021Y1310D02*
X4028Y1310D01*
X1Y1309D02*
X8Y1309D01*
X4021Y1309D02*
X4028Y1309D01*
X1Y1308D02*
X8Y1308D01*
X4021Y1308D02*
X4028Y1308D01*
X1Y1307D02*
X8Y1307D01*
X4021Y1307D02*
X4028Y1307D01*
X1Y1306D02*
X8Y1306D01*
X4021Y1306D02*
X4028Y1306D01*
X1Y1305D02*
X8Y1305D01*
X4021Y1305D02*
X4028Y1305D01*
X1Y1304D02*
X8Y1304D01*
X4021Y1304D02*
X4028Y1304D01*
X1Y1303D02*
X8Y1303D01*
X4021Y1303D02*
X4028Y1303D01*
X1Y1302D02*
X8Y1302D01*
X4021Y1302D02*
X4028Y1302D01*
X1Y1301D02*
X8Y1301D01*
X4021Y1301D02*
X4028Y1301D01*
X1Y1300D02*
X8Y1300D01*
X4021Y1300D02*
X4028Y1300D01*
X1Y1299D02*
X8Y1299D01*
X4021Y1299D02*
X4028Y1299D01*
X1Y1298D02*
X8Y1298D01*
X4021Y1298D02*
X4028Y1298D01*
X1Y1297D02*
X8Y1297D01*
X4021Y1297D02*
X4028Y1297D01*
X1Y1296D02*
X8Y1296D01*
X4021Y1296D02*
X4028Y1296D01*
X1Y1295D02*
X8Y1295D01*
X4021Y1295D02*
X4028Y1295D01*
X1Y1294D02*
X8Y1294D01*
X4021Y1294D02*
X4028Y1294D01*
X1Y1293D02*
X8Y1293D01*
X4021Y1293D02*
X4028Y1293D01*
X1Y1292D02*
X8Y1292D01*
X4021Y1292D02*
X4028Y1292D01*
X1Y1291D02*
X8Y1291D01*
X4021Y1291D02*
X4028Y1291D01*
X1Y1290D02*
X8Y1290D01*
X4021Y1290D02*
X4028Y1290D01*
X1Y1289D02*
X8Y1289D01*
X4021Y1289D02*
X4028Y1289D01*
X1Y1288D02*
X8Y1288D01*
X4021Y1288D02*
X4028Y1288D01*
X1Y1287D02*
X8Y1287D01*
X4021Y1287D02*
X4028Y1287D01*
X1Y1286D02*
X8Y1286D01*
X4021Y1286D02*
X4028Y1286D01*
X1Y1285D02*
X8Y1285D01*
X4021Y1285D02*
X4028Y1285D01*
X1Y1284D02*
X8Y1284D01*
X4021Y1284D02*
X4028Y1284D01*
X1Y1283D02*
X8Y1283D01*
X4021Y1283D02*
X4028Y1283D01*
X1Y1282D02*
X8Y1282D01*
X4021Y1282D02*
X4028Y1282D01*
X1Y1281D02*
X8Y1281D01*
X4021Y1281D02*
X4028Y1281D01*
X1Y1280D02*
X8Y1280D01*
X4021Y1280D02*
X4028Y1280D01*
X1Y1279D02*
X8Y1279D01*
X4021Y1279D02*
X4028Y1279D01*
X1Y1278D02*
X8Y1278D01*
X4021Y1278D02*
X4028Y1278D01*
X1Y1277D02*
X8Y1277D01*
X4021Y1277D02*
X4028Y1277D01*
X1Y1276D02*
X8Y1276D01*
X4021Y1276D02*
X4028Y1276D01*
X1Y1275D02*
X8Y1275D01*
X4021Y1275D02*
X4028Y1275D01*
X1Y1274D02*
X8Y1274D01*
X4021Y1274D02*
X4028Y1274D01*
X1Y1273D02*
X8Y1273D01*
X4021Y1273D02*
X4028Y1273D01*
X1Y1272D02*
X8Y1272D01*
X4021Y1272D02*
X4028Y1272D01*
X1Y1271D02*
X8Y1271D01*
X4021Y1271D02*
X4028Y1271D01*
X1Y1270D02*
X8Y1270D01*
X4021Y1270D02*
X4028Y1270D01*
X1Y1269D02*
X8Y1269D01*
X4021Y1269D02*
X4028Y1269D01*
X1Y1268D02*
X8Y1268D01*
X4021Y1268D02*
X4028Y1268D01*
X1Y1267D02*
X8Y1267D01*
X4021Y1267D02*
X4028Y1267D01*
X1Y1266D02*
X8Y1266D01*
X4021Y1266D02*
X4028Y1266D01*
X1Y1265D02*
X8Y1265D01*
X4021Y1265D02*
X4028Y1265D01*
X1Y1264D02*
X8Y1264D01*
X4021Y1264D02*
X4028Y1264D01*
X1Y1263D02*
X8Y1263D01*
X4021Y1263D02*
X4028Y1263D01*
X1Y1262D02*
X8Y1262D01*
X1924Y1262D02*
X1927Y1262D01*
X1950Y1262D02*
X1978Y1262D01*
X4021Y1262D02*
X4028Y1262D01*
X1Y1261D02*
X8Y1261D01*
X1923Y1261D02*
X1928Y1261D01*
X1949Y1261D02*
X1980Y1261D01*
X4021Y1261D02*
X4028Y1261D01*
X1Y1260D02*
X8Y1260D01*
X1923Y1260D02*
X1929Y1260D01*
X1949Y1260D02*
X1981Y1260D01*
X4021Y1260D02*
X4028Y1260D01*
X1Y1259D02*
X8Y1259D01*
X1923Y1259D02*
X1929Y1259D01*
X1949Y1259D02*
X1981Y1259D01*
X4021Y1259D02*
X4028Y1259D01*
X1Y1258D02*
X8Y1258D01*
X1923Y1258D02*
X1929Y1258D01*
X1949Y1258D02*
X1982Y1258D01*
X4021Y1258D02*
X4028Y1258D01*
X1Y1257D02*
X8Y1257D01*
X1923Y1257D02*
X1929Y1257D01*
X1950Y1257D02*
X1982Y1257D01*
X4021Y1257D02*
X4028Y1257D01*
X1Y1256D02*
X8Y1256D01*
X1923Y1256D02*
X1929Y1256D01*
X1951Y1256D02*
X1982Y1256D01*
X4021Y1256D02*
X4028Y1256D01*
X1Y1255D02*
X8Y1255D01*
X1923Y1255D02*
X1929Y1255D01*
X1976Y1255D02*
X1982Y1255D01*
X4021Y1255D02*
X4028Y1255D01*
X1Y1254D02*
X8Y1254D01*
X1923Y1254D02*
X1929Y1254D01*
X1976Y1254D02*
X1982Y1254D01*
X4021Y1254D02*
X4028Y1254D01*
X1Y1253D02*
X8Y1253D01*
X1923Y1253D02*
X1929Y1253D01*
X1976Y1253D02*
X1982Y1253D01*
X4021Y1253D02*
X4028Y1253D01*
X1Y1252D02*
X8Y1252D01*
X1923Y1252D02*
X1929Y1252D01*
X1976Y1252D02*
X1982Y1252D01*
X4021Y1252D02*
X4028Y1252D01*
X1Y1251D02*
X8Y1251D01*
X1923Y1251D02*
X1929Y1251D01*
X1976Y1251D02*
X1982Y1251D01*
X4021Y1251D02*
X4028Y1251D01*
X1Y1250D02*
X8Y1250D01*
X1923Y1250D02*
X1929Y1250D01*
X1976Y1250D02*
X1982Y1250D01*
X4021Y1250D02*
X4028Y1250D01*
X1Y1249D02*
X8Y1249D01*
X1923Y1249D02*
X1929Y1249D01*
X1976Y1249D02*
X1982Y1249D01*
X4021Y1249D02*
X4028Y1249D01*
X1Y1248D02*
X8Y1248D01*
X1923Y1248D02*
X1929Y1248D01*
X1976Y1248D02*
X1982Y1248D01*
X4021Y1248D02*
X4028Y1248D01*
X1Y1247D02*
X8Y1247D01*
X1923Y1247D02*
X1929Y1247D01*
X1976Y1247D02*
X1982Y1247D01*
X4021Y1247D02*
X4028Y1247D01*
X1Y1246D02*
X8Y1246D01*
X1923Y1246D02*
X1929Y1246D01*
X1976Y1246D02*
X1982Y1246D01*
X4021Y1246D02*
X4028Y1246D01*
X1Y1245D02*
X8Y1245D01*
X1923Y1245D02*
X1929Y1245D01*
X1976Y1245D02*
X1982Y1245D01*
X4021Y1245D02*
X4028Y1245D01*
X1Y1244D02*
X8Y1244D01*
X1923Y1244D02*
X1929Y1244D01*
X1976Y1244D02*
X1982Y1244D01*
X4021Y1244D02*
X4028Y1244D01*
X1Y1243D02*
X8Y1243D01*
X1923Y1243D02*
X1929Y1243D01*
X1976Y1243D02*
X1982Y1243D01*
X4021Y1243D02*
X4028Y1243D01*
X1Y1242D02*
X8Y1242D01*
X1923Y1242D02*
X1929Y1242D01*
X1976Y1242D02*
X1982Y1242D01*
X4021Y1242D02*
X4028Y1242D01*
X1Y1241D02*
X8Y1241D01*
X1923Y1241D02*
X1929Y1241D01*
X1975Y1241D02*
X1982Y1241D01*
X4021Y1241D02*
X4028Y1241D01*
X1Y1240D02*
X8Y1240D01*
X1923Y1240D02*
X1929Y1240D01*
X1975Y1240D02*
X1982Y1240D01*
X4021Y1240D02*
X4028Y1240D01*
X1Y1239D02*
X8Y1239D01*
X1923Y1239D02*
X1929Y1239D01*
X1957Y1239D02*
X1981Y1239D01*
X4021Y1239D02*
X4028Y1239D01*
X1Y1238D02*
X8Y1238D01*
X1923Y1238D02*
X1929Y1238D01*
X1956Y1238D02*
X1981Y1238D01*
X4021Y1238D02*
X4028Y1238D01*
X1Y1237D02*
X8Y1237D01*
X1923Y1237D02*
X1929Y1237D01*
X1956Y1237D02*
X1980Y1237D01*
X4021Y1237D02*
X4028Y1237D01*
X1Y1236D02*
X8Y1236D01*
X1923Y1236D02*
X1929Y1236D01*
X1955Y1236D02*
X1980Y1236D01*
X4021Y1236D02*
X4028Y1236D01*
X1Y1235D02*
X8Y1235D01*
X1923Y1235D02*
X1929Y1235D01*
X1956Y1235D02*
X1980Y1235D01*
X4021Y1235D02*
X4028Y1235D01*
X1Y1234D02*
X8Y1234D01*
X1923Y1234D02*
X1929Y1234D01*
X1956Y1234D02*
X1981Y1234D01*
X4021Y1234D02*
X4028Y1234D01*
X1Y1233D02*
X8Y1233D01*
X1904Y1233D02*
X1906Y1233D01*
X1923Y1233D02*
X1929Y1233D01*
X1957Y1233D02*
X1981Y1233D01*
X4021Y1233D02*
X4028Y1233D01*
X1Y1232D02*
X8Y1232D01*
X1903Y1232D02*
X1907Y1232D01*
X1923Y1232D02*
X1929Y1232D01*
X1974Y1232D02*
X1982Y1232D01*
X4021Y1232D02*
X4028Y1232D01*
X1Y1231D02*
X8Y1231D01*
X1902Y1231D02*
X1908Y1231D01*
X1923Y1231D02*
X1929Y1231D01*
X1975Y1231D02*
X1982Y1231D01*
X4021Y1231D02*
X4028Y1231D01*
X1Y1230D02*
X8Y1230D01*
X1902Y1230D02*
X1908Y1230D01*
X1923Y1230D02*
X1929Y1230D01*
X1976Y1230D02*
X1982Y1230D01*
X4021Y1230D02*
X4028Y1230D01*
X1Y1229D02*
X8Y1229D01*
X1902Y1229D02*
X1908Y1229D01*
X1923Y1229D02*
X1929Y1229D01*
X1976Y1229D02*
X1982Y1229D01*
X4021Y1229D02*
X4028Y1229D01*
X1Y1228D02*
X8Y1228D01*
X1902Y1228D02*
X1908Y1228D01*
X1923Y1228D02*
X1929Y1228D01*
X1976Y1228D02*
X1982Y1228D01*
X4021Y1228D02*
X4028Y1228D01*
X1Y1227D02*
X8Y1227D01*
X1902Y1227D02*
X1908Y1227D01*
X1923Y1227D02*
X1929Y1227D01*
X1976Y1227D02*
X1982Y1227D01*
X4021Y1227D02*
X4028Y1227D01*
X1Y1226D02*
X8Y1226D01*
X1902Y1226D02*
X1908Y1226D01*
X1923Y1226D02*
X1929Y1226D01*
X1976Y1226D02*
X1982Y1226D01*
X4021Y1226D02*
X4028Y1226D01*
X1Y1225D02*
X8Y1225D01*
X1902Y1225D02*
X1908Y1225D01*
X1923Y1225D02*
X1929Y1225D01*
X1976Y1225D02*
X1982Y1225D01*
X4021Y1225D02*
X4028Y1225D01*
X1Y1224D02*
X8Y1224D01*
X1902Y1224D02*
X1908Y1224D01*
X1923Y1224D02*
X1929Y1224D01*
X1976Y1224D02*
X1982Y1224D01*
X4021Y1224D02*
X4028Y1224D01*
X1Y1223D02*
X8Y1223D01*
X1902Y1223D02*
X1908Y1223D01*
X1923Y1223D02*
X1929Y1223D01*
X1976Y1223D02*
X1982Y1223D01*
X4021Y1223D02*
X4028Y1223D01*
X1Y1222D02*
X8Y1222D01*
X1902Y1222D02*
X1908Y1222D01*
X1923Y1222D02*
X1929Y1222D01*
X1976Y1222D02*
X1982Y1222D01*
X4021Y1222D02*
X4028Y1222D01*
X1Y1221D02*
X8Y1221D01*
X1902Y1221D02*
X1908Y1221D01*
X1923Y1221D02*
X1929Y1221D01*
X1976Y1221D02*
X1982Y1221D01*
X4021Y1221D02*
X4028Y1221D01*
X1Y1220D02*
X8Y1220D01*
X1902Y1220D02*
X1908Y1220D01*
X1923Y1220D02*
X1929Y1220D01*
X1976Y1220D02*
X1982Y1220D01*
X4021Y1220D02*
X4028Y1220D01*
X1Y1219D02*
X8Y1219D01*
X1902Y1219D02*
X1908Y1219D01*
X1923Y1219D02*
X1929Y1219D01*
X1976Y1219D02*
X1982Y1219D01*
X4021Y1219D02*
X4028Y1219D01*
X1Y1218D02*
X8Y1218D01*
X1902Y1218D02*
X1908Y1218D01*
X1922Y1218D02*
X1929Y1218D01*
X1976Y1218D02*
X1982Y1218D01*
X4021Y1218D02*
X4028Y1218D01*
X1Y1217D02*
X8Y1217D01*
X1902Y1217D02*
X1909Y1217D01*
X1922Y1217D02*
X1928Y1217D01*
X1976Y1217D02*
X1982Y1217D01*
X4021Y1217D02*
X4028Y1217D01*
X1Y1216D02*
X8Y1216D01*
X1902Y1216D02*
X1910Y1216D01*
X1920Y1216D02*
X1928Y1216D01*
X1976Y1216D02*
X1982Y1216D01*
X4021Y1216D02*
X4028Y1216D01*
X1Y1215D02*
X8Y1215D01*
X1903Y1215D02*
X1928Y1215D01*
X1950Y1215D02*
X1982Y1215D01*
X4021Y1215D02*
X4028Y1215D01*
X1Y1214D02*
X8Y1214D01*
X1903Y1214D02*
X1927Y1214D01*
X1949Y1214D02*
X1982Y1214D01*
X4021Y1214D02*
X4028Y1214D01*
X1Y1213D02*
X8Y1213D01*
X1904Y1213D02*
X1927Y1213D01*
X1949Y1213D02*
X1982Y1213D01*
X4021Y1213D02*
X4028Y1213D01*
X1Y1212D02*
X8Y1212D01*
X1905Y1212D02*
X1926Y1212D01*
X1949Y1212D02*
X1981Y1212D01*
X4021Y1212D02*
X4028Y1212D01*
X1Y1211D02*
X8Y1211D01*
X1906Y1211D02*
X1925Y1211D01*
X1949Y1211D02*
X1980Y1211D01*
X4021Y1211D02*
X4028Y1211D01*
X1Y1210D02*
X8Y1210D01*
X1908Y1210D02*
X1923Y1210D01*
X1949Y1210D02*
X1979Y1210D01*
X4021Y1210D02*
X4028Y1210D01*
X1Y1209D02*
X8Y1209D01*
X1910Y1209D02*
X1920Y1209D01*
X1951Y1209D02*
X1977Y1209D01*
X4021Y1209D02*
X4028Y1209D01*
X1Y1208D02*
X8Y1208D01*
X4021Y1208D02*
X4028Y1208D01*
X1Y1207D02*
X8Y1207D01*
X4021Y1207D02*
X4028Y1207D01*
X1Y1206D02*
X8Y1206D01*
X4021Y1206D02*
X4028Y1206D01*
X1Y1205D02*
X8Y1205D01*
X4021Y1205D02*
X4028Y1205D01*
X1Y1204D02*
X8Y1204D01*
X4021Y1204D02*
X4028Y1204D01*
X1Y1203D02*
X8Y1203D01*
X4021Y1203D02*
X4028Y1203D01*
X1Y1202D02*
X8Y1202D01*
X4021Y1202D02*
X4028Y1202D01*
X1Y1201D02*
X8Y1201D01*
X4021Y1201D02*
X4028Y1201D01*
X1Y1200D02*
X8Y1200D01*
X4021Y1200D02*
X4028Y1200D01*
X1Y1199D02*
X8Y1199D01*
X4021Y1199D02*
X4028Y1199D01*
X1Y1198D02*
X8Y1198D01*
X4021Y1198D02*
X4028Y1198D01*
X1Y1197D02*
X8Y1197D01*
X4021Y1197D02*
X4028Y1197D01*
X1Y1196D02*
X8Y1196D01*
X4021Y1196D02*
X4028Y1196D01*
X1Y1195D02*
X8Y1195D01*
X4021Y1195D02*
X4028Y1195D01*
X1Y1194D02*
X8Y1194D01*
X4021Y1194D02*
X4028Y1194D01*
X1Y1193D02*
X8Y1193D01*
X4021Y1193D02*
X4028Y1193D01*
X1Y1192D02*
X8Y1192D01*
X4021Y1192D02*
X4028Y1192D01*
X1Y1191D02*
X8Y1191D01*
X4021Y1191D02*
X4028Y1191D01*
X1Y1190D02*
X8Y1190D01*
X4021Y1190D02*
X4028Y1190D01*
X1Y1189D02*
X8Y1189D01*
X4021Y1189D02*
X4028Y1189D01*
X1Y1188D02*
X8Y1188D01*
X4021Y1188D02*
X4028Y1188D01*
X1Y1187D02*
X8Y1187D01*
X4021Y1187D02*
X4028Y1187D01*
X1Y1186D02*
X8Y1186D01*
X4021Y1186D02*
X4028Y1186D01*
X1Y1185D02*
X8Y1185D01*
X4021Y1185D02*
X4028Y1185D01*
X1Y1184D02*
X8Y1184D01*
X4021Y1184D02*
X4028Y1184D01*
X1Y1183D02*
X8Y1183D01*
X4021Y1183D02*
X4028Y1183D01*
X1Y1182D02*
X8Y1182D01*
X4021Y1182D02*
X4028Y1182D01*
X1Y1181D02*
X8Y1181D01*
X4021Y1181D02*
X4028Y1181D01*
X1Y1180D02*
X8Y1180D01*
X4021Y1180D02*
X4028Y1180D01*
X1Y1179D02*
X8Y1179D01*
X4021Y1179D02*
X4028Y1179D01*
X1Y1178D02*
X8Y1178D01*
X4021Y1178D02*
X4028Y1178D01*
X1Y1177D02*
X8Y1177D01*
X4021Y1177D02*
X4028Y1177D01*
X1Y1176D02*
X8Y1176D01*
X4021Y1176D02*
X4028Y1176D01*
X1Y1175D02*
X8Y1175D01*
X4021Y1175D02*
X4028Y1175D01*
X1Y1174D02*
X8Y1174D01*
X4021Y1174D02*
X4028Y1174D01*
X1Y1173D02*
X8Y1173D01*
X4021Y1173D02*
X4028Y1173D01*
X1Y1172D02*
X8Y1172D01*
X4021Y1172D02*
X4028Y1172D01*
X1Y1171D02*
X8Y1171D01*
X4021Y1171D02*
X4028Y1171D01*
X1Y1170D02*
X8Y1170D01*
X4021Y1170D02*
X4028Y1170D01*
X1Y1169D02*
X8Y1169D01*
X4021Y1169D02*
X4028Y1169D01*
X1Y1168D02*
X8Y1168D01*
X4021Y1168D02*
X4028Y1168D01*
X1Y1167D02*
X8Y1167D01*
X4021Y1167D02*
X4028Y1167D01*
X1Y1166D02*
X8Y1166D01*
X4021Y1166D02*
X4028Y1166D01*
X1Y1165D02*
X8Y1165D01*
X4021Y1165D02*
X4028Y1165D01*
X1Y1164D02*
X8Y1164D01*
X1803Y1164D02*
X1804Y1164D01*
X4021Y1164D02*
X4028Y1164D01*
X1Y1163D02*
X8Y1163D01*
X1802Y1163D02*
X1805Y1163D01*
X4021Y1163D02*
X4028Y1163D01*
X1Y1162D02*
X8Y1162D01*
X1801Y1162D02*
X1806Y1162D01*
X4021Y1162D02*
X4028Y1162D01*
X1Y1161D02*
X8Y1161D01*
X1800Y1161D02*
X1806Y1161D01*
X4021Y1161D02*
X4028Y1161D01*
X1Y1160D02*
X8Y1160D01*
X1799Y1160D02*
X1805Y1160D01*
X4021Y1160D02*
X4028Y1160D01*
X1Y1159D02*
X8Y1159D01*
X1798Y1159D02*
X1804Y1159D01*
X4021Y1159D02*
X4028Y1159D01*
X1Y1158D02*
X8Y1158D01*
X1797Y1158D02*
X1803Y1158D01*
X4021Y1158D02*
X4028Y1158D01*
X1Y1157D02*
X8Y1157D01*
X1796Y1157D02*
X1802Y1157D01*
X4021Y1157D02*
X4028Y1157D01*
X1Y1156D02*
X8Y1156D01*
X1795Y1156D02*
X1801Y1156D01*
X4021Y1156D02*
X4028Y1156D01*
X1Y1155D02*
X8Y1155D01*
X1794Y1155D02*
X1800Y1155D01*
X4021Y1155D02*
X4028Y1155D01*
X1Y1154D02*
X8Y1154D01*
X1793Y1154D02*
X1799Y1154D01*
X4021Y1154D02*
X4028Y1154D01*
X1Y1153D02*
X8Y1153D01*
X1792Y1153D02*
X1798Y1153D01*
X4021Y1153D02*
X4028Y1153D01*
X1Y1152D02*
X8Y1152D01*
X1791Y1152D02*
X1797Y1152D01*
X4021Y1152D02*
X4028Y1152D01*
X1Y1151D02*
X8Y1151D01*
X1790Y1151D02*
X1796Y1151D01*
X4021Y1151D02*
X4028Y1151D01*
X1Y1150D02*
X8Y1150D01*
X1789Y1150D02*
X1795Y1150D01*
X4021Y1150D02*
X4028Y1150D01*
X1Y1149D02*
X8Y1149D01*
X1788Y1149D02*
X1794Y1149D01*
X4021Y1149D02*
X4028Y1149D01*
X1Y1148D02*
X8Y1148D01*
X1787Y1148D02*
X1793Y1148D01*
X4021Y1148D02*
X4028Y1148D01*
X1Y1147D02*
X8Y1147D01*
X1786Y1147D02*
X1792Y1147D01*
X4021Y1147D02*
X4028Y1147D01*
X1Y1146D02*
X8Y1146D01*
X1785Y1146D02*
X1791Y1146D01*
X4021Y1146D02*
X4028Y1146D01*
X1Y1145D02*
X8Y1145D01*
X1784Y1145D02*
X1790Y1145D01*
X4021Y1145D02*
X4028Y1145D01*
X1Y1144D02*
X8Y1144D01*
X1783Y1144D02*
X1788Y1144D01*
X4021Y1144D02*
X4028Y1144D01*
X1Y1143D02*
X8Y1143D01*
X1782Y1143D02*
X1788Y1143D01*
X4021Y1143D02*
X4028Y1143D01*
X1Y1142D02*
X8Y1142D01*
X1781Y1142D02*
X1787Y1142D01*
X4021Y1142D02*
X4028Y1142D01*
X1Y1141D02*
X8Y1141D01*
X1780Y1141D02*
X1786Y1141D01*
X4021Y1141D02*
X4028Y1141D01*
X1Y1140D02*
X8Y1140D01*
X1779Y1140D02*
X1785Y1140D01*
X4021Y1140D02*
X4028Y1140D01*
X1Y1139D02*
X8Y1139D01*
X1778Y1139D02*
X1784Y1139D01*
X4021Y1139D02*
X4028Y1139D01*
X1Y1138D02*
X8Y1138D01*
X1777Y1138D02*
X1783Y1138D01*
X4021Y1138D02*
X4028Y1138D01*
X1Y1137D02*
X8Y1137D01*
X1776Y1137D02*
X1782Y1137D01*
X4021Y1137D02*
X4028Y1137D01*
X1Y1136D02*
X8Y1136D01*
X1775Y1136D02*
X1781Y1136D01*
X4021Y1136D02*
X4028Y1136D01*
X1Y1135D02*
X8Y1135D01*
X1774Y1135D02*
X1780Y1135D01*
X4021Y1135D02*
X4028Y1135D01*
X1Y1134D02*
X8Y1134D01*
X1773Y1134D02*
X1779Y1134D01*
X4021Y1134D02*
X4028Y1134D01*
X1Y1133D02*
X8Y1133D01*
X1772Y1133D02*
X1778Y1133D01*
X4021Y1133D02*
X4028Y1133D01*
X1Y1132D02*
X8Y1132D01*
X1771Y1132D02*
X1777Y1132D01*
X4021Y1132D02*
X4028Y1132D01*
X1Y1131D02*
X8Y1131D01*
X1770Y1131D02*
X1776Y1131D01*
X4021Y1131D02*
X4028Y1131D01*
X1Y1130D02*
X8Y1130D01*
X1769Y1130D02*
X1775Y1130D01*
X4021Y1130D02*
X4028Y1130D01*
X1Y1129D02*
X8Y1129D01*
X1770Y1129D02*
X1774Y1129D01*
X4021Y1129D02*
X4028Y1129D01*
X1Y1128D02*
X8Y1128D01*
X1771Y1128D02*
X1773Y1128D01*
X4021Y1128D02*
X4028Y1128D01*
X1Y1127D02*
X8Y1127D01*
X1772Y1127D02*
X1772Y1127D01*
X4021Y1127D02*
X4028Y1127D01*
X1Y1126D02*
X8Y1126D01*
X4021Y1126D02*
X4028Y1126D01*
X1Y1125D02*
X8Y1125D01*
X4021Y1125D02*
X4028Y1125D01*
X1Y1124D02*
X8Y1124D01*
X4021Y1124D02*
X4028Y1124D01*
X1Y1123D02*
X8Y1123D01*
X4021Y1123D02*
X4028Y1123D01*
X1Y1122D02*
X8Y1122D01*
X4021Y1122D02*
X4028Y1122D01*
X1Y1121D02*
X8Y1121D01*
X4021Y1121D02*
X4028Y1121D01*
X1Y1120D02*
X8Y1120D01*
X4021Y1120D02*
X4028Y1120D01*
X1Y1119D02*
X8Y1119D01*
X4021Y1119D02*
X4028Y1119D01*
X1Y1118D02*
X8Y1118D01*
X4021Y1118D02*
X4028Y1118D01*
X1Y1117D02*
X8Y1117D01*
X4021Y1117D02*
X4028Y1117D01*
X1Y1116D02*
X8Y1116D01*
X4021Y1116D02*
X4028Y1116D01*
X1Y1115D02*
X8Y1115D01*
X4021Y1115D02*
X4028Y1115D01*
X1Y1114D02*
X8Y1114D01*
X4021Y1114D02*
X4028Y1114D01*
X1Y1113D02*
X8Y1113D01*
X4021Y1113D02*
X4028Y1113D01*
X1Y1112D02*
X8Y1112D01*
X4021Y1112D02*
X4028Y1112D01*
X1Y1111D02*
X8Y1111D01*
X4021Y1111D02*
X4028Y1111D01*
X1Y1110D02*
X8Y1110D01*
X4021Y1110D02*
X4028Y1110D01*
X1Y1109D02*
X8Y1109D01*
X4021Y1109D02*
X4028Y1109D01*
X1Y1108D02*
X8Y1108D01*
X4021Y1108D02*
X4028Y1108D01*
X1Y1107D02*
X8Y1107D01*
X4021Y1107D02*
X4028Y1107D01*
X1Y1106D02*
X8Y1106D01*
X4021Y1106D02*
X4028Y1106D01*
X1Y1105D02*
X8Y1105D01*
X4021Y1105D02*
X4028Y1105D01*
X1Y1104D02*
X8Y1104D01*
X4021Y1104D02*
X4028Y1104D01*
X1Y1103D02*
X8Y1103D01*
X4021Y1103D02*
X4028Y1103D01*
X1Y1102D02*
X8Y1102D01*
X4021Y1102D02*
X4028Y1102D01*
X1Y1101D02*
X8Y1101D01*
X4021Y1101D02*
X4028Y1101D01*
X1Y1100D02*
X8Y1100D01*
X4021Y1100D02*
X4028Y1100D01*
X1Y1099D02*
X8Y1099D01*
X4021Y1099D02*
X4028Y1099D01*
X1Y1098D02*
X8Y1098D01*
X4021Y1098D02*
X4028Y1098D01*
X1Y1097D02*
X8Y1097D01*
X4021Y1097D02*
X4028Y1097D01*
X1Y1096D02*
X8Y1096D01*
X4021Y1096D02*
X4028Y1096D01*
X1Y1095D02*
X8Y1095D01*
X4021Y1095D02*
X4028Y1095D01*
X1Y1094D02*
X8Y1094D01*
X4021Y1094D02*
X4028Y1094D01*
X1Y1093D02*
X8Y1093D01*
X4021Y1093D02*
X4028Y1093D01*
X1Y1092D02*
X8Y1092D01*
X4021Y1092D02*
X4028Y1092D01*
X1Y1091D02*
X8Y1091D01*
X4021Y1091D02*
X4028Y1091D01*
X1Y1090D02*
X8Y1090D01*
X4021Y1090D02*
X4028Y1090D01*
X1Y1089D02*
X8Y1089D01*
X4021Y1089D02*
X4028Y1089D01*
X1Y1088D02*
X8Y1088D01*
X4021Y1088D02*
X4028Y1088D01*
X1Y1087D02*
X8Y1087D01*
X4021Y1087D02*
X4028Y1087D01*
X1Y1086D02*
X8Y1086D01*
X4021Y1086D02*
X4028Y1086D01*
X1Y1085D02*
X8Y1085D01*
X4021Y1085D02*
X4028Y1085D01*
X1Y1084D02*
X8Y1084D01*
X4021Y1084D02*
X4028Y1084D01*
X1Y1083D02*
X8Y1083D01*
X4021Y1083D02*
X4028Y1083D01*
X1Y1082D02*
X8Y1082D01*
X4021Y1082D02*
X4028Y1082D01*
X1Y1081D02*
X8Y1081D01*
X4021Y1081D02*
X4028Y1081D01*
X1Y1080D02*
X8Y1080D01*
X4021Y1080D02*
X4028Y1080D01*
X1Y1079D02*
X8Y1079D01*
X4021Y1079D02*
X4028Y1079D01*
X1Y1078D02*
X8Y1078D01*
X4021Y1078D02*
X4028Y1078D01*
X1Y1077D02*
X8Y1077D01*
X4021Y1077D02*
X4028Y1077D01*
X1Y1076D02*
X8Y1076D01*
X4021Y1076D02*
X4028Y1076D01*
X1Y1075D02*
X8Y1075D01*
X4021Y1075D02*
X4028Y1075D01*
X1Y1074D02*
X8Y1074D01*
X4021Y1074D02*
X4028Y1074D01*
X1Y1073D02*
X8Y1073D01*
X4021Y1073D02*
X4028Y1073D01*
X1Y1072D02*
X8Y1072D01*
X4021Y1072D02*
X4028Y1072D01*
X1Y1071D02*
X8Y1071D01*
X4021Y1071D02*
X4028Y1071D01*
X1Y1070D02*
X8Y1070D01*
X4021Y1070D02*
X4028Y1070D01*
X1Y1069D02*
X8Y1069D01*
X4021Y1069D02*
X4028Y1069D01*
X1Y1068D02*
X8Y1068D01*
X4021Y1068D02*
X4028Y1068D01*
X1Y1067D02*
X8Y1067D01*
X4021Y1067D02*
X4028Y1067D01*
X1Y1066D02*
X8Y1066D01*
X4021Y1066D02*
X4028Y1066D01*
X1Y1065D02*
X8Y1065D01*
X4021Y1065D02*
X4028Y1065D01*
X1Y1064D02*
X8Y1064D01*
X4021Y1064D02*
X4028Y1064D01*
X1Y1063D02*
X8Y1063D01*
X4021Y1063D02*
X4028Y1063D01*
X1Y1062D02*
X8Y1062D01*
X4021Y1062D02*
X4028Y1062D01*
X1Y1061D02*
X8Y1061D01*
X4021Y1061D02*
X4028Y1061D01*
X1Y1060D02*
X8Y1060D01*
X4021Y1060D02*
X4028Y1060D01*
X1Y1059D02*
X8Y1059D01*
X4021Y1059D02*
X4028Y1059D01*
X1Y1058D02*
X8Y1058D01*
X4021Y1058D02*
X4028Y1058D01*
X1Y1057D02*
X8Y1057D01*
X4021Y1057D02*
X4028Y1057D01*
X1Y1056D02*
X8Y1056D01*
X4021Y1056D02*
X4028Y1056D01*
X1Y1055D02*
X8Y1055D01*
X4021Y1055D02*
X4028Y1055D01*
X1Y1054D02*
X8Y1054D01*
X4021Y1054D02*
X4028Y1054D01*
X1Y1053D02*
X8Y1053D01*
X4021Y1053D02*
X4028Y1053D01*
X1Y1052D02*
X8Y1052D01*
X4021Y1052D02*
X4028Y1052D01*
X1Y1051D02*
X8Y1051D01*
X4021Y1051D02*
X4028Y1051D01*
X1Y1050D02*
X8Y1050D01*
X4021Y1050D02*
X4028Y1050D01*
X1Y1049D02*
X8Y1049D01*
X4021Y1049D02*
X4028Y1049D01*
X1Y1048D02*
X8Y1048D01*
X4021Y1048D02*
X4028Y1048D01*
X1Y1047D02*
X8Y1047D01*
X4021Y1047D02*
X4028Y1047D01*
X1Y1046D02*
X8Y1046D01*
X4021Y1046D02*
X4028Y1046D01*
X1Y1045D02*
X8Y1045D01*
X4021Y1045D02*
X4028Y1045D01*
X1Y1044D02*
X8Y1044D01*
X4021Y1044D02*
X4028Y1044D01*
X1Y1043D02*
X8Y1043D01*
X4021Y1043D02*
X4028Y1043D01*
X1Y1042D02*
X8Y1042D01*
X4021Y1042D02*
X4028Y1042D01*
X1Y1041D02*
X8Y1041D01*
X4021Y1041D02*
X4028Y1041D01*
X1Y1040D02*
X8Y1040D01*
X4021Y1040D02*
X4028Y1040D01*
X1Y1039D02*
X8Y1039D01*
X4021Y1039D02*
X4028Y1039D01*
X1Y1038D02*
X8Y1038D01*
X4021Y1038D02*
X4028Y1038D01*
X1Y1037D02*
X8Y1037D01*
X4021Y1037D02*
X4028Y1037D01*
X1Y1036D02*
X8Y1036D01*
X4021Y1036D02*
X4028Y1036D01*
X1Y1035D02*
X8Y1035D01*
X4021Y1035D02*
X4028Y1035D01*
X1Y1034D02*
X8Y1034D01*
X4021Y1034D02*
X4028Y1034D01*
X1Y1033D02*
X8Y1033D01*
X4021Y1033D02*
X4028Y1033D01*
X1Y1032D02*
X8Y1032D01*
X4021Y1032D02*
X4028Y1032D01*
X1Y1031D02*
X8Y1031D01*
X4021Y1031D02*
X4028Y1031D01*
X1Y1030D02*
X8Y1030D01*
X4021Y1030D02*
X4028Y1030D01*
X1Y1029D02*
X8Y1029D01*
X4021Y1029D02*
X4028Y1029D01*
X1Y1028D02*
X8Y1028D01*
X4021Y1028D02*
X4028Y1028D01*
X1Y1027D02*
X8Y1027D01*
X4021Y1027D02*
X4028Y1027D01*
X1Y1026D02*
X8Y1026D01*
X4021Y1026D02*
X4028Y1026D01*
X1Y1025D02*
X8Y1025D01*
X4021Y1025D02*
X4028Y1025D01*
X1Y1024D02*
X8Y1024D01*
X4021Y1024D02*
X4028Y1024D01*
X1Y1023D02*
X8Y1023D01*
X4021Y1023D02*
X4028Y1023D01*
X1Y1022D02*
X8Y1022D01*
X4021Y1022D02*
X4028Y1022D01*
X1Y1021D02*
X8Y1021D01*
X4021Y1021D02*
X4028Y1021D01*
X1Y1020D02*
X8Y1020D01*
X4021Y1020D02*
X4028Y1020D01*
X1Y1019D02*
X8Y1019D01*
X4021Y1019D02*
X4028Y1019D01*
X1Y1018D02*
X8Y1018D01*
X4021Y1018D02*
X4028Y1018D01*
X1Y1017D02*
X8Y1017D01*
X4021Y1017D02*
X4028Y1017D01*
X1Y1016D02*
X8Y1016D01*
X4021Y1016D02*
X4028Y1016D01*
X1Y1015D02*
X8Y1015D01*
X4021Y1015D02*
X4028Y1015D01*
X1Y1014D02*
X8Y1014D01*
X4021Y1014D02*
X4028Y1014D01*
X1Y1013D02*
X8Y1013D01*
X4021Y1013D02*
X4028Y1013D01*
X1Y1012D02*
X8Y1012D01*
X4021Y1012D02*
X4028Y1012D01*
X1Y1011D02*
X8Y1011D01*
X4021Y1011D02*
X4028Y1011D01*
X1Y1010D02*
X8Y1010D01*
X4021Y1010D02*
X4028Y1010D01*
X1Y1009D02*
X8Y1009D01*
X4021Y1009D02*
X4028Y1009D01*
X1Y1008D02*
X8Y1008D01*
X4021Y1008D02*
X4028Y1008D01*
X1Y1007D02*
X8Y1007D01*
X4021Y1007D02*
X4028Y1007D01*
X1Y1006D02*
X8Y1006D01*
X4021Y1006D02*
X4028Y1006D01*
X1Y1005D02*
X8Y1005D01*
X4021Y1005D02*
X4028Y1005D01*
X1Y1004D02*
X8Y1004D01*
X4021Y1004D02*
X4028Y1004D01*
X1Y1003D02*
X8Y1003D01*
X4021Y1003D02*
X4028Y1003D01*
X1Y1002D02*
X8Y1002D01*
X4021Y1002D02*
X4028Y1002D01*
X1Y1001D02*
X8Y1001D01*
X4021Y1001D02*
X4028Y1001D01*
X1Y1000D02*
X8Y1000D01*
X4021Y1000D02*
X4028Y1000D01*
X1Y999D02*
X8Y999D01*
X4021Y999D02*
X4028Y999D01*
X1Y998D02*
X8Y998D01*
X4021Y998D02*
X4028Y998D01*
X1Y997D02*
X8Y997D01*
X4021Y997D02*
X4028Y997D01*
X1Y996D02*
X8Y996D01*
X4021Y996D02*
X4028Y996D01*
X1Y995D02*
X8Y995D01*
X4021Y995D02*
X4028Y995D01*
X1Y994D02*
X8Y994D01*
X4021Y994D02*
X4028Y994D01*
X1Y993D02*
X8Y993D01*
X4021Y993D02*
X4028Y993D01*
X1Y992D02*
X8Y992D01*
X4021Y992D02*
X4028Y992D01*
X1Y991D02*
X8Y991D01*
X4021Y991D02*
X4028Y991D01*
X1Y990D02*
X8Y990D01*
X4021Y990D02*
X4028Y990D01*
X1Y989D02*
X8Y989D01*
X4021Y989D02*
X4028Y989D01*
X1Y988D02*
X8Y988D01*
X4021Y988D02*
X4028Y988D01*
X1Y987D02*
X8Y987D01*
X4021Y987D02*
X4028Y987D01*
X1Y986D02*
X8Y986D01*
X4021Y986D02*
X4028Y986D01*
X1Y985D02*
X8Y985D01*
X4021Y985D02*
X4028Y985D01*
X1Y984D02*
X8Y984D01*
X4021Y984D02*
X4028Y984D01*
X1Y983D02*
X8Y983D01*
X4021Y983D02*
X4028Y983D01*
X1Y982D02*
X8Y982D01*
X4021Y982D02*
X4028Y982D01*
X1Y981D02*
X8Y981D01*
X4021Y981D02*
X4028Y981D01*
X1Y980D02*
X8Y980D01*
X4021Y980D02*
X4028Y980D01*
X1Y979D02*
X8Y979D01*
X4021Y979D02*
X4028Y979D01*
X1Y978D02*
X8Y978D01*
X4021Y978D02*
X4028Y978D01*
X1Y977D02*
X8Y977D01*
X4021Y977D02*
X4028Y977D01*
X1Y976D02*
X8Y976D01*
X4021Y976D02*
X4028Y976D01*
X1Y975D02*
X8Y975D01*
X4021Y975D02*
X4028Y975D01*
X1Y974D02*
X8Y974D01*
X4021Y974D02*
X4028Y974D01*
X1Y973D02*
X8Y973D01*
X4021Y973D02*
X4028Y973D01*
X1Y972D02*
X8Y972D01*
X4021Y972D02*
X4028Y972D01*
X1Y971D02*
X8Y971D01*
X4021Y971D02*
X4028Y971D01*
X1Y970D02*
X8Y970D01*
X4021Y970D02*
X4028Y970D01*
X1Y969D02*
X8Y969D01*
X4021Y969D02*
X4028Y969D01*
X1Y968D02*
X8Y968D01*
X4021Y968D02*
X4028Y968D01*
X1Y967D02*
X8Y967D01*
X4021Y967D02*
X4028Y967D01*
X1Y966D02*
X8Y966D01*
X4021Y966D02*
X4028Y966D01*
X1Y965D02*
X8Y965D01*
X4021Y965D02*
X4028Y965D01*
X1Y964D02*
X8Y964D01*
X4021Y964D02*
X4028Y964D01*
X1Y963D02*
X8Y963D01*
X4021Y963D02*
X4028Y963D01*
X1Y962D02*
X8Y962D01*
X4021Y962D02*
X4028Y962D01*
X1Y961D02*
X8Y961D01*
X4021Y961D02*
X4028Y961D01*
X1Y960D02*
X8Y960D01*
X4021Y960D02*
X4028Y960D01*
X1Y959D02*
X8Y959D01*
X4021Y959D02*
X4028Y959D01*
X1Y958D02*
X8Y958D01*
X4021Y958D02*
X4028Y958D01*
X1Y957D02*
X8Y957D01*
X4021Y957D02*
X4028Y957D01*
X1Y956D02*
X8Y956D01*
X4021Y956D02*
X4028Y956D01*
X1Y955D02*
X8Y955D01*
X4021Y955D02*
X4028Y955D01*
X1Y954D02*
X8Y954D01*
X4021Y954D02*
X4028Y954D01*
X1Y953D02*
X8Y953D01*
X4021Y953D02*
X4028Y953D01*
X1Y952D02*
X8Y952D01*
X4021Y952D02*
X4028Y952D01*
X1Y951D02*
X8Y951D01*
X4021Y951D02*
X4028Y951D01*
X1Y950D02*
X8Y950D01*
X4021Y950D02*
X4028Y950D01*
X1Y949D02*
X8Y949D01*
X4021Y949D02*
X4028Y949D01*
X1Y948D02*
X8Y948D01*
X4021Y948D02*
X4028Y948D01*
X1Y947D02*
X8Y947D01*
X4021Y947D02*
X4028Y947D01*
X1Y946D02*
X8Y946D01*
X4021Y946D02*
X4028Y946D01*
X1Y945D02*
X8Y945D01*
X4021Y945D02*
X4028Y945D01*
X1Y944D02*
X8Y944D01*
X4021Y944D02*
X4028Y944D01*
X1Y943D02*
X8Y943D01*
X4021Y943D02*
X4028Y943D01*
X1Y942D02*
X8Y942D01*
X4021Y942D02*
X4028Y942D01*
X1Y941D02*
X8Y941D01*
X4021Y941D02*
X4028Y941D01*
X1Y940D02*
X8Y940D01*
X4021Y940D02*
X4028Y940D01*
X1Y939D02*
X8Y939D01*
X4021Y939D02*
X4028Y939D01*
X1Y938D02*
X8Y938D01*
X4021Y938D02*
X4028Y938D01*
X1Y937D02*
X8Y937D01*
X4021Y937D02*
X4028Y937D01*
X1Y936D02*
X8Y936D01*
X4021Y936D02*
X4028Y936D01*
X1Y935D02*
X8Y935D01*
X4021Y935D02*
X4028Y935D01*
X1Y934D02*
X8Y934D01*
X4021Y934D02*
X4028Y934D01*
X1Y933D02*
X8Y933D01*
X3702Y933D02*
X3718Y933D01*
X4021Y933D02*
X4028Y933D01*
X1Y932D02*
X8Y932D01*
X3674Y932D02*
X3677Y932D01*
X3700Y932D02*
X3718Y932D01*
X4021Y932D02*
X4028Y932D01*
X1Y931D02*
X8Y931D01*
X3673Y931D02*
X3678Y931D01*
X3699Y931D02*
X3718Y931D01*
X4021Y931D02*
X4028Y931D01*
X1Y930D02*
X8Y930D01*
X3673Y930D02*
X3678Y930D01*
X3698Y930D02*
X3718Y930D01*
X4021Y930D02*
X4028Y930D01*
X1Y929D02*
X8Y929D01*
X3672Y929D02*
X3679Y929D01*
X3698Y929D02*
X3718Y929D01*
X4021Y929D02*
X4028Y929D01*
X1Y928D02*
X8Y928D01*
X3672Y928D02*
X3679Y928D01*
X3699Y928D02*
X3718Y928D01*
X4021Y928D02*
X4028Y928D01*
X1Y927D02*
X8Y927D01*
X3672Y927D02*
X3679Y927D01*
X3700Y927D02*
X3718Y927D01*
X4021Y927D02*
X4028Y927D01*
X1Y926D02*
X8Y926D01*
X3672Y926D02*
X3679Y926D01*
X3702Y926D02*
X3718Y926D01*
X4021Y926D02*
X4028Y926D01*
X1Y925D02*
X8Y925D01*
X3672Y925D02*
X3679Y925D01*
X3712Y925D02*
X3718Y925D01*
X4021Y925D02*
X4028Y925D01*
X1Y924D02*
X8Y924D01*
X3672Y924D02*
X3679Y924D01*
X3712Y924D02*
X3718Y924D01*
X4021Y924D02*
X4028Y924D01*
X1Y923D02*
X8Y923D01*
X3672Y923D02*
X3679Y923D01*
X3712Y923D02*
X3718Y923D01*
X4021Y923D02*
X4028Y923D01*
X1Y922D02*
X8Y922D01*
X3672Y922D02*
X3679Y922D01*
X3712Y922D02*
X3718Y922D01*
X4021Y922D02*
X4028Y922D01*
X1Y921D02*
X8Y921D01*
X3672Y921D02*
X3679Y921D01*
X3712Y921D02*
X3718Y921D01*
X4021Y921D02*
X4028Y921D01*
X1Y920D02*
X8Y920D01*
X3672Y920D02*
X3679Y920D01*
X3712Y920D02*
X3718Y920D01*
X4021Y920D02*
X4028Y920D01*
X1Y919D02*
X8Y919D01*
X3672Y919D02*
X3679Y919D01*
X3712Y919D02*
X3718Y919D01*
X4021Y919D02*
X4028Y919D01*
X1Y918D02*
X8Y918D01*
X3672Y918D02*
X3679Y918D01*
X3712Y918D02*
X3718Y918D01*
X4021Y918D02*
X4028Y918D01*
X1Y917D02*
X8Y917D01*
X3672Y917D02*
X3679Y917D01*
X3712Y917D02*
X3718Y917D01*
X4021Y917D02*
X4028Y917D01*
X1Y916D02*
X8Y916D01*
X3672Y916D02*
X3679Y916D01*
X3712Y916D02*
X3718Y916D01*
X4021Y916D02*
X4028Y916D01*
X1Y915D02*
X8Y915D01*
X3672Y915D02*
X3679Y915D01*
X3712Y915D02*
X3718Y915D01*
X4021Y915D02*
X4028Y915D01*
X1Y914D02*
X8Y914D01*
X3672Y914D02*
X3679Y914D01*
X3712Y914D02*
X3718Y914D01*
X4021Y914D02*
X4028Y914D01*
X1Y913D02*
X8Y913D01*
X3672Y913D02*
X3679Y913D01*
X3712Y913D02*
X3718Y913D01*
X4021Y913D02*
X4028Y913D01*
X1Y912D02*
X8Y912D01*
X3672Y912D02*
X3679Y912D01*
X3712Y912D02*
X3718Y912D01*
X4021Y912D02*
X4028Y912D01*
X1Y911D02*
X8Y911D01*
X3672Y911D02*
X3679Y911D01*
X3712Y911D02*
X3718Y911D01*
X4021Y911D02*
X4028Y911D01*
X1Y910D02*
X8Y910D01*
X3672Y910D02*
X3679Y910D01*
X3712Y910D02*
X3718Y910D01*
X4021Y910D02*
X4028Y910D01*
X1Y909D02*
X8Y909D01*
X3672Y909D02*
X3679Y909D01*
X3712Y909D02*
X3718Y909D01*
X4021Y909D02*
X4028Y909D01*
X1Y908D02*
X8Y908D01*
X3672Y908D02*
X3679Y908D01*
X3712Y908D02*
X3718Y908D01*
X4021Y908D02*
X4028Y908D01*
X1Y907D02*
X8Y907D01*
X3672Y907D02*
X3679Y907D01*
X3712Y907D02*
X3718Y907D01*
X4021Y907D02*
X4028Y907D01*
X1Y906D02*
X8Y906D01*
X3672Y906D02*
X3679Y906D01*
X3712Y906D02*
X3718Y906D01*
X4021Y906D02*
X4028Y906D01*
X1Y905D02*
X8Y905D01*
X3672Y905D02*
X3679Y905D01*
X3712Y905D02*
X3718Y905D01*
X4021Y905D02*
X4028Y905D01*
X1Y904D02*
X8Y904D01*
X3672Y904D02*
X3679Y904D01*
X3712Y904D02*
X3718Y904D01*
X4021Y904D02*
X4028Y904D01*
X1Y903D02*
X8Y903D01*
X3654Y903D02*
X3656Y903D01*
X3672Y903D02*
X3679Y903D01*
X3712Y903D02*
X3718Y903D01*
X3728Y903D02*
X3730Y903D01*
X4021Y903D02*
X4028Y903D01*
X1Y902D02*
X8Y902D01*
X3652Y902D02*
X3657Y902D01*
X3672Y902D02*
X3679Y902D01*
X3712Y902D02*
X3718Y902D01*
X3727Y902D02*
X3731Y902D01*
X4021Y902D02*
X4028Y902D01*
X1Y901D02*
X8Y901D01*
X3652Y901D02*
X3658Y901D01*
X3672Y901D02*
X3679Y901D01*
X3712Y901D02*
X3718Y901D01*
X3726Y901D02*
X3732Y901D01*
X4021Y901D02*
X4028Y901D01*
X1Y900D02*
X8Y900D01*
X3652Y900D02*
X3658Y900D01*
X3672Y900D02*
X3679Y900D01*
X3712Y900D02*
X3718Y900D01*
X3726Y900D02*
X3732Y900D01*
X4021Y900D02*
X4028Y900D01*
X1Y899D02*
X8Y899D01*
X3652Y899D02*
X3658Y899D01*
X3672Y899D02*
X3679Y899D01*
X3712Y899D02*
X3718Y899D01*
X3726Y899D02*
X3732Y899D01*
X4021Y899D02*
X4028Y899D01*
X1Y898D02*
X8Y898D01*
X3652Y898D02*
X3658Y898D01*
X3672Y898D02*
X3679Y898D01*
X3712Y898D02*
X3718Y898D01*
X3726Y898D02*
X3732Y898D01*
X4021Y898D02*
X4028Y898D01*
X1Y897D02*
X8Y897D01*
X3652Y897D02*
X3658Y897D01*
X3672Y897D02*
X3679Y897D01*
X3712Y897D02*
X3718Y897D01*
X3726Y897D02*
X3732Y897D01*
X4021Y897D02*
X4028Y897D01*
X1Y896D02*
X8Y896D01*
X3652Y896D02*
X3658Y896D01*
X3672Y896D02*
X3679Y896D01*
X3712Y896D02*
X3718Y896D01*
X3726Y896D02*
X3732Y896D01*
X4021Y896D02*
X4028Y896D01*
X1Y895D02*
X8Y895D01*
X3652Y895D02*
X3658Y895D01*
X3672Y895D02*
X3679Y895D01*
X3712Y895D02*
X3718Y895D01*
X3726Y895D02*
X3732Y895D01*
X4021Y895D02*
X4028Y895D01*
X1Y894D02*
X8Y894D01*
X3652Y894D02*
X3658Y894D01*
X3672Y894D02*
X3679Y894D01*
X3712Y894D02*
X3718Y894D01*
X3726Y894D02*
X3732Y894D01*
X4021Y894D02*
X4028Y894D01*
X1Y893D02*
X8Y893D01*
X3652Y893D02*
X3658Y893D01*
X3672Y893D02*
X3679Y893D01*
X3712Y893D02*
X3718Y893D01*
X3726Y893D02*
X3732Y893D01*
X4021Y893D02*
X4028Y893D01*
X1Y892D02*
X8Y892D01*
X3652Y892D02*
X3658Y892D01*
X3672Y892D02*
X3679Y892D01*
X3712Y892D02*
X3718Y892D01*
X3726Y892D02*
X3732Y892D01*
X4021Y892D02*
X4028Y892D01*
X1Y891D02*
X8Y891D01*
X3652Y891D02*
X3658Y891D01*
X3672Y891D02*
X3679Y891D01*
X3712Y891D02*
X3718Y891D01*
X3726Y891D02*
X3732Y891D01*
X4021Y891D02*
X4028Y891D01*
X1Y890D02*
X8Y890D01*
X3652Y890D02*
X3658Y890D01*
X3672Y890D02*
X3679Y890D01*
X3712Y890D02*
X3718Y890D01*
X3726Y890D02*
X3732Y890D01*
X4021Y890D02*
X4028Y890D01*
X1Y889D02*
X8Y889D01*
X3652Y889D02*
X3658Y889D01*
X3672Y889D02*
X3678Y889D01*
X3712Y889D02*
X3718Y889D01*
X3726Y889D02*
X3732Y889D01*
X4021Y889D02*
X4028Y889D01*
X1Y888D02*
X8Y888D01*
X3652Y888D02*
X3658Y888D01*
X3672Y888D02*
X3678Y888D01*
X3712Y888D02*
X3718Y888D01*
X3726Y888D02*
X3732Y888D01*
X4021Y888D02*
X4028Y888D01*
X1Y887D02*
X8Y887D01*
X3652Y887D02*
X3659Y887D01*
X3671Y887D02*
X3678Y887D01*
X3712Y887D02*
X3718Y887D01*
X3726Y887D02*
X3732Y887D01*
X4021Y887D02*
X4028Y887D01*
X1Y886D02*
X8Y886D01*
X3652Y886D02*
X3661Y886D01*
X3670Y886D02*
X3678Y886D01*
X3712Y886D02*
X3718Y886D01*
X3726Y886D02*
X3732Y886D01*
X4021Y886D02*
X4028Y886D01*
X1Y885D02*
X8Y885D01*
X3653Y885D02*
X3678Y885D01*
X3700Y885D02*
X3732Y885D01*
X4021Y885D02*
X4028Y885D01*
X1Y884D02*
X8Y884D01*
X3653Y884D02*
X3677Y884D01*
X3699Y884D02*
X3732Y884D01*
X4021Y884D02*
X4028Y884D01*
X1Y883D02*
X8Y883D01*
X3654Y883D02*
X3676Y883D01*
X3699Y883D02*
X3732Y883D01*
X4021Y883D02*
X4028Y883D01*
X1Y882D02*
X8Y882D01*
X3655Y882D02*
X3675Y882D01*
X3698Y882D02*
X3732Y882D01*
X4021Y882D02*
X4028Y882D01*
X1Y881D02*
X8Y881D01*
X3656Y881D02*
X3674Y881D01*
X3699Y881D02*
X3732Y881D01*
X4021Y881D02*
X4028Y881D01*
X1Y880D02*
X8Y880D01*
X3658Y880D02*
X3673Y880D01*
X3699Y880D02*
X3731Y880D01*
X4021Y880D02*
X4028Y880D01*
X1Y879D02*
X8Y879D01*
X3661Y879D02*
X3670Y879D01*
X3701Y879D02*
X3729Y879D01*
X4021Y879D02*
X4028Y879D01*
X1Y878D02*
X8Y878D01*
X4021Y878D02*
X4028Y878D01*
X1Y877D02*
X8Y877D01*
X4021Y877D02*
X4028Y877D01*
X1Y876D02*
X8Y876D01*
X4021Y876D02*
X4028Y876D01*
X1Y875D02*
X8Y875D01*
X4021Y875D02*
X4028Y875D01*
X1Y874D02*
X8Y874D01*
X4021Y874D02*
X4028Y874D01*
X1Y873D02*
X8Y873D01*
X4021Y873D02*
X4028Y873D01*
X1Y872D02*
X8Y872D01*
X4021Y872D02*
X4028Y872D01*
X1Y871D02*
X8Y871D01*
X4021Y871D02*
X4028Y871D01*
X1Y870D02*
X8Y870D01*
X4021Y870D02*
X4028Y870D01*
X1Y869D02*
X8Y869D01*
X4021Y869D02*
X4028Y869D01*
X1Y868D02*
X8Y868D01*
X4021Y868D02*
X4028Y868D01*
X1Y867D02*
X8Y867D01*
X4021Y867D02*
X4028Y867D01*
X1Y866D02*
X8Y866D01*
X4021Y866D02*
X4028Y866D01*
X1Y865D02*
X8Y865D01*
X4021Y865D02*
X4028Y865D01*
X1Y864D02*
X8Y864D01*
X4021Y864D02*
X4028Y864D01*
X1Y863D02*
X8Y863D01*
X4021Y863D02*
X4028Y863D01*
X1Y862D02*
X8Y862D01*
X4021Y862D02*
X4028Y862D01*
X1Y861D02*
X8Y861D01*
X4021Y861D02*
X4028Y861D01*
X1Y860D02*
X8Y860D01*
X4021Y860D02*
X4028Y860D01*
X1Y859D02*
X8Y859D01*
X4021Y859D02*
X4028Y859D01*
X1Y858D02*
X8Y858D01*
X4021Y858D02*
X4028Y858D01*
X1Y857D02*
X8Y857D01*
X4021Y857D02*
X4028Y857D01*
X1Y856D02*
X8Y856D01*
X4021Y856D02*
X4028Y856D01*
X1Y855D02*
X8Y855D01*
X4021Y855D02*
X4028Y855D01*
X1Y854D02*
X8Y854D01*
X4021Y854D02*
X4028Y854D01*
X1Y853D02*
X8Y853D01*
X4021Y853D02*
X4028Y853D01*
X1Y852D02*
X8Y852D01*
X4021Y852D02*
X4028Y852D01*
X1Y851D02*
X8Y851D01*
X4021Y851D02*
X4028Y851D01*
X1Y850D02*
X8Y850D01*
X4021Y850D02*
X4028Y850D01*
X1Y849D02*
X8Y849D01*
X4021Y849D02*
X4028Y849D01*
X1Y848D02*
X8Y848D01*
X4021Y848D02*
X4028Y848D01*
X1Y847D02*
X8Y847D01*
X4021Y847D02*
X4028Y847D01*
X1Y846D02*
X8Y846D01*
X4021Y846D02*
X4028Y846D01*
X1Y845D02*
X8Y845D01*
X4021Y845D02*
X4028Y845D01*
X1Y844D02*
X8Y844D01*
X4021Y844D02*
X4028Y844D01*
X1Y843D02*
X8Y843D01*
X4021Y843D02*
X4028Y843D01*
X1Y842D02*
X8Y842D01*
X4021Y842D02*
X4028Y842D01*
X1Y841D02*
X8Y841D01*
X4021Y841D02*
X4028Y841D01*
X1Y840D02*
X8Y840D01*
X4021Y840D02*
X4028Y840D01*
X1Y839D02*
X8Y839D01*
X4021Y839D02*
X4028Y839D01*
X1Y838D02*
X8Y838D01*
X4021Y838D02*
X4028Y838D01*
X1Y837D02*
X8Y837D01*
X4021Y837D02*
X4028Y837D01*
X1Y836D02*
X8Y836D01*
X4021Y836D02*
X4028Y836D01*
X1Y835D02*
X8Y835D01*
X4021Y835D02*
X4028Y835D01*
X1Y834D02*
X8Y834D01*
X4021Y834D02*
X4028Y834D01*
X1Y833D02*
X8Y833D01*
X4021Y833D02*
X4028Y833D01*
X1Y832D02*
X8Y832D01*
X1057Y832D02*
X1079Y832D01*
X1104Y832D02*
X1131Y832D01*
X4021Y832D02*
X4028Y832D01*
X1Y831D02*
X8Y831D01*
X1055Y831D02*
X1081Y831D01*
X1103Y831D02*
X1133Y831D01*
X4021Y831D02*
X4028Y831D01*
X1Y830D02*
X8Y830D01*
X1054Y830D02*
X1083Y830D01*
X1102Y830D02*
X1134Y830D01*
X4021Y830D02*
X4028Y830D01*
X1Y829D02*
X8Y829D01*
X1054Y829D02*
X1084Y829D01*
X1102Y829D02*
X1135Y829D01*
X4021Y829D02*
X4028Y829D01*
X1Y828D02*
X8Y828D01*
X1053Y828D02*
X1084Y828D01*
X1102Y828D02*
X1135Y828D01*
X4021Y828D02*
X4028Y828D01*
X1Y827D02*
X8Y827D01*
X1053Y827D02*
X1085Y827D01*
X1103Y827D02*
X1136Y827D01*
X4021Y827D02*
X4028Y827D01*
X1Y826D02*
X8Y826D01*
X1052Y826D02*
X1085Y826D01*
X1104Y826D02*
X1136Y826D01*
X4021Y826D02*
X4028Y826D01*
X1Y825D02*
X8Y825D01*
X1052Y825D02*
X1058Y825D01*
X1079Y825D02*
X1086Y825D01*
X1130Y825D02*
X1136Y825D01*
X4021Y825D02*
X4028Y825D01*
X1Y824D02*
X8Y824D01*
X1052Y824D02*
X1059Y824D01*
X1080Y824D02*
X1086Y824D01*
X1130Y824D02*
X1136Y824D01*
X4021Y824D02*
X4028Y824D01*
X1Y823D02*
X8Y823D01*
X1052Y823D02*
X1059Y823D01*
X1080Y823D02*
X1086Y823D01*
X1130Y823D02*
X1136Y823D01*
X4021Y823D02*
X4028Y823D01*
X1Y822D02*
X8Y822D01*
X1053Y822D02*
X1060Y822D01*
X1080Y822D02*
X1086Y822D01*
X1130Y822D02*
X1136Y822D01*
X4021Y822D02*
X4028Y822D01*
X1Y821D02*
X8Y821D01*
X1053Y821D02*
X1061Y821D01*
X1081Y821D02*
X1085Y821D01*
X1130Y821D02*
X1136Y821D01*
X4021Y821D02*
X4028Y821D01*
X1Y820D02*
X8Y820D01*
X1054Y820D02*
X1062Y820D01*
X1082Y820D02*
X1084Y820D01*
X1130Y820D02*
X1136Y820D01*
X4021Y820D02*
X4028Y820D01*
X1Y819D02*
X8Y819D01*
X1054Y819D02*
X1062Y819D01*
X1130Y819D02*
X1136Y819D01*
X4021Y819D02*
X4028Y819D01*
X1Y818D02*
X8Y818D01*
X1055Y818D02*
X1063Y818D01*
X1130Y818D02*
X1136Y818D01*
X4021Y818D02*
X4028Y818D01*
X1Y817D02*
X8Y817D01*
X1056Y817D02*
X1064Y817D01*
X1130Y817D02*
X1136Y817D01*
X4021Y817D02*
X4028Y817D01*
X1Y816D02*
X8Y816D01*
X1057Y816D02*
X1065Y816D01*
X1130Y816D02*
X1136Y816D01*
X4021Y816D02*
X4028Y816D01*
X1Y815D02*
X8Y815D01*
X1058Y815D02*
X1066Y815D01*
X1130Y815D02*
X1136Y815D01*
X4021Y815D02*
X4028Y815D01*
X1Y814D02*
X8Y814D01*
X1058Y814D02*
X1066Y814D01*
X1130Y814D02*
X1136Y814D01*
X4021Y814D02*
X4028Y814D01*
X1Y813D02*
X8Y813D01*
X1059Y813D02*
X1067Y813D01*
X1130Y813D02*
X1136Y813D01*
X4021Y813D02*
X4028Y813D01*
X1Y812D02*
X8Y812D01*
X1060Y812D02*
X1068Y812D01*
X1130Y812D02*
X1136Y812D01*
X4021Y812D02*
X4028Y812D01*
X1Y811D02*
X8Y811D01*
X1061Y811D02*
X1069Y811D01*
X1130Y811D02*
X1136Y811D01*
X4021Y811D02*
X4028Y811D01*
X1Y810D02*
X8Y810D01*
X1061Y810D02*
X1069Y810D01*
X1130Y810D02*
X1136Y810D01*
X4021Y810D02*
X4028Y810D01*
X1Y809D02*
X8Y809D01*
X1062Y809D02*
X1070Y809D01*
X1129Y809D02*
X1136Y809D01*
X4021Y809D02*
X4028Y809D01*
X1Y808D02*
X8Y808D01*
X1063Y808D02*
X1071Y808D01*
X1106Y808D02*
X1136Y808D01*
X4021Y808D02*
X4028Y808D01*
X1Y807D02*
X8Y807D01*
X1064Y807D02*
X1072Y807D01*
X1104Y807D02*
X1135Y807D01*
X4021Y807D02*
X4028Y807D01*
X1Y806D02*
X8Y806D01*
X1065Y806D02*
X1073Y806D01*
X1104Y806D02*
X1135Y806D01*
X4021Y806D02*
X4028Y806D01*
X1Y805D02*
X8Y805D01*
X1065Y805D02*
X1073Y805D01*
X1103Y805D02*
X1134Y805D01*
X4021Y805D02*
X4028Y805D01*
X1Y804D02*
X8Y804D01*
X1066Y804D02*
X1074Y804D01*
X1103Y804D02*
X1134Y804D01*
X4021Y804D02*
X4028Y804D01*
X1Y803D02*
X8Y803D01*
X1067Y803D02*
X1075Y803D01*
X1102Y803D02*
X1132Y803D01*
X4021Y803D02*
X4028Y803D01*
X1Y802D02*
X8Y802D01*
X1068Y802D02*
X1076Y802D01*
X1102Y802D02*
X1109Y802D01*
X4021Y802D02*
X4028Y802D01*
X1Y801D02*
X8Y801D01*
X1068Y801D02*
X1076Y801D01*
X1102Y801D02*
X1108Y801D01*
X4021Y801D02*
X4028Y801D01*
X1Y800D02*
X8Y800D01*
X1069Y800D02*
X1077Y800D01*
X1102Y800D02*
X1108Y800D01*
X4021Y800D02*
X4028Y800D01*
X1Y799D02*
X8Y799D01*
X1070Y799D02*
X1078Y799D01*
X1102Y799D02*
X1108Y799D01*
X4021Y799D02*
X4028Y799D01*
X1Y798D02*
X8Y798D01*
X1071Y798D02*
X1079Y798D01*
X1102Y798D02*
X1108Y798D01*
X4021Y798D02*
X4028Y798D01*
X1Y797D02*
X8Y797D01*
X1072Y797D02*
X1080Y797D01*
X1102Y797D02*
X1108Y797D01*
X4021Y797D02*
X4028Y797D01*
X1Y796D02*
X8Y796D01*
X1072Y796D02*
X1080Y796D01*
X1102Y796D02*
X1108Y796D01*
X4021Y796D02*
X4028Y796D01*
X1Y795D02*
X8Y795D01*
X1073Y795D02*
X1081Y795D01*
X1102Y795D02*
X1108Y795D01*
X4021Y795D02*
X4028Y795D01*
X1Y794D02*
X8Y794D01*
X1074Y794D02*
X1082Y794D01*
X1102Y794D02*
X1108Y794D01*
X4021Y794D02*
X4028Y794D01*
X1Y793D02*
X8Y793D01*
X1075Y793D02*
X1083Y793D01*
X1102Y793D02*
X1108Y793D01*
X4021Y793D02*
X4028Y793D01*
X1Y792D02*
X8Y792D01*
X1075Y792D02*
X1083Y792D01*
X1102Y792D02*
X1108Y792D01*
X4021Y792D02*
X4028Y792D01*
X1Y791D02*
X8Y791D01*
X1054Y791D02*
X1056Y791D01*
X1076Y791D02*
X1084Y791D01*
X1102Y791D02*
X1108Y791D01*
X4021Y791D02*
X4028Y791D01*
X1Y790D02*
X8Y790D01*
X1053Y790D02*
X1057Y790D01*
X1077Y790D02*
X1085Y790D01*
X1102Y790D02*
X1108Y790D01*
X4021Y790D02*
X4028Y790D01*
X1Y789D02*
X8Y789D01*
X1052Y789D02*
X1058Y789D01*
X1078Y789D02*
X1085Y789D01*
X1102Y789D02*
X1108Y789D01*
X4021Y789D02*
X4028Y789D01*
X1Y788D02*
X8Y788D01*
X1052Y788D02*
X1058Y788D01*
X1078Y788D02*
X1086Y788D01*
X1102Y788D02*
X1108Y788D01*
X4021Y788D02*
X4028Y788D01*
X1Y787D02*
X8Y787D01*
X1052Y787D02*
X1058Y787D01*
X1079Y787D02*
X1086Y787D01*
X1102Y787D02*
X1108Y787D01*
X4021Y787D02*
X4028Y787D01*
X1Y786D02*
X8Y786D01*
X1052Y786D02*
X1059Y786D01*
X1080Y786D02*
X1086Y786D01*
X1102Y786D02*
X1108Y786D01*
X4021Y786D02*
X4028Y786D01*
X1Y785D02*
X8Y785D01*
X1053Y785D02*
X1086Y785D01*
X1102Y785D02*
X1134Y785D01*
X4021Y785D02*
X4028Y785D01*
X1Y784D02*
X8Y784D01*
X1053Y784D02*
X1085Y784D01*
X1102Y784D02*
X1135Y784D01*
X4021Y784D02*
X4028Y784D01*
X1Y783D02*
X8Y783D01*
X1054Y783D02*
X1085Y783D01*
X1102Y783D02*
X1136Y783D01*
X4021Y783D02*
X4028Y783D01*
X1Y782D02*
X8Y782D01*
X1054Y782D02*
X1084Y782D01*
X1102Y782D02*
X1136Y782D01*
X4021Y782D02*
X4028Y782D01*
X1Y781D02*
X8Y781D01*
X1055Y781D02*
X1084Y781D01*
X1102Y781D02*
X1136Y781D01*
X4021Y781D02*
X4028Y781D01*
X1Y780D02*
X8Y780D01*
X1056Y780D02*
X1083Y780D01*
X1102Y780D02*
X1135Y780D01*
X4021Y780D02*
X4028Y780D01*
X1Y779D02*
X8Y779D01*
X1058Y779D02*
X1081Y779D01*
X1102Y779D02*
X1134Y779D01*
X4021Y779D02*
X4028Y779D01*
X1Y778D02*
X8Y778D01*
X4021Y778D02*
X4028Y778D01*
X1Y777D02*
X8Y777D01*
X4021Y777D02*
X4028Y777D01*
X1Y776D02*
X8Y776D01*
X4021Y776D02*
X4028Y776D01*
X1Y775D02*
X8Y775D01*
X4021Y775D02*
X4028Y775D01*
X1Y774D02*
X8Y774D01*
X4021Y774D02*
X4028Y774D01*
X1Y773D02*
X8Y773D01*
X4021Y773D02*
X4028Y773D01*
X1Y772D02*
X8Y772D01*
X4021Y772D02*
X4028Y772D01*
X1Y771D02*
X8Y771D01*
X4021Y771D02*
X4028Y771D01*
X1Y770D02*
X8Y770D01*
X4021Y770D02*
X4028Y770D01*
X1Y769D02*
X8Y769D01*
X4021Y769D02*
X4028Y769D01*
X1Y768D02*
X8Y768D01*
X4021Y768D02*
X4028Y768D01*
X1Y767D02*
X8Y767D01*
X4021Y767D02*
X4028Y767D01*
X1Y766D02*
X8Y766D01*
X4021Y766D02*
X4028Y766D01*
X1Y765D02*
X8Y765D01*
X4021Y765D02*
X4028Y765D01*
X1Y764D02*
X8Y764D01*
X4021Y764D02*
X4028Y764D01*
X1Y763D02*
X8Y763D01*
X4021Y763D02*
X4028Y763D01*
X1Y762D02*
X8Y762D01*
X4021Y762D02*
X4028Y762D01*
X1Y761D02*
X8Y761D01*
X4021Y761D02*
X4028Y761D01*
X1Y760D02*
X8Y760D01*
X4021Y760D02*
X4028Y760D01*
X1Y759D02*
X8Y759D01*
X4021Y759D02*
X4028Y759D01*
X1Y758D02*
X8Y758D01*
X4021Y758D02*
X4028Y758D01*
X1Y757D02*
X8Y757D01*
X4021Y757D02*
X4028Y757D01*
X1Y756D02*
X8Y756D01*
X4021Y756D02*
X4028Y756D01*
X1Y755D02*
X8Y755D01*
X4021Y755D02*
X4028Y755D01*
X1Y754D02*
X8Y754D01*
X4021Y754D02*
X4028Y754D01*
X1Y753D02*
X8Y753D01*
X4021Y753D02*
X4028Y753D01*
X1Y752D02*
X8Y752D01*
X4021Y752D02*
X4028Y752D01*
X1Y751D02*
X8Y751D01*
X4021Y751D02*
X4028Y751D01*
X1Y750D02*
X8Y750D01*
X4021Y750D02*
X4028Y750D01*
X1Y749D02*
X8Y749D01*
X4021Y749D02*
X4028Y749D01*
X1Y748D02*
X8Y748D01*
X4021Y748D02*
X4028Y748D01*
X1Y747D02*
X8Y747D01*
X4021Y747D02*
X4028Y747D01*
X1Y746D02*
X8Y746D01*
X4021Y746D02*
X4028Y746D01*
X1Y745D02*
X8Y745D01*
X4021Y745D02*
X4028Y745D01*
X1Y744D02*
X8Y744D01*
X4021Y744D02*
X4028Y744D01*
X1Y743D02*
X8Y743D01*
X4021Y743D02*
X4028Y743D01*
X1Y742D02*
X8Y742D01*
X4021Y742D02*
X4028Y742D01*
X1Y741D02*
X8Y741D01*
X4021Y741D02*
X4028Y741D01*
X1Y740D02*
X8Y740D01*
X4021Y740D02*
X4028Y740D01*
X1Y739D02*
X8Y739D01*
X4021Y739D02*
X4028Y739D01*
X1Y738D02*
X8Y738D01*
X4021Y738D02*
X4028Y738D01*
X1Y737D02*
X8Y737D01*
X4021Y737D02*
X4028Y737D01*
X1Y736D02*
X8Y736D01*
X4021Y736D02*
X4028Y736D01*
X1Y735D02*
X8Y735D01*
X4021Y735D02*
X4028Y735D01*
X1Y734D02*
X8Y734D01*
X4021Y734D02*
X4028Y734D01*
X1Y733D02*
X8Y733D01*
X4021Y733D02*
X4028Y733D01*
X1Y732D02*
X8Y732D01*
X4021Y732D02*
X4028Y732D01*
X1Y731D02*
X8Y731D01*
X4021Y731D02*
X4028Y731D01*
X1Y730D02*
X8Y730D01*
X4021Y730D02*
X4028Y730D01*
X1Y729D02*
X8Y729D01*
X4021Y729D02*
X4028Y729D01*
X1Y728D02*
X8Y728D01*
X4021Y728D02*
X4028Y728D01*
X1Y727D02*
X8Y727D01*
X4021Y727D02*
X4028Y727D01*
X1Y726D02*
X8Y726D01*
X4021Y726D02*
X4028Y726D01*
X1Y725D02*
X8Y725D01*
X4021Y725D02*
X4028Y725D01*
X1Y724D02*
X8Y724D01*
X4021Y724D02*
X4028Y724D01*
X1Y723D02*
X8Y723D01*
X4021Y723D02*
X4028Y723D01*
X1Y722D02*
X8Y722D01*
X4021Y722D02*
X4028Y722D01*
X1Y721D02*
X8Y721D01*
X4021Y721D02*
X4028Y721D01*
X1Y720D02*
X8Y720D01*
X4021Y720D02*
X4028Y720D01*
X1Y719D02*
X8Y719D01*
X4021Y719D02*
X4028Y719D01*
X1Y718D02*
X8Y718D01*
X4021Y718D02*
X4028Y718D01*
X1Y717D02*
X8Y717D01*
X4021Y717D02*
X4028Y717D01*
X1Y716D02*
X8Y716D01*
X4021Y716D02*
X4028Y716D01*
X1Y715D02*
X8Y715D01*
X4021Y715D02*
X4028Y715D01*
X1Y714D02*
X8Y714D01*
X4021Y714D02*
X4028Y714D01*
X1Y713D02*
X8Y713D01*
X4021Y713D02*
X4028Y713D01*
X1Y712D02*
X8Y712D01*
X4021Y712D02*
X4028Y712D01*
X1Y711D02*
X8Y711D01*
X4021Y711D02*
X4028Y711D01*
X1Y710D02*
X8Y710D01*
X4021Y710D02*
X4028Y710D01*
X1Y709D02*
X8Y709D01*
X4021Y709D02*
X4028Y709D01*
X1Y708D02*
X8Y708D01*
X4021Y708D02*
X4028Y708D01*
X1Y707D02*
X8Y707D01*
X4021Y707D02*
X4028Y707D01*
X1Y706D02*
X8Y706D01*
X4021Y706D02*
X4028Y706D01*
X1Y705D02*
X8Y705D01*
X4021Y705D02*
X4028Y705D01*
X1Y704D02*
X8Y704D01*
X4021Y704D02*
X4028Y704D01*
X1Y703D02*
X8Y703D01*
X4021Y703D02*
X4028Y703D01*
X1Y702D02*
X8Y702D01*
X4021Y702D02*
X4028Y702D01*
X1Y701D02*
X8Y701D01*
X4021Y701D02*
X4028Y701D01*
X1Y700D02*
X8Y700D01*
X4021Y700D02*
X4028Y700D01*
X1Y699D02*
X8Y699D01*
X4021Y699D02*
X4028Y699D01*
X1Y698D02*
X8Y698D01*
X4021Y698D02*
X4028Y698D01*
X1Y697D02*
X8Y697D01*
X4021Y697D02*
X4028Y697D01*
X1Y696D02*
X8Y696D01*
X4021Y696D02*
X4028Y696D01*
X1Y695D02*
X8Y695D01*
X4021Y695D02*
X4028Y695D01*
X1Y694D02*
X8Y694D01*
X4021Y694D02*
X4028Y694D01*
X1Y693D02*
X8Y693D01*
X4021Y693D02*
X4028Y693D01*
X1Y692D02*
X8Y692D01*
X4021Y692D02*
X4028Y692D01*
X1Y691D02*
X8Y691D01*
X4021Y691D02*
X4028Y691D01*
X1Y690D02*
X8Y690D01*
X4021Y690D02*
X4028Y690D01*
X1Y689D02*
X8Y689D01*
X4021Y689D02*
X4028Y689D01*
X1Y688D02*
X8Y688D01*
X4021Y688D02*
X4028Y688D01*
X1Y687D02*
X8Y687D01*
X4021Y687D02*
X4028Y687D01*
X1Y686D02*
X8Y686D01*
X4021Y686D02*
X4028Y686D01*
X1Y685D02*
X8Y685D01*
X4021Y685D02*
X4028Y685D01*
X1Y684D02*
X8Y684D01*
X4021Y684D02*
X4028Y684D01*
X1Y683D02*
X8Y683D01*
X4021Y683D02*
X4028Y683D01*
X1Y682D02*
X8Y682D01*
X4021Y682D02*
X4028Y682D01*
X1Y681D02*
X8Y681D01*
X4021Y681D02*
X4028Y681D01*
X1Y680D02*
X8Y680D01*
X4021Y680D02*
X4028Y680D01*
X1Y679D02*
X8Y679D01*
X4021Y679D02*
X4028Y679D01*
X1Y678D02*
X8Y678D01*
X4021Y678D02*
X4028Y678D01*
X1Y677D02*
X8Y677D01*
X4021Y677D02*
X4028Y677D01*
X1Y676D02*
X8Y676D01*
X4021Y676D02*
X4028Y676D01*
X1Y675D02*
X8Y675D01*
X4021Y675D02*
X4028Y675D01*
X1Y674D02*
X8Y674D01*
X4021Y674D02*
X4028Y674D01*
X1Y673D02*
X8Y673D01*
X4021Y673D02*
X4028Y673D01*
X1Y672D02*
X8Y672D01*
X4021Y672D02*
X4028Y672D01*
X1Y671D02*
X8Y671D01*
X4021Y671D02*
X4028Y671D01*
X1Y670D02*
X8Y670D01*
X4021Y670D02*
X4028Y670D01*
X1Y669D02*
X8Y669D01*
X4021Y669D02*
X4028Y669D01*
X1Y668D02*
X8Y668D01*
X4021Y668D02*
X4028Y668D01*
X1Y667D02*
X8Y667D01*
X4021Y667D02*
X4028Y667D01*
X1Y666D02*
X8Y666D01*
X4021Y666D02*
X4028Y666D01*
X1Y665D02*
X8Y665D01*
X4021Y665D02*
X4028Y665D01*
X1Y664D02*
X8Y664D01*
X4021Y664D02*
X4028Y664D01*
X1Y663D02*
X8Y663D01*
X4021Y663D02*
X4028Y663D01*
X1Y662D02*
X8Y662D01*
X4021Y662D02*
X4028Y662D01*
X1Y661D02*
X8Y661D01*
X4021Y661D02*
X4028Y661D01*
X1Y660D02*
X8Y660D01*
X4021Y660D02*
X4028Y660D01*
X1Y659D02*
X8Y659D01*
X4021Y659D02*
X4028Y659D01*
X1Y658D02*
X8Y658D01*
X4021Y658D02*
X4028Y658D01*
X1Y657D02*
X8Y657D01*
X4021Y657D02*
X4028Y657D01*
X1Y656D02*
X8Y656D01*
X4021Y656D02*
X4028Y656D01*
X1Y655D02*
X8Y655D01*
X4021Y655D02*
X4028Y655D01*
X1Y654D02*
X8Y654D01*
X4021Y654D02*
X4028Y654D01*
X1Y653D02*
X8Y653D01*
X4021Y653D02*
X4028Y653D01*
X1Y652D02*
X8Y652D01*
X4021Y652D02*
X4028Y652D01*
X1Y651D02*
X8Y651D01*
X4021Y651D02*
X4028Y651D01*
X1Y650D02*
X8Y650D01*
X4021Y650D02*
X4028Y650D01*
X1Y649D02*
X8Y649D01*
X4021Y649D02*
X4028Y649D01*
X1Y648D02*
X8Y648D01*
X4021Y648D02*
X4028Y648D01*
X1Y647D02*
X8Y647D01*
X4021Y647D02*
X4028Y647D01*
X1Y646D02*
X8Y646D01*
X4021Y646D02*
X4028Y646D01*
X1Y645D02*
X8Y645D01*
X4021Y645D02*
X4028Y645D01*
X1Y644D02*
X8Y644D01*
X4021Y644D02*
X4028Y644D01*
X1Y643D02*
X8Y643D01*
X4021Y643D02*
X4028Y643D01*
X1Y642D02*
X8Y642D01*
X4021Y642D02*
X4028Y642D01*
X1Y641D02*
X8Y641D01*
X4021Y641D02*
X4028Y641D01*
X1Y640D02*
X8Y640D01*
X4021Y640D02*
X4028Y640D01*
X1Y639D02*
X8Y639D01*
X4021Y639D02*
X4028Y639D01*
X1Y638D02*
X8Y638D01*
X4021Y638D02*
X4028Y638D01*
X1Y637D02*
X8Y637D01*
X4021Y637D02*
X4028Y637D01*
X1Y636D02*
X8Y636D01*
X4021Y636D02*
X4028Y636D01*
X1Y635D02*
X8Y635D01*
X4021Y635D02*
X4028Y635D01*
X1Y634D02*
X8Y634D01*
X3786Y634D02*
X3787Y634D01*
X4021Y634D02*
X4028Y634D01*
X1Y633D02*
X8Y633D01*
X3785Y633D02*
X3788Y633D01*
X4021Y633D02*
X4028Y633D01*
X1Y632D02*
X8Y632D01*
X3784Y632D02*
X3789Y632D01*
X4021Y632D02*
X4028Y632D01*
X1Y631D02*
X8Y631D01*
X3784Y631D02*
X3790Y631D01*
X4021Y631D02*
X4028Y631D01*
X1Y630D02*
X8Y630D01*
X3785Y630D02*
X3791Y630D01*
X4021Y630D02*
X4028Y630D01*
X1Y629D02*
X8Y629D01*
X3786Y629D02*
X3792Y629D01*
X4021Y629D02*
X4028Y629D01*
X1Y628D02*
X8Y628D01*
X3787Y628D02*
X3793Y628D01*
X4021Y628D02*
X4028Y628D01*
X1Y627D02*
X8Y627D01*
X3788Y627D02*
X3794Y627D01*
X4021Y627D02*
X4028Y627D01*
X1Y626D02*
X8Y626D01*
X3789Y626D02*
X3795Y626D01*
X4021Y626D02*
X4028Y626D01*
X1Y625D02*
X8Y625D01*
X3790Y625D02*
X3796Y625D01*
X4021Y625D02*
X4028Y625D01*
X1Y624D02*
X8Y624D01*
X3791Y624D02*
X3797Y624D01*
X4021Y624D02*
X4028Y624D01*
X1Y623D02*
X8Y623D01*
X3792Y623D02*
X3798Y623D01*
X4021Y623D02*
X4028Y623D01*
X1Y622D02*
X8Y622D01*
X3793Y622D02*
X3799Y622D01*
X4021Y622D02*
X4028Y622D01*
X1Y621D02*
X8Y621D01*
X3794Y621D02*
X3800Y621D01*
X4021Y621D02*
X4028Y621D01*
X1Y620D02*
X8Y620D01*
X3795Y620D02*
X3801Y620D01*
X4021Y620D02*
X4028Y620D01*
X1Y619D02*
X8Y619D01*
X3796Y619D02*
X3802Y619D01*
X4021Y619D02*
X4028Y619D01*
X1Y618D02*
X8Y618D01*
X3797Y618D02*
X3803Y618D01*
X4021Y618D02*
X4028Y618D01*
X1Y617D02*
X8Y617D01*
X3799Y617D02*
X3804Y617D01*
X4021Y617D02*
X4028Y617D01*
X1Y616D02*
X8Y616D01*
X3800Y616D02*
X3805Y616D01*
X4021Y616D02*
X4028Y616D01*
X1Y615D02*
X8Y615D01*
X3801Y615D02*
X3806Y615D01*
X4021Y615D02*
X4028Y615D01*
X1Y614D02*
X8Y614D01*
X3802Y614D02*
X3807Y614D01*
X4021Y614D02*
X4028Y614D01*
X1Y613D02*
X8Y613D01*
X3803Y613D02*
X3808Y613D01*
X4021Y613D02*
X4028Y613D01*
X1Y612D02*
X8Y612D01*
X3804Y612D02*
X3809Y612D01*
X4021Y612D02*
X4028Y612D01*
X1Y611D02*
X8Y611D01*
X3805Y611D02*
X3810Y611D01*
X4021Y611D02*
X4028Y611D01*
X1Y610D02*
X8Y610D01*
X3805Y610D02*
X3811Y610D01*
X4021Y610D02*
X4028Y610D01*
X1Y609D02*
X8Y609D01*
X3806Y609D02*
X3812Y609D01*
X4021Y609D02*
X4028Y609D01*
X1Y608D02*
X8Y608D01*
X3807Y608D02*
X3813Y608D01*
X4021Y608D02*
X4028Y608D01*
X1Y607D02*
X8Y607D01*
X3808Y607D02*
X3814Y607D01*
X4021Y607D02*
X4028Y607D01*
X1Y606D02*
X8Y606D01*
X3809Y606D02*
X3815Y606D01*
X4021Y606D02*
X4028Y606D01*
X1Y605D02*
X8Y605D01*
X3810Y605D02*
X3816Y605D01*
X4021Y605D02*
X4028Y605D01*
X1Y604D02*
X8Y604D01*
X3811Y604D02*
X3817Y604D01*
X4021Y604D02*
X4028Y604D01*
X1Y603D02*
X8Y603D01*
X3812Y603D02*
X3818Y603D01*
X4021Y603D02*
X4028Y603D01*
X1Y602D02*
X8Y602D01*
X3813Y602D02*
X3819Y602D01*
X4021Y602D02*
X4028Y602D01*
X1Y601D02*
X8Y601D01*
X3814Y601D02*
X3820Y601D01*
X4021Y601D02*
X4028Y601D01*
X1Y600D02*
X8Y600D01*
X3815Y600D02*
X3821Y600D01*
X4021Y600D02*
X4028Y600D01*
X1Y599D02*
X8Y599D01*
X3816Y599D02*
X3820Y599D01*
X4021Y599D02*
X4028Y599D01*
X1Y598D02*
X8Y598D01*
X3817Y598D02*
X3819Y598D01*
X4021Y598D02*
X4028Y598D01*
X1Y597D02*
X8Y597D01*
X3818Y597D02*
X3818Y597D01*
X4021Y597D02*
X4028Y597D01*
X1Y596D02*
X8Y596D01*
X4021Y596D02*
X4028Y596D01*
X1Y595D02*
X8Y595D01*
X4021Y595D02*
X4028Y595D01*
X1Y594D02*
X8Y594D01*
X4021Y594D02*
X4028Y594D01*
X1Y593D02*
X8Y593D01*
X4021Y593D02*
X4028Y593D01*
X1Y592D02*
X8Y592D01*
X4021Y592D02*
X4028Y592D01*
X1Y591D02*
X8Y591D01*
X4021Y591D02*
X4028Y591D01*
X1Y590D02*
X8Y590D01*
X4021Y590D02*
X4028Y590D01*
X1Y589D02*
X8Y589D01*
X4021Y589D02*
X4028Y589D01*
X1Y588D02*
X8Y588D01*
X4021Y588D02*
X4028Y588D01*
X1Y587D02*
X8Y587D01*
X4021Y587D02*
X4028Y587D01*
X1Y586D02*
X8Y586D01*
X4021Y586D02*
X4028Y586D01*
X1Y585D02*
X8Y585D01*
X4021Y585D02*
X4028Y585D01*
X1Y584D02*
X8Y584D01*
X4021Y584D02*
X4028Y584D01*
X1Y583D02*
X8Y583D01*
X4021Y583D02*
X4028Y583D01*
X1Y582D02*
X8Y582D01*
X4021Y582D02*
X4028Y582D01*
X1Y581D02*
X8Y581D01*
X4021Y581D02*
X4028Y581D01*
X1Y580D02*
X8Y580D01*
X4021Y580D02*
X4028Y580D01*
X1Y579D02*
X8Y579D01*
X4021Y579D02*
X4028Y579D01*
X1Y578D02*
X8Y578D01*
X4021Y578D02*
X4028Y578D01*
X1Y577D02*
X8Y577D01*
X4021Y577D02*
X4028Y577D01*
X1Y576D02*
X8Y576D01*
X4021Y576D02*
X4028Y576D01*
X1Y575D02*
X8Y575D01*
X4021Y575D02*
X4028Y575D01*
X1Y574D02*
X8Y574D01*
X4021Y574D02*
X4028Y574D01*
X1Y573D02*
X8Y573D01*
X4021Y573D02*
X4028Y573D01*
X1Y572D02*
X8Y572D01*
X4021Y572D02*
X4028Y572D01*
X1Y571D02*
X8Y571D01*
X4021Y571D02*
X4028Y571D01*
X1Y570D02*
X8Y570D01*
X4021Y570D02*
X4028Y570D01*
X1Y569D02*
X8Y569D01*
X4021Y569D02*
X4028Y569D01*
X1Y568D02*
X8Y568D01*
X4021Y568D02*
X4028Y568D01*
X1Y567D02*
X8Y567D01*
X4021Y567D02*
X4028Y567D01*
X1Y566D02*
X8Y566D01*
X4021Y566D02*
X4028Y566D01*
X1Y565D02*
X8Y565D01*
X4021Y565D02*
X4028Y565D01*
X1Y564D02*
X8Y564D01*
X4021Y564D02*
X4028Y564D01*
X1Y563D02*
X8Y563D01*
X4021Y563D02*
X4028Y563D01*
X1Y562D02*
X8Y562D01*
X4021Y562D02*
X4028Y562D01*
X1Y561D02*
X8Y561D01*
X4021Y561D02*
X4028Y561D01*
X1Y560D02*
X8Y560D01*
X4021Y560D02*
X4028Y560D01*
X1Y559D02*
X8Y559D01*
X4021Y559D02*
X4028Y559D01*
X1Y558D02*
X8Y558D01*
X4021Y558D02*
X4028Y558D01*
X1Y557D02*
X8Y557D01*
X4021Y557D02*
X4028Y557D01*
X1Y556D02*
X8Y556D01*
X4021Y556D02*
X4028Y556D01*
X1Y555D02*
X8Y555D01*
X4021Y555D02*
X4028Y555D01*
X1Y554D02*
X8Y554D01*
X4021Y554D02*
X4028Y554D01*
X1Y553D02*
X8Y553D01*
X4021Y553D02*
X4028Y553D01*
X1Y552D02*
X8Y552D01*
X4021Y552D02*
X4028Y552D01*
X1Y551D02*
X8Y551D01*
X4021Y551D02*
X4028Y551D01*
X1Y550D02*
X8Y550D01*
X4021Y550D02*
X4028Y550D01*
X1Y549D02*
X8Y549D01*
X4021Y549D02*
X4028Y549D01*
X1Y548D02*
X8Y548D01*
X4021Y548D02*
X4028Y548D01*
X1Y547D02*
X8Y547D01*
X4021Y547D02*
X4028Y547D01*
X1Y546D02*
X8Y546D01*
X4021Y546D02*
X4028Y546D01*
X1Y545D02*
X8Y545D01*
X4021Y545D02*
X4028Y545D01*
X1Y544D02*
X8Y544D01*
X4021Y544D02*
X4028Y544D01*
X1Y543D02*
X8Y543D01*
X4021Y543D02*
X4028Y543D01*
X1Y542D02*
X8Y542D01*
X4021Y542D02*
X4028Y542D01*
X1Y541D02*
X8Y541D01*
X4021Y541D02*
X4028Y541D01*
X1Y540D02*
X8Y540D01*
X4021Y540D02*
X4028Y540D01*
X1Y539D02*
X8Y539D01*
X4021Y539D02*
X4028Y539D01*
X1Y538D02*
X8Y538D01*
X4021Y538D02*
X4028Y538D01*
X1Y537D02*
X8Y537D01*
X4021Y537D02*
X4028Y537D01*
X1Y536D02*
X8Y536D01*
X4021Y536D02*
X4028Y536D01*
X1Y535D02*
X8Y535D01*
X4021Y535D02*
X4028Y535D01*
X1Y534D02*
X8Y534D01*
X4021Y534D02*
X4028Y534D01*
X1Y533D02*
X8Y533D01*
X4021Y533D02*
X4028Y533D01*
X1Y532D02*
X8Y532D01*
X4021Y532D02*
X4028Y532D01*
X1Y531D02*
X8Y531D01*
X4021Y531D02*
X4028Y531D01*
X1Y530D02*
X8Y530D01*
X4021Y530D02*
X4028Y530D01*
X1Y529D02*
X8Y529D01*
X4021Y529D02*
X4028Y529D01*
X1Y528D02*
X8Y528D01*
X4021Y528D02*
X4028Y528D01*
X1Y527D02*
X8Y527D01*
X4021Y527D02*
X4028Y527D01*
X1Y526D02*
X8Y526D01*
X4021Y526D02*
X4028Y526D01*
X1Y525D02*
X8Y525D01*
X4021Y525D02*
X4028Y525D01*
X1Y524D02*
X8Y524D01*
X4021Y524D02*
X4028Y524D01*
X1Y523D02*
X8Y523D01*
X4021Y523D02*
X4028Y523D01*
X1Y522D02*
X8Y522D01*
X4021Y522D02*
X4028Y522D01*
X1Y521D02*
X8Y521D01*
X4021Y521D02*
X4028Y521D01*
X1Y520D02*
X8Y520D01*
X4021Y520D02*
X4028Y520D01*
X1Y519D02*
X8Y519D01*
X4021Y519D02*
X4028Y519D01*
X1Y518D02*
X8Y518D01*
X4021Y518D02*
X4028Y518D01*
X1Y517D02*
X8Y517D01*
X4021Y517D02*
X4028Y517D01*
X1Y516D02*
X8Y516D01*
X4021Y516D02*
X4028Y516D01*
X1Y515D02*
X8Y515D01*
X4021Y515D02*
X4028Y515D01*
X1Y514D02*
X8Y514D01*
X4021Y514D02*
X4028Y514D01*
X1Y513D02*
X8Y513D01*
X4021Y513D02*
X4028Y513D01*
X1Y512D02*
X8Y512D01*
X4021Y512D02*
X4028Y512D01*
X1Y511D02*
X8Y511D01*
X4021Y511D02*
X4028Y511D01*
X1Y510D02*
X8Y510D01*
X4021Y510D02*
X4028Y510D01*
X1Y509D02*
X8Y509D01*
X4021Y509D02*
X4028Y509D01*
X1Y508D02*
X8Y508D01*
X4021Y508D02*
X4028Y508D01*
X1Y507D02*
X8Y507D01*
X4021Y507D02*
X4028Y507D01*
X1Y506D02*
X8Y506D01*
X4021Y506D02*
X4028Y506D01*
X1Y505D02*
X8Y505D01*
X4021Y505D02*
X4028Y505D01*
X1Y504D02*
X8Y504D01*
X4021Y504D02*
X4028Y504D01*
X1Y503D02*
X8Y503D01*
X4021Y503D02*
X4028Y503D01*
X1Y502D02*
X8Y502D01*
X4021Y502D02*
X4028Y502D01*
X1Y501D02*
X8Y501D01*
X4021Y501D02*
X4028Y501D01*
X1Y500D02*
X8Y500D01*
X4021Y500D02*
X4028Y500D01*
X1Y499D02*
X8Y499D01*
X4021Y499D02*
X4028Y499D01*
X1Y498D02*
X8Y498D01*
X4021Y498D02*
X4028Y498D01*
X1Y497D02*
X8Y497D01*
X4021Y497D02*
X4028Y497D01*
X1Y496D02*
X8Y496D01*
X4021Y496D02*
X4028Y496D01*
X1Y495D02*
X8Y495D01*
X4021Y495D02*
X4028Y495D01*
X1Y494D02*
X8Y494D01*
X4021Y494D02*
X4028Y494D01*
X1Y493D02*
X8Y493D01*
X4021Y493D02*
X4028Y493D01*
X1Y492D02*
X8Y492D01*
X4021Y492D02*
X4028Y492D01*
X1Y491D02*
X8Y491D01*
X4021Y491D02*
X4028Y491D01*
X1Y490D02*
X8Y490D01*
X4021Y490D02*
X4028Y490D01*
X1Y489D02*
X8Y489D01*
X4021Y489D02*
X4028Y489D01*
X1Y488D02*
X8Y488D01*
X4021Y488D02*
X4028Y488D01*
X1Y487D02*
X8Y487D01*
X4021Y487D02*
X4028Y487D01*
X1Y486D02*
X8Y486D01*
X4021Y486D02*
X4028Y486D01*
X1Y485D02*
X8Y485D01*
X4021Y485D02*
X4028Y485D01*
X1Y484D02*
X8Y484D01*
X4021Y484D02*
X4028Y484D01*
X1Y483D02*
X8Y483D01*
X4021Y483D02*
X4028Y483D01*
X1Y482D02*
X8Y482D01*
X4021Y482D02*
X4028Y482D01*
X1Y481D02*
X8Y481D01*
X4021Y481D02*
X4028Y481D01*
X1Y480D02*
X8Y480D01*
X4021Y480D02*
X4028Y480D01*
X1Y479D02*
X8Y479D01*
X4021Y479D02*
X4028Y479D01*
X1Y478D02*
X8Y478D01*
X4021Y478D02*
X4028Y478D01*
X1Y477D02*
X8Y477D01*
X4021Y477D02*
X4028Y477D01*
X1Y476D02*
X8Y476D01*
X4021Y476D02*
X4028Y476D01*
X1Y475D02*
X8Y475D01*
X4021Y475D02*
X4028Y475D01*
X1Y474D02*
X8Y474D01*
X4021Y474D02*
X4028Y474D01*
X1Y473D02*
X8Y473D01*
X4021Y473D02*
X4028Y473D01*
X1Y472D02*
X8Y472D01*
X4021Y472D02*
X4028Y472D01*
X1Y471D02*
X8Y471D01*
X4021Y471D02*
X4028Y471D01*
X1Y470D02*
X8Y470D01*
X4021Y470D02*
X4028Y470D01*
X1Y469D02*
X8Y469D01*
X4021Y469D02*
X4028Y469D01*
X1Y468D02*
X8Y468D01*
X4021Y468D02*
X4028Y468D01*
X1Y467D02*
X8Y467D01*
X4021Y467D02*
X4028Y467D01*
X1Y466D02*
X8Y466D01*
X4021Y466D02*
X4028Y466D01*
X1Y465D02*
X8Y465D01*
X4021Y465D02*
X4028Y465D01*
X1Y464D02*
X8Y464D01*
X4021Y464D02*
X4028Y464D01*
X1Y463D02*
X8Y463D01*
X4021Y463D02*
X4028Y463D01*
X1Y462D02*
X8Y462D01*
X4021Y462D02*
X4028Y462D01*
X1Y461D02*
X8Y461D01*
X4021Y461D02*
X4028Y461D01*
X1Y460D02*
X8Y460D01*
X4021Y460D02*
X4028Y460D01*
X1Y459D02*
X8Y459D01*
X4021Y459D02*
X4028Y459D01*
X1Y458D02*
X8Y458D01*
X4021Y458D02*
X4028Y458D01*
X1Y457D02*
X8Y457D01*
X4021Y457D02*
X4028Y457D01*
X1Y456D02*
X8Y456D01*
X4021Y456D02*
X4028Y456D01*
X1Y455D02*
X8Y455D01*
X4021Y455D02*
X4028Y455D01*
X1Y454D02*
X8Y454D01*
X4021Y454D02*
X4028Y454D01*
X1Y453D02*
X8Y453D01*
X4021Y453D02*
X4028Y453D01*
X1Y452D02*
X8Y452D01*
X4021Y452D02*
X4028Y452D01*
X1Y451D02*
X8Y451D01*
X4021Y451D02*
X4028Y451D01*
X1Y450D02*
X8Y450D01*
X4021Y450D02*
X4028Y450D01*
X1Y449D02*
X8Y449D01*
X4021Y449D02*
X4028Y449D01*
X1Y448D02*
X8Y448D01*
X4021Y448D02*
X4028Y448D01*
X1Y447D02*
X8Y447D01*
X4021Y447D02*
X4028Y447D01*
X1Y446D02*
X8Y446D01*
X4021Y446D02*
X4028Y446D01*
X1Y445D02*
X8Y445D01*
X4021Y445D02*
X4028Y445D01*
X1Y444D02*
X8Y444D01*
X4021Y444D02*
X4028Y444D01*
X1Y443D02*
X8Y443D01*
X4021Y443D02*
X4028Y443D01*
X1Y442D02*
X8Y442D01*
X4021Y442D02*
X4028Y442D01*
X1Y441D02*
X8Y441D01*
X4021Y441D02*
X4028Y441D01*
X1Y440D02*
X8Y440D01*
X4021Y440D02*
X4028Y440D01*
X1Y439D02*
X8Y439D01*
X4021Y439D02*
X4028Y439D01*
X1Y438D02*
X8Y438D01*
X4021Y438D02*
X4028Y438D01*
X1Y437D02*
X8Y437D01*
X4021Y437D02*
X4028Y437D01*
X1Y436D02*
X8Y436D01*
X4021Y436D02*
X4028Y436D01*
X1Y435D02*
X8Y435D01*
X4021Y435D02*
X4028Y435D01*
X1Y434D02*
X8Y434D01*
X4021Y434D02*
X4028Y434D01*
X1Y433D02*
X8Y433D01*
X4021Y433D02*
X4028Y433D01*
X1Y432D02*
X8Y432D01*
X4021Y432D02*
X4028Y432D01*
X1Y431D02*
X8Y431D01*
X4021Y431D02*
X4028Y431D01*
X1Y430D02*
X8Y430D01*
X4021Y430D02*
X4028Y430D01*
X1Y429D02*
X8Y429D01*
X4021Y429D02*
X4028Y429D01*
X1Y428D02*
X8Y428D01*
X4021Y428D02*
X4028Y428D01*
X1Y427D02*
X8Y427D01*
X4021Y427D02*
X4028Y427D01*
X1Y426D02*
X8Y426D01*
X4021Y426D02*
X4028Y426D01*
X1Y425D02*
X8Y425D01*
X4021Y425D02*
X4028Y425D01*
X1Y424D02*
X8Y424D01*
X4021Y424D02*
X4028Y424D01*
X1Y423D02*
X8Y423D01*
X4021Y423D02*
X4028Y423D01*
X1Y422D02*
X8Y422D01*
X4021Y422D02*
X4028Y422D01*
X1Y421D02*
X8Y421D01*
X4021Y421D02*
X4028Y421D01*
X1Y420D02*
X8Y420D01*
X4021Y420D02*
X4028Y420D01*
X1Y419D02*
X8Y419D01*
X4021Y419D02*
X4028Y419D01*
X1Y418D02*
X8Y418D01*
X4021Y418D02*
X4028Y418D01*
X1Y417D02*
X8Y417D01*
X4021Y417D02*
X4028Y417D01*
X1Y416D02*
X8Y416D01*
X4021Y416D02*
X4028Y416D01*
X1Y415D02*
X8Y415D01*
X4021Y415D02*
X4028Y415D01*
X1Y414D02*
X8Y414D01*
X4021Y414D02*
X4028Y414D01*
X1Y413D02*
X8Y413D01*
X4021Y413D02*
X4028Y413D01*
X1Y412D02*
X8Y412D01*
X4021Y412D02*
X4028Y412D01*
X1Y411D02*
X8Y411D01*
X4021Y411D02*
X4028Y411D01*
X1Y410D02*
X8Y410D01*
X4021Y410D02*
X4028Y410D01*
X1Y409D02*
X8Y409D01*
X4021Y409D02*
X4028Y409D01*
X1Y408D02*
X8Y408D01*
X4021Y408D02*
X4028Y408D01*
X1Y407D02*
X8Y407D01*
X4021Y407D02*
X4028Y407D01*
X1Y406D02*
X8Y406D01*
X4021Y406D02*
X4028Y406D01*
X1Y405D02*
X8Y405D01*
X4021Y405D02*
X4028Y405D01*
X1Y404D02*
X8Y404D01*
X4021Y404D02*
X4028Y404D01*
X1Y403D02*
X8Y403D01*
X4021Y403D02*
X4028Y403D01*
X1Y402D02*
X8Y402D01*
X4021Y402D02*
X4028Y402D01*
X1Y401D02*
X8Y401D01*
X4021Y401D02*
X4028Y401D01*
X1Y400D02*
X8Y400D01*
X4021Y400D02*
X4028Y400D01*
X1Y399D02*
X8Y399D01*
X4021Y399D02*
X4028Y399D01*
X1Y398D02*
X8Y398D01*
X4021Y398D02*
X4028Y398D01*
X1Y397D02*
X8Y397D01*
X4021Y397D02*
X4028Y397D01*
X1Y396D02*
X8Y396D01*
X4021Y396D02*
X4028Y396D01*
X1Y395D02*
X8Y395D01*
X4021Y395D02*
X4028Y395D01*
X1Y394D02*
X8Y394D01*
X4021Y394D02*
X4028Y394D01*
X1Y393D02*
X8Y393D01*
X4021Y393D02*
X4028Y393D01*
X1Y392D02*
X8Y392D01*
X4021Y392D02*
X4028Y392D01*
X1Y391D02*
X8Y391D01*
X4021Y391D02*
X4028Y391D01*
X1Y390D02*
X8Y390D01*
X4021Y390D02*
X4028Y390D01*
X1Y389D02*
X8Y389D01*
X4021Y389D02*
X4028Y389D01*
X1Y388D02*
X8Y388D01*
X4021Y388D02*
X4028Y388D01*
X1Y387D02*
X8Y387D01*
X4021Y387D02*
X4028Y387D01*
X1Y386D02*
X8Y386D01*
X4021Y386D02*
X4028Y386D01*
X1Y385D02*
X8Y385D01*
X4021Y385D02*
X4028Y385D01*
X1Y384D02*
X8Y384D01*
X4021Y384D02*
X4028Y384D01*
X1Y383D02*
X8Y383D01*
X4021Y383D02*
X4028Y383D01*
X1Y382D02*
X8Y382D01*
X4021Y382D02*
X4028Y382D01*
X1Y381D02*
X8Y381D01*
X4021Y381D02*
X4028Y381D01*
X1Y380D02*
X8Y380D01*
X4021Y380D02*
X4028Y380D01*
X1Y379D02*
X8Y379D01*
X4021Y379D02*
X4028Y379D01*
X1Y378D02*
X8Y378D01*
X4021Y378D02*
X4028Y378D01*
X1Y377D02*
X8Y377D01*
X4021Y377D02*
X4028Y377D01*
X1Y376D02*
X8Y376D01*
X4021Y376D02*
X4028Y376D01*
X1Y375D02*
X8Y375D01*
X4021Y375D02*
X4028Y375D01*
X1Y374D02*
X8Y374D01*
X4021Y374D02*
X4028Y374D01*
X1Y373D02*
X8Y373D01*
X4021Y373D02*
X4028Y373D01*
X1Y372D02*
X8Y372D01*
X4021Y372D02*
X4028Y372D01*
X1Y371D02*
X8Y371D01*
X4021Y371D02*
X4028Y371D01*
X1Y370D02*
X8Y370D01*
X4021Y370D02*
X4028Y370D01*
X1Y369D02*
X8Y369D01*
X4021Y369D02*
X4028Y369D01*
X1Y368D02*
X8Y368D01*
X4021Y368D02*
X4028Y368D01*
X1Y367D02*
X8Y367D01*
X4021Y367D02*
X4028Y367D01*
X1Y366D02*
X8Y366D01*
X4021Y366D02*
X4028Y366D01*
X1Y365D02*
X8Y365D01*
X4021Y365D02*
X4028Y365D01*
X1Y364D02*
X8Y364D01*
X4021Y364D02*
X4028Y364D01*
X1Y363D02*
X8Y363D01*
X4021Y363D02*
X4028Y363D01*
X1Y362D02*
X8Y362D01*
X4021Y362D02*
X4028Y362D01*
X1Y361D02*
X8Y361D01*
X4021Y361D02*
X4028Y361D01*
X1Y360D02*
X8Y360D01*
X4021Y360D02*
X4028Y360D01*
X1Y359D02*
X8Y359D01*
X4021Y359D02*
X4028Y359D01*
X1Y358D02*
X8Y358D01*
X4021Y358D02*
X4028Y358D01*
X1Y357D02*
X8Y357D01*
X4021Y357D02*
X4028Y357D01*
X1Y356D02*
X8Y356D01*
X4021Y356D02*
X4028Y356D01*
X1Y355D02*
X8Y355D01*
X4021Y355D02*
X4028Y355D01*
X1Y354D02*
X8Y354D01*
X4021Y354D02*
X4028Y354D01*
X1Y353D02*
X8Y353D01*
X4021Y353D02*
X4028Y353D01*
X1Y352D02*
X8Y352D01*
X4021Y352D02*
X4028Y352D01*
X1Y351D02*
X8Y351D01*
X4021Y351D02*
X4028Y351D01*
X1Y350D02*
X8Y350D01*
X4021Y350D02*
X4028Y350D01*
X1Y349D02*
X8Y349D01*
X4021Y349D02*
X4028Y349D01*
X1Y348D02*
X8Y348D01*
X4021Y348D02*
X4028Y348D01*
X1Y347D02*
X8Y347D01*
X4021Y347D02*
X4028Y347D01*
X1Y346D02*
X8Y346D01*
X4021Y346D02*
X4028Y346D01*
X1Y345D02*
X8Y345D01*
X4021Y345D02*
X4028Y345D01*
X1Y344D02*
X8Y344D01*
X4021Y344D02*
X4028Y344D01*
X1Y343D02*
X8Y343D01*
X4021Y343D02*
X4028Y343D01*
X1Y342D02*
X8Y342D01*
X4021Y342D02*
X4028Y342D01*
X1Y341D02*
X8Y341D01*
X4021Y341D02*
X4028Y341D01*
X1Y340D02*
X8Y340D01*
X4021Y340D02*
X4028Y340D01*
X1Y339D02*
X8Y339D01*
X4021Y339D02*
X4028Y339D01*
X1Y338D02*
X8Y338D01*
X4021Y338D02*
X4028Y338D01*
X1Y337D02*
X8Y337D01*
X4021Y337D02*
X4028Y337D01*
X1Y336D02*
X8Y336D01*
X4021Y336D02*
X4028Y336D01*
X1Y335D02*
X8Y335D01*
X4021Y335D02*
X4028Y335D01*
X1Y334D02*
X8Y334D01*
X4021Y334D02*
X4028Y334D01*
X1Y333D02*
X8Y333D01*
X4021Y333D02*
X4028Y333D01*
X1Y332D02*
X8Y332D01*
X4021Y332D02*
X4028Y332D01*
X1Y331D02*
X8Y331D01*
X4021Y331D02*
X4028Y331D01*
X1Y330D02*
X8Y330D01*
X4021Y330D02*
X4028Y330D01*
X1Y329D02*
X8Y329D01*
X4021Y329D02*
X4028Y329D01*
X1Y328D02*
X8Y328D01*
X4021Y328D02*
X4028Y328D01*
X1Y327D02*
X8Y327D01*
X4021Y327D02*
X4028Y327D01*
X1Y326D02*
X8Y326D01*
X4021Y326D02*
X4028Y326D01*
X1Y325D02*
X8Y325D01*
X4021Y325D02*
X4028Y325D01*
X1Y324D02*
X8Y324D01*
X4021Y324D02*
X4028Y324D01*
X1Y323D02*
X8Y323D01*
X4021Y323D02*
X4028Y323D01*
X1Y322D02*
X8Y322D01*
X4021Y322D02*
X4028Y322D01*
X1Y321D02*
X8Y321D01*
X4021Y321D02*
X4028Y321D01*
X1Y320D02*
X8Y320D01*
X4021Y320D02*
X4028Y320D01*
X1Y319D02*
X8Y319D01*
X4021Y319D02*
X4028Y319D01*
X1Y318D02*
X8Y318D01*
X4021Y318D02*
X4028Y318D01*
X1Y317D02*
X8Y317D01*
X4021Y317D02*
X4028Y317D01*
X1Y316D02*
X8Y316D01*
X4021Y316D02*
X4028Y316D01*
X1Y315D02*
X8Y315D01*
X4021Y315D02*
X4028Y315D01*
X1Y314D02*
X8Y314D01*
X4021Y314D02*
X4028Y314D01*
X1Y313D02*
X8Y313D01*
X4021Y313D02*
X4028Y313D01*
X1Y312D02*
X8Y312D01*
X4021Y312D02*
X4028Y312D01*
X1Y311D02*
X8Y311D01*
X4021Y311D02*
X4028Y311D01*
X1Y310D02*
X8Y310D01*
X4021Y310D02*
X4028Y310D01*
X1Y309D02*
X8Y309D01*
X4021Y309D02*
X4028Y309D01*
X1Y308D02*
X8Y308D01*
X4021Y308D02*
X4028Y308D01*
X1Y307D02*
X8Y307D01*
X4021Y307D02*
X4028Y307D01*
X1Y306D02*
X8Y306D01*
X4021Y306D02*
X4028Y306D01*
X1Y305D02*
X8Y305D01*
X4021Y305D02*
X4028Y305D01*
X1Y304D02*
X8Y304D01*
X4021Y304D02*
X4028Y304D01*
X1Y303D02*
X8Y303D01*
X4021Y303D02*
X4028Y303D01*
X1Y302D02*
X8Y302D01*
X4021Y302D02*
X4028Y302D01*
X1Y301D02*
X8Y301D01*
X4021Y301D02*
X4028Y301D01*
X1Y300D02*
X8Y300D01*
X4021Y300D02*
X4028Y300D01*
X1Y299D02*
X8Y299D01*
X4021Y299D02*
X4028Y299D01*
X1Y298D02*
X8Y298D01*
X4021Y298D02*
X4028Y298D01*
X1Y297D02*
X8Y297D01*
X4021Y297D02*
X4028Y297D01*
X1Y296D02*
X8Y296D01*
X4021Y296D02*
X4028Y296D01*
X1Y295D02*
X8Y295D01*
X4021Y295D02*
X4028Y295D01*
X1Y294D02*
X8Y294D01*
X4021Y294D02*
X4028Y294D01*
X1Y293D02*
X8Y293D01*
X4021Y293D02*
X4028Y293D01*
X1Y292D02*
X8Y292D01*
X4021Y292D02*
X4028Y292D01*
X1Y291D02*
X8Y291D01*
X4021Y291D02*
X4028Y291D01*
X1Y290D02*
X8Y290D01*
X4021Y290D02*
X4028Y290D01*
X1Y289D02*
X8Y289D01*
X4021Y289D02*
X4028Y289D01*
X1Y288D02*
X8Y288D01*
X4021Y288D02*
X4028Y288D01*
X1Y287D02*
X8Y287D01*
X4021Y287D02*
X4028Y287D01*
X1Y286D02*
X8Y286D01*
X4021Y286D02*
X4028Y286D01*
X1Y285D02*
X8Y285D01*
X4021Y285D02*
X4028Y285D01*
X1Y284D02*
X8Y284D01*
X4021Y284D02*
X4028Y284D01*
X1Y283D02*
X8Y283D01*
X4021Y283D02*
X4028Y283D01*
X1Y282D02*
X8Y282D01*
X4021Y282D02*
X4028Y282D01*
X1Y281D02*
X8Y281D01*
X4021Y281D02*
X4028Y281D01*
X1Y280D02*
X8Y280D01*
X4021Y280D02*
X4028Y280D01*
X1Y279D02*
X8Y279D01*
X4021Y279D02*
X4028Y279D01*
X1Y278D02*
X8Y278D01*
X4021Y278D02*
X4028Y278D01*
X1Y277D02*
X8Y277D01*
X4021Y277D02*
X4028Y277D01*
X1Y276D02*
X8Y276D01*
X4021Y276D02*
X4028Y276D01*
X1Y275D02*
X8Y275D01*
X4021Y275D02*
X4028Y275D01*
X1Y274D02*
X8Y274D01*
X4021Y274D02*
X4028Y274D01*
X1Y273D02*
X8Y273D01*
X4021Y273D02*
X4028Y273D01*
X1Y272D02*
X8Y272D01*
X4021Y272D02*
X4028Y272D01*
X1Y271D02*
X8Y271D01*
X4021Y271D02*
X4028Y271D01*
X1Y270D02*
X8Y270D01*
X4021Y270D02*
X4028Y270D01*
X1Y269D02*
X8Y269D01*
X4021Y269D02*
X4028Y269D01*
X1Y268D02*
X8Y268D01*
X4021Y268D02*
X4028Y268D01*
X1Y267D02*
X8Y267D01*
X4021Y267D02*
X4028Y267D01*
X1Y266D02*
X8Y266D01*
X4021Y266D02*
X4028Y266D01*
X1Y265D02*
X8Y265D01*
X4021Y265D02*
X4028Y265D01*
X1Y264D02*
X8Y264D01*
X4021Y264D02*
X4028Y264D01*
X1Y263D02*
X8Y263D01*
X4021Y263D02*
X4028Y263D01*
X1Y262D02*
X8Y262D01*
X4021Y262D02*
X4028Y262D01*
X1Y261D02*
X8Y261D01*
X4021Y261D02*
X4028Y261D01*
X1Y260D02*
X8Y260D01*
X4021Y260D02*
X4028Y260D01*
X1Y259D02*
X8Y259D01*
X4021Y259D02*
X4028Y259D01*
X1Y258D02*
X8Y258D01*
X4021Y258D02*
X4028Y258D01*
X1Y257D02*
X8Y257D01*
X4021Y257D02*
X4028Y257D01*
X1Y256D02*
X8Y256D01*
X4021Y256D02*
X4028Y256D01*
X1Y255D02*
X8Y255D01*
X4021Y255D02*
X4028Y255D01*
X1Y254D02*
X8Y254D01*
X4021Y254D02*
X4028Y254D01*
X1Y253D02*
X8Y253D01*
X4021Y253D02*
X4028Y253D01*
X1Y252D02*
X8Y252D01*
X4021Y252D02*
X4028Y252D01*
X1Y251D02*
X8Y251D01*
X4021Y251D02*
X4028Y251D01*
X1Y250D02*
X8Y250D01*
X4021Y250D02*
X4028Y250D01*
X1Y249D02*
X8Y249D01*
X4021Y249D02*
X4028Y249D01*
X1Y248D02*
X8Y248D01*
X4021Y248D02*
X4028Y248D01*
X1Y247D02*
X8Y247D01*
X4021Y247D02*
X4028Y247D01*
X1Y246D02*
X8Y246D01*
X4021Y246D02*
X4028Y246D01*
X1Y245D02*
X8Y245D01*
X4021Y245D02*
X4028Y245D01*
X1Y244D02*
X8Y244D01*
X4021Y244D02*
X4028Y244D01*
X1Y243D02*
X8Y243D01*
X4021Y243D02*
X4028Y243D01*
X1Y242D02*
X8Y242D01*
X4021Y242D02*
X4028Y242D01*
X1Y241D02*
X8Y241D01*
X4021Y241D02*
X4028Y241D01*
X1Y240D02*
X8Y240D01*
X4021Y240D02*
X4028Y240D01*
X1Y239D02*
X8Y239D01*
X4021Y239D02*
X4028Y239D01*
X1Y238D02*
X8Y238D01*
X4021Y238D02*
X4028Y238D01*
X1Y237D02*
X8Y237D01*
X4021Y237D02*
X4028Y237D01*
X1Y236D02*
X8Y236D01*
X4021Y236D02*
X4028Y236D01*
X1Y235D02*
X8Y235D01*
X4021Y235D02*
X4028Y235D01*
X1Y234D02*
X8Y234D01*
X4021Y234D02*
X4028Y234D01*
X1Y233D02*
X8Y233D01*
X4021Y233D02*
X4028Y233D01*
X1Y232D02*
X8Y232D01*
X4021Y232D02*
X4028Y232D01*
X1Y231D02*
X8Y231D01*
X4021Y231D02*
X4028Y231D01*
X1Y230D02*
X8Y230D01*
X4021Y230D02*
X4028Y230D01*
X1Y229D02*
X8Y229D01*
X4021Y229D02*
X4028Y229D01*
X1Y228D02*
X8Y228D01*
X4021Y228D02*
X4028Y228D01*
X1Y227D02*
X8Y227D01*
X4021Y227D02*
X4028Y227D01*
X1Y226D02*
X8Y226D01*
X4021Y226D02*
X4028Y226D01*
X1Y225D02*
X8Y225D01*
X4021Y225D02*
X4028Y225D01*
X1Y224D02*
X8Y224D01*
X4021Y224D02*
X4028Y224D01*
X1Y223D02*
X8Y223D01*
X4021Y223D02*
X4028Y223D01*
X1Y222D02*
X8Y222D01*
X4021Y222D02*
X4028Y222D01*
X1Y221D02*
X8Y221D01*
X4021Y221D02*
X4028Y221D01*
X1Y220D02*
X8Y220D01*
X4021Y220D02*
X4028Y220D01*
X1Y219D02*
X8Y219D01*
X4021Y219D02*
X4028Y219D01*
X1Y218D02*
X8Y218D01*
X4021Y218D02*
X4028Y218D01*
X1Y217D02*
X8Y217D01*
X4021Y217D02*
X4028Y217D01*
X1Y216D02*
X8Y216D01*
X4021Y216D02*
X4028Y216D01*
X1Y215D02*
X8Y215D01*
X4021Y215D02*
X4028Y215D01*
X1Y214D02*
X8Y214D01*
X4021Y214D02*
X4028Y214D01*
X1Y213D02*
X8Y213D01*
X4021Y213D02*
X4028Y213D01*
X1Y212D02*
X8Y212D01*
X4021Y212D02*
X4028Y212D01*
X1Y211D02*
X8Y211D01*
X4021Y211D02*
X4028Y211D01*
X1Y210D02*
X8Y210D01*
X4021Y210D02*
X4028Y210D01*
X1Y209D02*
X8Y209D01*
X4021Y209D02*
X4028Y209D01*
X1Y208D02*
X8Y208D01*
X4021Y208D02*
X4028Y208D01*
X1Y207D02*
X8Y207D01*
X4021Y207D02*
X4028Y207D01*
X1Y206D02*
X8Y206D01*
X4021Y206D02*
X4028Y206D01*
X1Y205D02*
X8Y205D01*
X4021Y205D02*
X4028Y205D01*
X1Y204D02*
X8Y204D01*
X4021Y204D02*
X4028Y204D01*
X1Y203D02*
X8Y203D01*
X4021Y203D02*
X4028Y203D01*
X1Y202D02*
X8Y202D01*
X4021Y202D02*
X4028Y202D01*
X1Y201D02*
X8Y201D01*
X4021Y201D02*
X4028Y201D01*
X1Y200D02*
X8Y200D01*
X4021Y200D02*
X4028Y200D01*
X1Y199D02*
X8Y199D01*
X4021Y199D02*
X4028Y199D01*
X1Y198D02*
X8Y198D01*
X4021Y198D02*
X4028Y198D01*
X1Y197D02*
X8Y197D01*
X4021Y197D02*
X4028Y197D01*
X1Y196D02*
X8Y196D01*
X4021Y196D02*
X4028Y196D01*
X1Y195D02*
X8Y195D01*
X4021Y195D02*
X4028Y195D01*
X1Y194D02*
X8Y194D01*
X4021Y194D02*
X4028Y194D01*
X1Y193D02*
X8Y193D01*
X4021Y193D02*
X4028Y193D01*
X1Y192D02*
X8Y192D01*
X4021Y192D02*
X4028Y192D01*
X1Y191D02*
X8Y191D01*
X4021Y191D02*
X4028Y191D01*
X1Y190D02*
X8Y190D01*
X4021Y190D02*
X4028Y190D01*
X1Y189D02*
X8Y189D01*
X4021Y189D02*
X4028Y189D01*
X1Y188D02*
X8Y188D01*
X4021Y188D02*
X4028Y188D01*
X1Y187D02*
X8Y187D01*
X4021Y187D02*
X4028Y187D01*
X1Y186D02*
X8Y186D01*
X4021Y186D02*
X4028Y186D01*
X1Y185D02*
X8Y185D01*
X4021Y185D02*
X4028Y185D01*
X1Y184D02*
X8Y184D01*
X4021Y184D02*
X4028Y184D01*
X1Y183D02*
X8Y183D01*
X4021Y183D02*
X4028Y183D01*
X1Y182D02*
X8Y182D01*
X4021Y182D02*
X4028Y182D01*
X1Y181D02*
X8Y181D01*
X4021Y181D02*
X4028Y181D01*
X1Y180D02*
X8Y180D01*
X4021Y180D02*
X4028Y180D01*
X1Y179D02*
X8Y179D01*
X4021Y179D02*
X4028Y179D01*
X1Y178D02*
X8Y178D01*
X4021Y178D02*
X4028Y178D01*
X1Y177D02*
X8Y177D01*
X4021Y177D02*
X4028Y177D01*
X1Y176D02*
X8Y176D01*
X4021Y176D02*
X4028Y176D01*
X1Y175D02*
X8Y175D01*
X4021Y175D02*
X4028Y175D01*
X1Y174D02*
X8Y174D01*
X4021Y174D02*
X4028Y174D01*
X1Y173D02*
X8Y173D01*
X4021Y173D02*
X4028Y173D01*
X1Y172D02*
X8Y172D01*
X4021Y172D02*
X4028Y172D01*
X1Y171D02*
X8Y171D01*
X4021Y171D02*
X4028Y171D01*
X1Y170D02*
X8Y170D01*
X4021Y170D02*
X4028Y170D01*
X1Y169D02*
X8Y169D01*
X4021Y169D02*
X4028Y169D01*
X1Y168D02*
X8Y168D01*
X4021Y168D02*
X4028Y168D01*
X1Y167D02*
X8Y167D01*
X4021Y167D02*
X4028Y167D01*
X1Y166D02*
X8Y166D01*
X4021Y166D02*
X4028Y166D01*
X1Y165D02*
X8Y165D01*
X4021Y165D02*
X4028Y165D01*
X1Y164D02*
X8Y164D01*
X4021Y164D02*
X4028Y164D01*
X1Y163D02*
X8Y163D01*
X4021Y163D02*
X4028Y163D01*
X1Y162D02*
X8Y162D01*
X4021Y162D02*
X4028Y162D01*
X1Y161D02*
X8Y161D01*
X4021Y161D02*
X4028Y161D01*
X1Y160D02*
X8Y160D01*
X4021Y160D02*
X4028Y160D01*
X1Y159D02*
X8Y159D01*
X4021Y159D02*
X4028Y159D01*
X1Y158D02*
X8Y158D01*
X4021Y158D02*
X4028Y158D01*
X1Y157D02*
X8Y157D01*
X4021Y157D02*
X4028Y157D01*
X1Y156D02*
X8Y156D01*
X4021Y156D02*
X4028Y156D01*
X1Y155D02*
X8Y155D01*
X4021Y155D02*
X4028Y155D01*
X1Y154D02*
X8Y154D01*
X4021Y154D02*
X4028Y154D01*
X1Y153D02*
X8Y153D01*
X4021Y153D02*
X4028Y153D01*
X1Y152D02*
X8Y152D01*
X4021Y152D02*
X4028Y152D01*
X1Y151D02*
X8Y151D01*
X4021Y151D02*
X4028Y151D01*
X1Y150D02*
X8Y150D01*
X4021Y150D02*
X4028Y150D01*
X1Y149D02*
X8Y149D01*
X4021Y149D02*
X4028Y149D01*
X1Y148D02*
X8Y148D01*
X4021Y148D02*
X4028Y148D01*
X1Y147D02*
X8Y147D01*
X4021Y147D02*
X4028Y147D01*
X1Y146D02*
X8Y146D01*
X4021Y146D02*
X4028Y146D01*
X1Y145D02*
X8Y145D01*
X4021Y145D02*
X4028Y145D01*
X1Y144D02*
X8Y144D01*
X4021Y144D02*
X4028Y144D01*
X1Y143D02*
X8Y143D01*
X4021Y143D02*
X4028Y143D01*
X1Y142D02*
X8Y142D01*
X4021Y142D02*
X4028Y142D01*
X1Y141D02*
X8Y141D01*
X4021Y141D02*
X4028Y141D01*
X1Y140D02*
X8Y140D01*
X4021Y140D02*
X4028Y140D01*
X1Y139D02*
X8Y139D01*
X4021Y139D02*
X4028Y139D01*
X1Y138D02*
X8Y138D01*
X4021Y138D02*
X4028Y138D01*
X1Y137D02*
X8Y137D01*
X4021Y137D02*
X4028Y137D01*
X1Y136D02*
X8Y136D01*
X4021Y136D02*
X4028Y136D01*
X1Y135D02*
X8Y135D01*
X4021Y135D02*
X4028Y135D01*
X1Y134D02*
X8Y134D01*
X4021Y134D02*
X4028Y134D01*
X1Y133D02*
X8Y133D01*
X4021Y133D02*
X4028Y133D01*
X1Y132D02*
X8Y132D01*
X4021Y132D02*
X4028Y132D01*
X1Y131D02*
X8Y131D01*
X4021Y131D02*
X4028Y131D01*
X1Y130D02*
X8Y130D01*
X4021Y130D02*
X4028Y130D01*
X1Y129D02*
X8Y129D01*
X4021Y129D02*
X4028Y129D01*
X1Y128D02*
X8Y128D01*
X4021Y128D02*
X4028Y128D01*
X1Y127D02*
X8Y127D01*
X4021Y127D02*
X4028Y127D01*
X1Y126D02*
X8Y126D01*
X4021Y126D02*
X4028Y126D01*
X1Y125D02*
X8Y125D01*
X4021Y125D02*
X4028Y125D01*
X1Y124D02*
X8Y124D01*
X4021Y124D02*
X4028Y124D01*
X1Y123D02*
X8Y123D01*
X4021Y123D02*
X4028Y123D01*
X1Y122D02*
X8Y122D01*
X4021Y122D02*
X4028Y122D01*
X1Y121D02*
X8Y121D01*
X4021Y121D02*
X4028Y121D01*
X1Y120D02*
X8Y120D01*
X4021Y120D02*
X4028Y120D01*
X1Y119D02*
X8Y119D01*
X4021Y119D02*
X4028Y119D01*
X1Y118D02*
X8Y118D01*
X4021Y118D02*
X4028Y118D01*
X1Y117D02*
X8Y117D01*
X4021Y117D02*
X4028Y117D01*
X1Y116D02*
X8Y116D01*
X4021Y116D02*
X4028Y116D01*
X1Y115D02*
X8Y115D01*
X4021Y115D02*
X4028Y115D01*
X1Y114D02*
X8Y114D01*
X4021Y114D02*
X4028Y114D01*
X1Y113D02*
X8Y113D01*
X4021Y113D02*
X4028Y113D01*
X1Y112D02*
X8Y112D01*
X4021Y112D02*
X4028Y112D01*
X1Y111D02*
X8Y111D01*
X4021Y111D02*
X4028Y111D01*
X1Y110D02*
X8Y110D01*
X4021Y110D02*
X4028Y110D01*
X1Y109D02*
X8Y109D01*
X4021Y109D02*
X4028Y109D01*
X1Y108D02*
X8Y108D01*
X4021Y108D02*
X4028Y108D01*
X1Y107D02*
X8Y107D01*
X4021Y107D02*
X4028Y107D01*
X1Y106D02*
X8Y106D01*
X4021Y106D02*
X4028Y106D01*
X1Y105D02*
X8Y105D01*
X4021Y105D02*
X4028Y105D01*
X1Y104D02*
X8Y104D01*
X4021Y104D02*
X4028Y104D01*
X1Y103D02*
X8Y103D01*
X4021Y103D02*
X4028Y103D01*
X1Y102D02*
X8Y102D01*
X4021Y102D02*
X4028Y102D01*
X1Y101D02*
X8Y101D01*
X4021Y101D02*
X4028Y101D01*
X1Y100D02*
X8Y100D01*
X4021Y100D02*
X4028Y100D01*
X1Y99D02*
X8Y99D01*
X4021Y99D02*
X4028Y99D01*
X1Y98D02*
X8Y98D01*
X4021Y98D02*
X4028Y98D01*
X1Y97D02*
X8Y97D01*
X4021Y97D02*
X4028Y97D01*
X1Y96D02*
X8Y96D01*
X4021Y96D02*
X4028Y96D01*
X1Y95D02*
X8Y95D01*
X4021Y95D02*
X4028Y95D01*
X1Y94D02*
X8Y94D01*
X4021Y94D02*
X4028Y94D01*
X1Y93D02*
X8Y93D01*
X4021Y93D02*
X4028Y93D01*
X1Y92D02*
X8Y92D01*
X4021Y92D02*
X4028Y92D01*
X1Y91D02*
X8Y91D01*
X4021Y91D02*
X4028Y91D01*
X1Y90D02*
X8Y90D01*
X4021Y90D02*
X4028Y90D01*
X1Y89D02*
X8Y89D01*
X4021Y89D02*
X4028Y89D01*
X1Y88D02*
X8Y88D01*
X4021Y88D02*
X4028Y88D01*
X1Y87D02*
X8Y87D01*
X4021Y87D02*
X4028Y87D01*
X1Y86D02*
X8Y86D01*
X4021Y86D02*
X4028Y86D01*
X1Y85D02*
X8Y85D01*
X4021Y85D02*
X4028Y85D01*
X1Y84D02*
X8Y84D01*
X4021Y84D02*
X4028Y84D01*
X1Y83D02*
X8Y83D01*
X4021Y83D02*
X4028Y83D01*
X1Y82D02*
X8Y82D01*
X4021Y82D02*
X4028Y82D01*
X1Y81D02*
X8Y81D01*
X4021Y81D02*
X4028Y81D01*
X1Y80D02*
X8Y80D01*
X4021Y80D02*
X4028Y80D01*
X1Y79D02*
X8Y79D01*
X4021Y79D02*
X4028Y79D01*
X1Y78D02*
X8Y78D01*
X4021Y78D02*
X4028Y78D01*
X1Y77D02*
X8Y77D01*
X4021Y77D02*
X4028Y77D01*
X1Y76D02*
X8Y76D01*
X4021Y76D02*
X4028Y76D01*
X1Y75D02*
X8Y75D01*
X4021Y75D02*
X4028Y75D01*
X1Y74D02*
X8Y74D01*
X4021Y74D02*
X4028Y74D01*
X1Y73D02*
X8Y73D01*
X4021Y73D02*
X4028Y73D01*
X1Y72D02*
X8Y72D01*
X4021Y72D02*
X4028Y72D01*
X1Y71D02*
X8Y71D01*
X4021Y71D02*
X4028Y71D01*
X1Y70D02*
X8Y70D01*
X4021Y70D02*
X4028Y70D01*
X1Y69D02*
X8Y69D01*
X4021Y69D02*
X4028Y69D01*
X1Y68D02*
X8Y68D01*
X4021Y68D02*
X4028Y68D01*
X1Y67D02*
X8Y67D01*
X4021Y67D02*
X4028Y67D01*
X1Y66D02*
X8Y66D01*
X4021Y66D02*
X4028Y66D01*
X1Y65D02*
X8Y65D01*
X4021Y65D02*
X4028Y65D01*
X1Y64D02*
X8Y64D01*
X4021Y64D02*
X4028Y64D01*
X1Y63D02*
X8Y63D01*
X4021Y63D02*
X4028Y63D01*
X1Y62D02*
X8Y62D01*
X4021Y62D02*
X4028Y62D01*
X1Y61D02*
X8Y61D01*
X4021Y61D02*
X4028Y61D01*
X1Y60D02*
X8Y60D01*
X4021Y60D02*
X4028Y60D01*
X1Y59D02*
X8Y59D01*
X4021Y59D02*
X4028Y59D01*
X1Y58D02*
X8Y58D01*
X4021Y58D02*
X4028Y58D01*
X1Y57D02*
X8Y57D01*
X4021Y57D02*
X4028Y57D01*
X1Y56D02*
X8Y56D01*
X4021Y56D02*
X4028Y56D01*
X1Y55D02*
X8Y55D01*
X4021Y55D02*
X4028Y55D01*
X1Y54D02*
X8Y54D01*
X4021Y54D02*
X4028Y54D01*
X1Y53D02*
X8Y53D01*
X4021Y53D02*
X4028Y53D01*
X1Y52D02*
X8Y52D01*
X4021Y52D02*
X4028Y52D01*
X1Y51D02*
X8Y51D01*
X4021Y51D02*
X4028Y51D01*
X1Y50D02*
X8Y50D01*
X4021Y50D02*
X4028Y50D01*
X1Y49D02*
X8Y49D01*
X4021Y49D02*
X4028Y49D01*
X1Y48D02*
X8Y48D01*
X4021Y48D02*
X4028Y48D01*
X1Y47D02*
X8Y47D01*
X4021Y47D02*
X4028Y47D01*
X1Y46D02*
X8Y46D01*
X4021Y46D02*
X4028Y46D01*
X1Y45D02*
X8Y45D01*
X4021Y45D02*
X4028Y45D01*
X1Y44D02*
X8Y44D01*
X4021Y44D02*
X4028Y44D01*
X1Y43D02*
X8Y43D01*
X4021Y43D02*
X4028Y43D01*
X1Y42D02*
X8Y42D01*
X4021Y42D02*
X4028Y42D01*
X1Y41D02*
X8Y41D01*
X4021Y41D02*
X4028Y41D01*
X1Y40D02*
X8Y40D01*
X4021Y40D02*
X4028Y40D01*
X1Y39D02*
X8Y39D01*
X4021Y39D02*
X4028Y39D01*
X1Y38D02*
X8Y38D01*
X4021Y38D02*
X4028Y38D01*
X1Y37D02*
X8Y37D01*
X4021Y37D02*
X4028Y37D01*
X1Y36D02*
X8Y36D01*
X4021Y36D02*
X4028Y36D01*
X1Y35D02*
X8Y35D01*
X4021Y35D02*
X4028Y35D01*
X1Y34D02*
X8Y34D01*
X4021Y34D02*
X4028Y34D01*
X1Y33D02*
X8Y33D01*
X4021Y33D02*
X4028Y33D01*
X1Y32D02*
X8Y32D01*
X4021Y32D02*
X4028Y32D01*
X1Y31D02*
X8Y31D01*
X4021Y31D02*
X4028Y31D01*
X1Y30D02*
X8Y30D01*
X4021Y30D02*
X4028Y30D01*
X1Y29D02*
X8Y29D01*
X4021Y29D02*
X4028Y29D01*
X1Y28D02*
X8Y28D01*
X4021Y28D02*
X4028Y28D01*
X1Y27D02*
X8Y27D01*
X4021Y27D02*
X4028Y27D01*
X1Y26D02*
X8Y26D01*
X4021Y26D02*
X4028Y26D01*
X1Y25D02*
X8Y25D01*
X4021Y25D02*
X4028Y25D01*
X1Y24D02*
X8Y24D01*
X4021Y24D02*
X4028Y24D01*
X1Y23D02*
X8Y23D01*
X4021Y23D02*
X4028Y23D01*
X1Y22D02*
X8Y22D01*
X4021Y22D02*
X4028Y22D01*
X1Y21D02*
X8Y21D01*
X4021Y21D02*
X4028Y21D01*
X1Y20D02*
X8Y20D01*
X4021Y20D02*
X4028Y20D01*
X1Y19D02*
X8Y19D01*
X4021Y19D02*
X4028Y19D01*
X1Y18D02*
X8Y18D01*
X4021Y18D02*
X4028Y18D01*
X1Y17D02*
X8Y17D01*
X4021Y17D02*
X4028Y17D01*
X1Y16D02*
X8Y16D01*
X4021Y16D02*
X4028Y16D01*
X1Y15D02*
X8Y15D01*
X4021Y15D02*
X4028Y15D01*
X1Y14D02*
X8Y14D01*
X4021Y14D02*
X4028Y14D01*
X1Y13D02*
X8Y13D01*
X4021Y13D02*
X4028Y13D01*
X1Y12D02*
X8Y12D01*
X4021Y12D02*
X4028Y12D01*
X1Y11D02*
X8Y11D01*
X4021Y11D02*
X4028Y11D01*
X1Y10D02*
X8Y10D01*
X4021Y10D02*
X4028Y10D01*
X1Y9D02*
X8Y9D01*
X4021Y9D02*
X4028Y9D01*
X1Y8D02*
X4028Y8D01*
X1Y7D02*
X4028Y7D01*
X1Y6D02*
X4028Y6D01*
X1Y5D02*
X4028Y5D01*
X1Y4D02*
X4028Y4D01*
X1Y3D02*
X4028Y3D01*
X1Y2D02*
X4028Y2D01*
X1Y1D02*
X4028Y1D01*
D02*
G04 End of Silk1*
M02*