G04 MADE WITH FRITZING*
G04 WWW.FRITZING.ORG*
G04 DOUBLE SIDED*
G04 HOLES PLATED*
G04 CONTOUR ON CENTER OF CONTOUR VECTOR*
%ASAXBY*%
%FSLAX23Y23*%
%MOIN*%
%OFA0B0*%
%SFA1.0B1.0*%
%ADD10C,0.076604*%
%ADD11C,0.076632*%
%ADD12C,0.075993*%
%ADD13C,0.075965*%
%ADD14C,0.088000*%
%ADD15C,0.085000*%
%ADD16C,0.090000*%
%ADD17C,0.049370*%
%ADD18R,0.090000X0.090000*%
%LNMASK0*%
G90*
G70*
G54D10*
X1010Y113D03*
X910Y113D03*
X810Y113D03*
X710Y113D03*
G54D11*
X2370Y2013D03*
G54D10*
X610Y113D03*
X510Y113D03*
X410Y113D03*
G54D12*
X210Y1113D03*
G54D10*
X2010Y113D03*
X1910Y113D03*
X2610Y113D03*
X1810Y113D03*
X1710Y113D03*
X1610Y113D03*
X1510Y113D03*
X1410Y113D03*
G54D12*
X210Y1913D03*
G54D10*
X1310Y113D03*
G54D12*
X210Y313D03*
G54D11*
X1810Y2013D03*
G54D12*
X210Y1513D03*
X210Y713D03*
G54D11*
X2770Y2013D03*
G54D10*
X2210Y113D03*
G54D11*
X2210Y2013D03*
G54D12*
X210Y1713D03*
X210Y1313D03*
G54D13*
X210Y913D03*
G54D12*
X210Y513D03*
G54D11*
X610Y2013D03*
X710Y2013D03*
X810Y2013D03*
X2970Y2013D03*
X910Y2013D03*
X2570Y2013D03*
X1010Y2013D03*
X1110Y2013D03*
X1210Y2013D03*
X1310Y2013D03*
G54D10*
X2810Y113D03*
X2410Y113D03*
G54D11*
X1610Y2013D03*
X2010Y2013D03*
G54D12*
X210Y2013D03*
X210Y1813D03*
X210Y1613D03*
X210Y1413D03*
X210Y1213D03*
X210Y1013D03*
X210Y813D03*
X210Y613D03*
G54D13*
X210Y413D03*
G54D11*
X3070Y2013D03*
X3190Y1783D03*
X3190Y1883D03*
X3290Y1783D03*
X3290Y1883D03*
X3390Y1783D03*
X3390Y1883D03*
X1404Y1215D03*
X1504Y1215D03*
X1404Y1115D03*
X1504Y1115D03*
X1404Y1015D03*
X1504Y1015D03*
X2870Y2013D03*
X2670Y2013D03*
X2470Y2013D03*
G54D10*
X2910Y113D03*
X2710Y113D03*
X2510Y113D03*
X2310Y113D03*
G54D11*
X1510Y2013D03*
X1710Y2013D03*
X1910Y2013D03*
X2110Y2013D03*
G54D12*
X310Y2013D03*
X310Y1913D03*
X310Y1813D03*
X310Y1713D03*
X310Y1613D03*
X310Y1513D03*
X310Y1413D03*
X310Y1313D03*
X310Y1213D03*
X310Y1113D03*
X310Y1013D03*
G54D13*
X310Y913D03*
G54D12*
X310Y813D03*
X310Y713D03*
X310Y613D03*
X310Y513D03*
G54D13*
X310Y413D03*
G54D12*
X310Y313D03*
G54D10*
X1110Y113D03*
X1010Y113D03*
X910Y113D03*
X810Y113D03*
X710Y113D03*
G54D11*
X2370Y2013D03*
G54D10*
X610Y113D03*
X510Y113D03*
X410Y113D03*
G54D12*
X210Y1113D03*
G54D10*
X2010Y113D03*
X1910Y113D03*
X2610Y113D03*
X1810Y113D03*
X1710Y113D03*
X1610Y113D03*
X1510Y113D03*
X1410Y113D03*
G54D12*
X210Y1913D03*
G54D10*
X1310Y113D03*
G54D12*
X210Y313D03*
G54D11*
X1810Y2013D03*
G54D12*
X210Y1513D03*
X210Y713D03*
G54D11*
X2770Y2013D03*
G54D10*
X2210Y113D03*
G54D11*
X2210Y2013D03*
G54D12*
X210Y1713D03*
X210Y1313D03*
G54D13*
X210Y913D03*
G54D12*
X210Y513D03*
G54D11*
X610Y2013D03*
X710Y2013D03*
X810Y2013D03*
X2970Y2013D03*
X910Y2013D03*
X2570Y2013D03*
X1010Y2013D03*
X1110Y2013D03*
X1210Y2013D03*
X1310Y2013D03*
G54D10*
X2810Y113D03*
X2410Y113D03*
G54D11*
X1610Y2013D03*
X2010Y2013D03*
G54D12*
X210Y2013D03*
X210Y1813D03*
X210Y1613D03*
X210Y1413D03*
X210Y1213D03*
X210Y1013D03*
X210Y813D03*
X210Y613D03*
G54D13*
X210Y413D03*
G54D11*
X3070Y2013D03*
X3190Y1783D03*
X3190Y1883D03*
X3290Y1783D03*
X3290Y1883D03*
X3390Y1783D03*
X3390Y1883D03*
X1404Y1215D03*
X1504Y1215D03*
X1404Y1115D03*
X1504Y1115D03*
X1404Y1015D03*
X1504Y1015D03*
X2870Y2013D03*
X2670Y2013D03*
X2470Y2013D03*
G54D10*
X2910Y113D03*
X2710Y113D03*
X2510Y113D03*
X2310Y113D03*
G54D11*
X1510Y2013D03*
X1710Y2013D03*
X1910Y2013D03*
X2110Y2013D03*
G54D12*
X310Y2013D03*
X310Y1913D03*
X310Y1813D03*
X310Y1713D03*
X310Y1613D03*
X310Y1513D03*
X310Y1413D03*
X310Y1313D03*
X310Y1213D03*
X310Y1113D03*
X310Y1013D03*
G54D13*
X310Y913D03*
G54D12*
X310Y813D03*
X310Y713D03*
X310Y613D03*
X310Y513D03*
G54D13*
X310Y413D03*
G54D12*
X310Y313D03*
G54D10*
X1110Y113D03*
G54D14*
X3770Y583D03*
X3670Y583D03*
X3570Y583D03*
X3470Y583D03*
X3370Y583D03*
G54D15*
X1010Y536D03*
X754Y536D03*
X1010Y713D03*
X754Y713D03*
X1010Y1336D03*
X754Y1336D03*
X1010Y1513D03*
X754Y1513D03*
G54D14*
X1820Y1413D03*
X1820Y1113D03*
G54D16*
X2550Y753D03*
X2550Y553D03*
X2550Y753D03*
X2550Y553D03*
G54D17*
X2678Y1522D03*
G54D18*
X2550Y753D03*
X2550Y753D03*
G04 End of Mask0*
M02*