; NON-PLATED HOLES START AT T1
; THROUGH (PLATED) HOLES START AT T100
M48
INCH
T100C0.035000
T101C0.038035
T102C0.037368
T103C0.038007
T104C0.038000
T105C0.040000
T106C0.037396
T107C0.015748
%
T100
X010098Y007129
X010098Y005358
X007539Y015129
X010098Y015129
X010098Y013357
X007539Y013357
X007539Y007129
X007539Y005358
T101
X026698Y020129
X031899Y017832
X024698Y020129
X008098Y020129
X032898Y018832
X015035Y011151
X011098Y020129
X009098Y020129
X019098Y020129
X029698Y020129
X031899Y018832
X028698Y020129
X021098Y020129
X014036Y010153
X013098Y020129
X030698Y020129
X014036Y011151
X022098Y020129
X025698Y020129
X016098Y020129
X006098Y020129
X007098Y020129
X033896Y017832
X015035Y010153
X014036Y012149
X032898Y017832
X018098Y020129
X020098Y020129
X023698Y020129
X015098Y020129
X015035Y012149
X010098Y020129
X027698Y020129
X033896Y018832
X017098Y020129
X012098Y020129
T102
X003098Y004129
X002098Y004129
X003098Y009129
X002098Y009129
T103
X005098Y001129
X013098Y001129
X018098Y001129
X007098Y001129
X019098Y001129
X016098Y001129
X028098Y001129
X026098Y001129
X014098Y001129
X023098Y001129
X020098Y001129
X011098Y001129
X004098Y001129
X006098Y001129
X029098Y001129
X027098Y001129
X010098Y001129
X008098Y001129
X015098Y001129
X017098Y001129
X025098Y001129
X022098Y001129
X009098Y001129
X024098Y001129
T104
X034698Y005829
X035698Y005829
X036698Y005829
X037698Y005829
X033698Y005829
X018198Y011129
X018198Y014129
T105
X025498Y005529
X025498Y007529
T106
X002098Y006129
X003098Y011129
X002098Y019129
X003098Y014129
X002098Y010129
X002098Y005129
X003098Y013129
X002098Y017129
X003098Y016129
X003098Y005129
X002098Y015129
X003098Y012129
X002098Y012129
X002098Y020129
X003098Y003129
X003098Y010129
X002098Y018129
X002098Y011129
X002098Y008129
X002098Y003129
X003098Y015129
X003098Y007129
X003098Y020129
X003098Y006129
X002098Y014129
X003098Y008129
X003098Y019129
X002098Y016129
X003098Y018129
X002098Y007129
X003098Y017129
X002098Y013129
T107
X026782Y015216
T00
M30
